<ttFont>
    <TTGlyph name=".notdef" xMin="94" yMin="0" xMax="538" yMax="660">
      <contour>
        <pt x="94" y="660" on="1"/>
        <pt x="538" y="660" on="1"/>
        <pt x="538" y="0" on="1"/>
        <pt x="94" y="0" on="1"/>
      </contour>
      <contour>
        <pt x="286" y="340" on="1"/>
        <pt x="139" y="600" on="1"/>
        <pt x="139" y="84" on="1"/>
      </contour>
      <contour>
        <pt x="491" y="84" on="1"/>
        <pt x="491" y="600" on="1"/>
        <pt x="346" y="340" on="1"/>
      </contour>
      <contour>
        <pt x="470" y="39" on="1"/>
        <pt x="377" y="203" on="1"/>
        <pt x="318" y="308" on="1"/>
        <pt x="314" y="308" on="1"/>
        <pt x="253" y="203" on="1"/>
        <pt x="158" y="39" on="1"/>
      </contour>
      <contour>
        <pt x="318" y="372" on="1"/>
        <pt x="371" y="464" on="1"/>
        <pt x="457" y="619" on="1"/>
        <pt x="173" y="619" on="1"/>
        <pt x="260" y="464" on="1"/>
        <pt x="314" y="372" on="1"/>
      </contour>
    </TTGlyph>
    <TTGlyph name="A" xMin="8" yMin="0" xMax="518" yMax="659">
      <contour>
        <pt x="380" y="265" on="1"/>
        <pt x="338" y="388" on="1"/>
        <pt x="318" y="447" on="0"/>
        <pt x="282" y="555" on="0"/>
        <pt x="265" y="616" on="1"/>
        <pt x="261" y="616" on="1"/>
        <pt x="244" y="555" on="0"/>
        <pt x="208" y="447" on="0"/>
        <pt x="188" y="388" on="1"/>
        <pt x="146" y="265" on="1"/>
      </contour>
      <contour>
        <pt x="393" y="226" on="1"/>
        <pt x="132" y="226" on="1"/>
        <pt x="54" y="0" on="1"/>
        <pt x="8" y="0" on="1"/>
        <pt x="240" y="659" on="1"/>
        <pt x="286" y="659" on="1"/>
        <pt x="518" y="0" on="1"/>
        <pt x="470" y="0" on="1"/>
      </contour>
    </TTGlyph>
    <TTGlyph name="A.sc" xMin="8" yMin="0" xMax="443" yMax="512">
      <contour>
        <pt x="321" y="205" on="1"/>
        <pt x="287" y="298" on="1"/>
        <pt x="270" y="344" on="0"/>
        <pt x="242" y="423" on="0"/>
        <pt x="227" y="468" on="1"/>
        <pt x="223" y="468" on="1"/>
        <pt x="208" y="423" on="0"/>
        <pt x="181" y="344" on="0"/>
        <pt x="164" y="298" on="1"/>
        <pt x="130" y="205" on="1"/>
      </contour>
      <contour>
        <pt x="334" y="168" on="1"/>
        <pt x="116" y="168" on="1"/>
        <pt x="54" y="0" on="1"/>
        <pt x="8" y="0" on="1"/>
        <pt x="202" y="512" on="1"/>
        <pt x="249" y="512" on="1"/>
        <pt x="443" y="0" on="1"/>
        <pt x="395" y="0" on="1"/>
      </contour>
    </TTGlyph>
    <TTGlyph name="A.sups" xMin="2" yMin="269" xMax="347" yMax="701">
      <contour>
        <pt x="248" y="444" on="1"/>
        <pt x="223" y="519" on="1"/>
        <pt x="210" y="558" on="0"/>
        <pt x="187" y="629" on="0"/>
        <pt x="175" y="667" on="1"/>
        <pt x="173" y="667" on="1"/>
        <pt x="162" y="628" on="0"/>
        <pt x="139" y="557" on="0"/>
        <pt x="126" y="519" on="1"/>
        <pt x="100" y="444" on="1"/>
      </contour>
      <contour>
        <pt x="259" y="412" on="1"/>
        <pt x="89" y="412" on="1"/>
        <pt x="40" y="269" on="1"/>
        <pt x="2" y="269" on="1"/>
        <pt x="155" y="701" on="1"/>
        <pt x="196" y="701" on="1"/>
        <pt x="347" y="269" on="1"/>
        <pt x="307" y="269" on="1"/>
      </contour>
    </TTGlyph>
    <TTGlyph name="AE" xMin="21" yMin="0" xMax="762" yMax="659">
      <contour>
        <pt x="411" y="255" on="1"/>
        <pt x="411" y="619" on="1"/>
        <pt x="407" y="619" on="1"/>
        <pt x="376" y="563" on="0"/>
        <pt x="315" y="448" on="0"/>
        <pt x="283" y="388" on="1"/>
        <pt x="210" y="255" on="1"/>
      </contour>
      <contour>
        <pt x="762" y="40" on="1"/>
        <pt x="762" y="0" on="1"/>
        <pt x="411" y="0" on="1"/>
        <pt x="411" y="217" on="1"/>
        <pt x="189" y="217" on="1"/>
        <pt x="70" y="0" on="1"/>
        <pt x="21" y="0" on="1"/>
        <pt x="386" y="659" on="1"/>
        <pt x="752" y="659" on="1"/>
        <pt x="752" y="619" on="1"/>
        <pt x="457" y="619" on="1"/>
        <pt x="457" y="370" on="1"/>
        <pt x="702" y="370" on="1"/>
        <pt x="702" y="330" on="1"/>
        <pt x="457" y="330" on="1"/>
        <pt x="457" y="40" on="1"/>
      </contour>
    </TTGlyph>
    <TTGlyph name="AE.sc" xMin="21" yMin="0" xMax="648" yMax="512">
      <contour>
        <pt x="349" y="198" on="1"/>
        <pt x="349" y="475" on="1"/>
        <pt x="346" y="475" on="1"/>
        <pt x="321" y="432" on="0"/>
        <pt x="269" y="343" on="0"/>
        <pt x="243" y="298" on="1"/>
        <pt x="184" y="198" on="1"/>
      </contour>
      <contour>
        <pt x="648" y="38" on="1"/>
        <pt x="648" y="0" on="1"/>
        <pt x="349" y="0" on="1"/>
        <pt x="349" y="161" on="1"/>
        <pt x="163" y="161" on="1"/>
        <pt x="68" y="0" on="1"/>
        <pt x="21" y="0" on="1"/>
        <pt x="324" y="512" on="1"/>
        <pt x="638" y="512" on="1"/>
        <pt x="638" y="474" on="1"/>
        <pt x="395" y="474" on="1"/>
        <pt x="395" y="290" on="1"/>
        <pt x="597" y="290" on="1"/>
        <pt x="597" y="253" on="1"/>
        <pt x="395" y="253" on="1"/>
        <pt x="395" y="38" on="1"/>
      </contour>
    </TTGlyph>
    <TTGlyph name="Aacute" xMin="8" yMin="0" xMax="518" yMax="815">
      <component glyphName="A" x="0" y="0" flags="0x204"/>
      <component glyphName="uni0301.cap" x="263" y="0" flags="0x4"/>
    </TTGlyph>
    <TTGlyph name="Aacute.sc" xMin="8" yMin="0" xMax="443" yMax="697">
      <component glyphName="A.sc" x="0" y="0" flags="0x204"/>
      <component glyphName="uni0301.cap" x="225" y="-118" flags="0x4"/>
    </TTGlyph>
    <TTGlyph name="Abreve" xMin="8" yMin="0" xMax="518" yMax="815">
      <component glyphName="A" x="0" y="0" flags="0x204"/>
      <component glyphName="uni0306.cap" x="263" y="0" flags="0x4"/>
    </TTGlyph>
    <TTGlyph name="Abreve.sc" xMin="8" yMin="0" xMax="443" yMax="697">
      <component glyphName="A.sc" x="0" y="0" flags="0x204"/>
      <component glyphName="uni0306.cap" x="225" y="-118" flags="0x4"/>
    </TTGlyph>
    <TTGlyph name="Acircumflex" xMin="8" yMin="0" xMax="518" yMax="815">
      <component glyphName="A" x="0" y="0" flags="0x204"/>
      <component glyphName="uni0302.cap" x="263" y="0" flags="0x4"/>
    </TTGlyph>
    <TTGlyph name="Acircumflex.sc" xMin="8" yMin="0" xMax="443" yMax="697">
      <component glyphName="A.sc" x="0" y="0" flags="0x204"/>
      <component glyphName="uni0302.cap" x="225" y="-118" flags="0x4"/>
    </TTGlyph>
    <TTGlyph name="Adieresis" xMin="8" yMin="0" xMax="518" yMax="798">
      <component glyphName="A" x="0" y="0" flags="0x204"/>
      <component glyphName="uni0308.cap" x="263" y="0" flags="0x4"/>
    </TTGlyph>
    <TTGlyph name="Adieresis.sc" xMin="8" yMin="0" xMax="443" yMax="680">
      <component glyphName="A.sc" x="0" y="0" flags="0x204"/>
      <component glyphName="uni0308.cap" x="225" y="-118" flags="0x4"/>
    </TTGlyph>
    <TTGlyph name="Agrave" xMin="8" yMin="0" xMax="518" yMax="815">
      <component glyphName="A" x="0" y="0" flags="0x204"/>
      <component glyphName="uni0300.cap" x="263" y="0" flags="0x4"/>
    </TTGlyph>
    <TTGlyph name="Agrave.sc" xMin="8" yMin="0" xMax="443" yMax="697">
      <component glyphName="A.sc" x="0" y="0" flags="0x204"/>
      <component glyphName="uni0300.cap" x="225" y="-118" flags="0x4"/>
    </TTGlyph>
    <TTGlyph name="Amacron" xMin="8" yMin="0" xMax="518" yMax="770">
      <component glyphName="A" x="0" y="0" flags="0x204"/>
      <component glyphName="uni0304.cap" x="263" y="0" flags="0x4"/>
    </TTGlyph>
    <TTGlyph name="Amacron.sc" xMin="8" yMin="0" xMax="443" yMax="652">
      <component glyphName="A.sc" x="0" y="0" flags="0x204"/>
      <component glyphName="uni0304.cap" x="225" y="-118" flags="0x4"/>
    </TTGlyph>
    <TTGlyph name="Aogonek" xMin="8" yMin="-205" xMax="554" yMax="659">
      <contour>
        <pt x="380" y="265" on="1"/>
        <pt x="338" y="388" on="1"/>
        <pt x="318" y="447" on="0"/>
        <pt x="282" y="555" on="0"/>
        <pt x="265" y="616" on="1"/>
        <pt x="261" y="616" on="1"/>
        <pt x="244" y="555" on="0"/>
        <pt x="208" y="447" on="0"/>
        <pt x="188" y="388" on="1"/>
        <pt x="146" y="265" on="1"/>
      </contour>
      <contour>
        <pt x="554" y="-181" on="1"/>
        <pt x="543" y="-191" on="0"/>
        <pt x="506" y="-205" on="0"/>
        <pt x="489" y="-205" on="1"/>
        <pt x="454" y="-205" on="0"/>
        <pt x="405" y="-165" on="0"/>
        <pt x="405" y="-123" on="1"/>
        <pt x="405" y="-104" on="0"/>
        <pt x="417" y="-68" on="0"/>
        <pt x="437" y="-36" on="0"/>
        <pt x="463" y="-9" on="0"/>
        <pt x="476" y="0" on="1"/>
        <pt x="470" y="0" on="1"/>
        <pt x="393" y="226" on="1"/>
        <pt x="132" y="226" on="1"/>
        <pt x="54" y="0" on="1"/>
        <pt x="8" y="0" on="1"/>
        <pt x="240" y="659" on="1"/>
        <pt x="286" y="659" on="1"/>
        <pt x="518" y="0" on="1"/>
        <pt x="487" y="-20" on="0"/>
        <pt x="444" y="-85" on="0"/>
        <pt x="444" y="-116" on="1"/>
        <pt x="444" y="-142" on="0"/>
        <pt x="475" y="-168" on="0"/>
        <pt x="495" y="-168" on="1"/>
        <pt x="520" y="-168" on="0"/>
        <pt x="538" y="-154" on="1"/>
      </contour>
    </TTGlyph>
    <TTGlyph name="Aogonek.sc" xMin="8" yMin="-205" xMax="479" yMax="512">
      <contour>
        <pt x="321" y="205" on="1"/>
        <pt x="287" y="298" on="1"/>
        <pt x="270" y="344" on="0"/>
        <pt x="242" y="423" on="0"/>
        <pt x="227" y="468" on="1"/>
        <pt x="223" y="468" on="1"/>
        <pt x="208" y="423" on="0"/>
        <pt x="181" y="344" on="0"/>
        <pt x="164" y="298" on="1"/>
        <pt x="130" y="205" on="1"/>
      </contour>
      <contour>
        <pt x="479" y="-181" on="1"/>
        <pt x="468" y="-191" on="0"/>
        <pt x="431" y="-205" on="0"/>
        <pt x="414" y="-205" on="1"/>
        <pt x="379" y="-205" on="0"/>
        <pt x="330" y="-165" on="0"/>
        <pt x="330" y="-123" on="1"/>
        <pt x="330" y="-85" on="0"/>
        <pt x="374" y="-19" on="0"/>
        <pt x="401" y="0" on="1"/>
        <pt x="395" y="0" on="1"/>
        <pt x="334" y="168" on="1"/>
        <pt x="116" y="168" on="1"/>
        <pt x="54" y="0" on="1"/>
        <pt x="8" y="0" on="1"/>
        <pt x="202" y="512" on="1"/>
        <pt x="249" y="512" on="1"/>
        <pt x="443" y="0" on="1"/>
        <pt x="411" y="-20" on="0"/>
        <pt x="369" y="-85" on="0"/>
        <pt x="369" y="-116" on="1"/>
        <pt x="369" y="-142" on="0"/>
        <pt x="400" y="-168" on="0"/>
        <pt x="419" y="-168" on="1"/>
        <pt x="433" y="-168" on="0"/>
        <pt x="452" y="-162" on="0"/>
        <pt x="463" y="-154" on="1"/>
      </contour>
    </TTGlyph>
    <TTGlyph name="Aring" xMin="8" yMin="0" xMax="518" yMax="864">
      <component glyphName="A" x="0" y="0" flags="0x204"/>
      <component glyphName="uni030A.cap" x="263" y="0" flags="0x4"/>
    </TTGlyph>
    <TTGlyph name="Aring.sc" xMin="8" yMin="0" xMax="443" yMax="746">
      <component glyphName="A.sc" x="0" y="0" flags="0x204"/>
      <component glyphName="uni030A.cap" x="225" y="-118" flags="0x4"/>
    </TTGlyph>
    <TTGlyph name="Atilde" xMin="8" yMin="0" xMax="518" yMax="808">
      <component glyphName="A" x="0" y="0" flags="0x204"/>
      <component glyphName="uni0303.cap" x="263" y="0" flags="0x4"/>
    </TTGlyph>
    <TTGlyph name="Atilde.sc" xMin="8" yMin="0" xMax="443" yMax="690">
      <component glyphName="A.sc" x="0" y="0" flags="0x204"/>
      <component glyphName="uni0303.cap" x="225" y="-118" flags="0x4"/>
    </TTGlyph>
    <TTGlyph name="B" xMin="97" yMin="0" xMax="533" yMax="659">
      <contour>
        <pt x="97" y="659" on="1"/>
        <pt x="275" y="659" on="1"/>
        <pt x="375" y="659" on="0"/>
        <pt x="493" y="582" on="0"/>
        <pt x="493" y="499" on="1"/>
        <pt x="493" y="447" on="0"/>
        <pt x="434" y="370" on="0"/>
        <pt x="376" y="355" on="1"/>
        <pt x="376" y="351" on="1"/>
        <pt x="449" y="340" on="0"/>
        <pt x="533" y="261" on="0"/>
        <pt x="533" y="192" on="1"/>
        <pt x="533" y="144" on="0"/>
        <pt x="498" y="72" on="0"/>
        <pt x="434" y="24" on="0"/>
        <pt x="344" y="0" on="0"/>
        <pt x="288" y="0" on="1"/>
        <pt x="97" y="0" on="1"/>
      </contour>
      <contour>
        <pt x="257" y="369" on="1"/>
        <pt x="359" y="369" on="0"/>
        <pt x="447" y="434" on="0"/>
        <pt x="447" y="500" on="1"/>
        <pt x="447" y="564" on="0"/>
        <pt x="353" y="621" on="0"/>
        <pt x="262" y="621" on="1"/>
        <pt x="143" y="621" on="1"/>
        <pt x="143" y="369" on="1"/>
      </contour>
      <contour>
        <pt x="276" y="38" on="1"/>
        <pt x="375" y="38" on="0"/>
        <pt x="488" y="112" on="0"/>
        <pt x="488" y="192" on="1"/>
        <pt x="488" y="263" on="0"/>
        <pt x="378" y="332" on="0"/>
        <pt x="276" y="332" on="1"/>
        <pt x="143" y="332" on="1"/>
        <pt x="143" y="38" on="1"/>
      </contour>
    </TTGlyph>
    <TTGlyph name="B.sc" xMin="97" yMin="0" xMax="469" yMax="512">
      <contour>
        <pt x="97" y="512" on="1"/>
        <pt x="250" y="512" on="1"/>
        <pt x="334" y="512" on="0"/>
        <pt x="435" y="453" on="0"/>
        <pt x="435" y="386" on="1"/>
        <pt x="435" y="347" on="0"/>
        <pt x="390" y="289" on="0"/>
        <pt x="346" y="277" on="1"/>
        <pt x="346" y="273" on="1"/>
        <pt x="400" y="263" on="0"/>
        <pt x="469" y="203" on="0"/>
        <pt x="469" y="150" on="1"/>
        <pt x="469" y="74" on="0"/>
        <pt x="356" y="0" on="0"/>
        <pt x="261" y="0" on="1"/>
        <pt x="97" y="0" on="1"/>
      </contour>
      <contour>
        <pt x="236" y="288" on="1"/>
        <pt x="320" y="288" on="0"/>
        <pt x="392" y="337" on="0"/>
        <pt x="392" y="385" on="1"/>
        <pt x="392" y="433" on="0"/>
        <pt x="315" y="476" on="0"/>
        <pt x="240" y="476" on="1"/>
        <pt x="143" y="476" on="1"/>
        <pt x="143" y="288" on="1"/>
      </contour>
      <contour>
        <pt x="251" y="36" on="1"/>
        <pt x="289" y="36" on="0"/>
        <pt x="353" y="47" on="0"/>
        <pt x="399" y="74" on="0"/>
        <pt x="425" y="118" on="0"/>
        <pt x="425" y="150" on="1"/>
        <pt x="425" y="204" on="0"/>
        <pt x="335" y="254" on="0"/>
        <pt x="251" y="254" on="1"/>
        <pt x="143" y="254" on="1"/>
        <pt x="143" y="36" on="1"/>
      </contour>
    </TTGlyph>
    <TTGlyph name="B.sups" xMin="61" yMin="269" xMax="356" yMax="701">
      <contour>
        <pt x="61" y="701" on="1"/>
        <pt x="184" y="701" on="1"/>
        <pt x="250" y="701" on="0"/>
        <pt x="330" y="651" on="0"/>
        <pt x="330" y="596" on="1"/>
        <pt x="330" y="563" on="0"/>
        <pt x="291" y="512" on="0"/>
        <pt x="253" y="503" on="1"/>
        <pt x="253" y="500" on="1"/>
        <pt x="301" y="492" on="0"/>
        <pt x="356" y="440" on="0"/>
        <pt x="356" y="395" on="1"/>
        <pt x="356" y="332" on="0"/>
        <pt x="267" y="269" on="0"/>
        <pt x="192" y="269" on="1"/>
        <pt x="61" y="269" on="1"/>
      </contour>
      <contour>
        <pt x="173" y="513" on="1"/>
        <pt x="237" y="513" on="0"/>
        <pt x="292" y="553" on="0"/>
        <pt x="292" y="595" on="1"/>
        <pt x="292" y="635" on="0"/>
        <pt x="234" y="670" on="0"/>
        <pt x="176" y="670" on="1"/>
        <pt x="100" y="670" on="1"/>
        <pt x="100" y="513" on="1"/>
      </contour>
      <contour>
        <pt x="184" y="300" on="1"/>
        <pt x="247" y="300" on="0"/>
        <pt x="318" y="344" on="0"/>
        <pt x="318" y="395" on="1"/>
        <pt x="318" y="440" on="0"/>
        <pt x="249" y="483" on="0"/>
        <pt x="184" y="483" on="1"/>
        <pt x="100" y="483" on="1"/>
        <pt x="100" y="300" on="1"/>
      </contour>
    </TTGlyph>
    <TTGlyph name="C" xMin="55" yMin="-12" xMax="527" yMax="671">
      <contour>
        <pt x="55" y="331" on="1"/>
        <pt x="55" y="409" on="0"/>
        <pt x="96" y="535" on="0"/>
        <pt x="170" y="624" on="0"/>
        <pt x="274" y="671" on="0"/>
        <pt x="337" y="671" on="1"/>
        <pt x="394" y="671" on="0"/>
        <pt x="482" y="623" on="0"/>
        <pt x="508" y="592" on="1"/>
        <pt x="480" y="562" on="1"/>
        <pt x="454" y="592" on="0"/>
        <pt x="382" y="629" on="0"/>
        <pt x="337" y="629" on="1"/>
        <pt x="283" y="629" on="0"/>
        <pt x="196" y="587" on="0"/>
        <pt x="135" y="510" on="0"/>
        <pt x="103" y="400" on="0"/>
        <pt x="103" y="331" on="1"/>
        <pt x="103" y="262" on="0"/>
        <pt x="135" y="151" on="0"/>
        <pt x="195" y="73" on="0"/>
        <pt x="280" y="30" on="0"/>
        <pt x="333" y="30" on="1"/>
        <pt x="384" y="30" on="0"/>
        <pt x="463" y="70" on="0"/>
        <pt x="499" y="111" on="1"/>
        <pt x="527" y="82" on="1"/>
        <pt x="489" y="38" on="0"/>
        <pt x="395" y="-12" on="0"/>
        <pt x="331" y="-12" on="1"/>
        <pt x="270" y="-12" on="0"/>
        <pt x="168" y="36" on="0"/>
        <pt x="95" y="125" on="0"/>
        <pt x="55" y="252" on="0"/>
      </contour>
    </TTGlyph>
    <TTGlyph name="C.sc" xMin="55" yMin="-12" xMax="456" yMax="524">
      <contour>
        <pt x="55" y="257" on="1"/>
        <pt x="55" y="318" on="0"/>
        <pt x="90" y="417" on="0"/>
        <pt x="154" y="487" on="0"/>
        <pt x="242" y="524" on="0"/>
        <pt x="296" y="524" on="1"/>
        <pt x="344" y="524" on="0"/>
        <pt x="418" y="486" on="0"/>
        <pt x="441" y="461" on="1"/>
        <pt x="414" y="431" on="1"/>
        <pt x="391" y="454" on="0"/>
        <pt x="334" y="483" on="0"/>
        <pt x="296" y="483" on="1"/>
        <pt x="205" y="483" on="0"/>
        <pt x="103" y="362" on="0"/>
        <pt x="103" y="257" on="1"/>
        <pt x="103" y="151" on="0"/>
        <pt x="204" y="29" on="0"/>
        <pt x="292" y="29" on="1"/>
        <pt x="335" y="29" on="0"/>
        <pt x="400" y="59" on="0"/>
        <pt x="429" y="90" on="1"/>
        <pt x="456" y="62" on="1"/>
        <pt x="422" y="26" on="0"/>
        <pt x="344" y="-12" on="0"/>
        <pt x="290" y="-12" on="1"/>
        <pt x="238" y="-12" on="0"/>
        <pt x="151" y="25" on="0"/>
        <pt x="89" y="95" on="0"/>
        <pt x="55" y="194" on="0"/>
      </contour>
    </TTGlyph>
    <TTGlyph name="C.sups" xMin="33" yMin="261" xMax="350" yMax="709">
      <contour>
        <pt x="33" y="485" on="1"/>
        <pt x="33" y="536" on="0"/>
        <pt x="61" y="619" on="0"/>
        <pt x="112" y="678" on="0"/>
        <pt x="181" y="709" on="0"/>
        <pt x="223" y="709" on="1"/>
        <pt x="262" y="709" on="0"/>
        <pt x="321" y="678" on="0"/>
        <pt x="339" y="657" on="1"/>
        <pt x="317" y="633" on="1"/>
        <pt x="299" y="653" on="0"/>
        <pt x="253" y="676" on="0"/>
        <pt x="224" y="676" on="1"/>
        <pt x="189" y="676" on="0"/>
        <pt x="134" y="649" on="0"/>
        <pt x="95" y="599" on="0"/>
        <pt x="74" y="530" on="0"/>
        <pt x="74" y="487" on="1"/>
        <pt x="74" y="398" on="0"/>
        <pt x="152" y="295" on="0"/>
        <pt x="221" y="295" on="1"/>
        <pt x="254" y="295" on="0"/>
        <pt x="305" y="321" on="0"/>
        <pt x="328" y="346" on="1"/>
        <pt x="350" y="322" on="1"/>
        <pt x="325" y="294" on="0"/>
        <pt x="262" y="261" on="0"/>
        <pt x="220" y="261" on="1"/>
        <pt x="179" y="261" on="0"/>
        <pt x="110" y="292" on="0"/>
        <pt x="61" y="350" on="0"/>
        <pt x="33" y="433" on="0"/>
      </contour>
    </TTGlyph>
    <TTGlyph name="Cacute" xMin="55" yMin="-12" xMax="527" yMax="815">
      <component glyphName="C" x="0" y="0" flags="0x204"/>
      <component glyphName="uni0301.cap" x="323" y="0" flags="0x4"/>
    </TTGlyph>
    <TTGlyph name="Cacute.sc" xMin="55" yMin="-12" xMax="456" yMax="697">
      <component glyphName="C.sc" x="0" y="0" flags="0x204"/>
      <component glyphName="uni0301.cap" x="288" y="-118" flags="0x4"/>
    </TTGlyph>
    <TTGlyph name="Ccaron" xMin="55" yMin="-12" xMax="527" yMax="815">
      <component glyphName="C" x="0" y="0" flags="0x204"/>
      <component glyphName="uni030C.cap" x="323" y="0" flags="0x4"/>
    </TTGlyph>
    <TTGlyph name="Ccaron.sc" xMin="55" yMin="-12" xMax="456" yMax="697">
      <component glyphName="C.sc" x="0" y="0" flags="0x204"/>
      <component glyphName="uni030C.cap" x="288" y="-118" flags="0x4"/>
    </TTGlyph>
    <TTGlyph name="Ccedilla" xMin="55" yMin="-208" xMax="527" yMax="671">
      <component glyphName="C" x="0" y="0" flags="0x204"/>
      <component glyphName="uni0327.cap" x="339" y="0" flags="0x4"/>
    </TTGlyph>
    <TTGlyph name="Ccedilla.sc" xMin="55" yMin="-208" xMax="456" yMax="524">
      <component glyphName="C.sc" x="0" y="0" flags="0x204"/>
      <component glyphName="uni0327.cap" x="287" y="0" flags="0x4"/>
    </TTGlyph>
    <TTGlyph name="Ccircumflex" xMin="55" yMin="-12" xMax="527" yMax="815">
      <component glyphName="C" x="0" y="0" flags="0x204"/>
      <component glyphName="uni0302.cap" x="323" y="0" flags="0x4"/>
    </TTGlyph>
    <TTGlyph name="Ccircumflex.sc" xMin="55" yMin="-12" xMax="456" yMax="697">
      <component glyphName="C.sc" x="0" y="0" flags="0x204"/>
      <component glyphName="uni0302.cap" x="288" y="-118" flags="0x4"/>
    </TTGlyph>
    <TTGlyph name="Cdotaccent" xMin="55" yMin="-12" xMax="527" yMax="801">
      <component glyphName="C" x="0" y="0" flags="0x204"/>
      <component glyphName="uni0307.cap" x="323" y="0" flags="0x4"/>
    </TTGlyph>
    <TTGlyph name="Cdotaccent.sc" xMin="55" yMin="-12" xMax="456" yMax="683">
      <component glyphName="C.sc" x="0" y="0" flags="0x204"/>
      <component glyphName="uni0307.cap" x="288" y="-118" flags="0x4"/>
    </TTGlyph>
    <TTGlyph name="D" xMin="97" yMin="0" xMax="549" yMax="659">
      <contour>
        <pt x="97" y="659" on="1"/>
        <pt x="250" y="659" on="1"/>
        <pt x="326" y="659" on="0"/>
        <pt x="439" y="613" on="0"/>
        <pt x="513" y="527" on="0"/>
        <pt x="549" y="407" on="0"/>
        <pt x="549" y="332" on="1"/>
        <pt x="549" y="257" on="0"/>
        <pt x="513" y="134" on="0"/>
        <pt x="439" y="47" on="0"/>
        <pt x="327" y="0" on="0"/>
        <pt x="251" y="0" on="1"/>
        <pt x="97" y="0" on="1"/>
      </contour>
      <contour>
        <pt x="245" y="39" on="1"/>
        <pt x="312" y="39" on="0"/>
        <pt x="409" y="82" on="0"/>
        <pt x="471" y="160" on="0"/>
        <pt x="501" y="267" on="0"/>
        <pt x="501" y="332" on="1"/>
        <pt x="501" y="396" on="0"/>
        <pt x="471" y="502" on="0"/>
        <pt x="409" y="578" on="0"/>
        <pt x="312" y="620" on="0"/>
        <pt x="245" y="620" on="1"/>
        <pt x="143" y="620" on="1"/>
        <pt x="143" y="39" on="1"/>
      </contour>
    </TTGlyph>
    <TTGlyph name="D.sc" xMin="97" yMin="0" xMax="485" yMax="512">
      <contour>
        <pt x="97" y="512" on="1"/>
        <pt x="228" y="512" on="1"/>
        <pt x="292" y="512" on="0"/>
        <pt x="389" y="477" on="0"/>
        <pt x="453" y="411" on="0"/>
        <pt x="485" y="316" on="0"/>
        <pt x="485" y="257" on="1"/>
        <pt x="485" y="198" on="0"/>
        <pt x="453" y="103" on="0"/>
        <pt x="389" y="36" on="0"/>
        <pt x="293" y="0" on="0"/>
        <pt x="229" y="0" on="1"/>
        <pt x="97" y="0" on="1"/>
      </contour>
      <contour>
        <pt x="226" y="37" on="1"/>
        <pt x="336" y="37" on="0"/>
        <pt x="437" y="153" on="0"/>
        <pt x="437" y="257" on="1"/>
        <pt x="437" y="306" on="0"/>
        <pt x="412" y="386" on="0"/>
        <pt x="361" y="443" on="0"/>
        <pt x="281" y="475" on="0"/>
        <pt x="226" y="475" on="1"/>
        <pt x="143" y="475" on="1"/>
        <pt x="143" y="37" on="1"/>
      </contour>
    </TTGlyph>
    <TTGlyph name="D.sups" xMin="61" yMin="269" xMax="367" yMax="701">
      <contour>
        <pt x="61" y="701" on="1"/>
        <pt x="166" y="701" on="1"/>
        <pt x="267" y="701" on="0"/>
        <pt x="367" y="587" on="0"/>
        <pt x="367" y="487" on="1"/>
        <pt x="367" y="387" on="0"/>
        <pt x="267" y="269" on="0"/>
        <pt x="167" y="269" on="1"/>
        <pt x="61" y="269" on="1"/>
      </contour>
      <contour>
        <pt x="166" y="301" on="1"/>
        <pt x="248" y="301" on="0"/>
        <pt x="327" y="403" on="0"/>
        <pt x="327" y="487" on="1"/>
        <pt x="327" y="571" on="0"/>
        <pt x="247" y="669" on="0"/>
        <pt x="163" y="669" on="1"/>
        <pt x="100" y="669" on="1"/>
        <pt x="100" y="301" on="1"/>
      </contour>
    </TTGlyph>
    <TTGlyph name="Dcaron" xMin="97" yMin="0" xMax="549" yMax="815">
      <component glyphName="D" x="0" y="0" flags="0x204"/>
      <component glyphName="uni030C.cap" x="302" y="0" flags="0x4"/>
    </TTGlyph>
    <TTGlyph name="Dcaron.sc" xMin="97" yMin="0" xMax="485" yMax="697">
      <component glyphName="D.sc" x="0" y="0" flags="0x4"/>
      <component glyphName="uni030C.cap" x="276" y="-118" flags="0x4"/>
    </TTGlyph>
    <TTGlyph name="Dcroat" xMin="37" yMin="0" xMax="570" yMax="659">
      <component glyphName="Eth" x="0" y="0" flags="0x204"/>
    </TTGlyph>
    <TTGlyph name="Dcroat.sc" xMin="37" yMin="0" xMax="502" yMax="512">
      <component glyphName="Eth.sc" x="0" y="0" flags="0x204"/>
    </TTGlyph>
    <TTGlyph name="E" xMin="97" yMin="0" xMax="468" yMax="659">
      <contour>
        <pt x="97" y="659" on="1"/>
        <pt x="458" y="659" on="1"/>
        <pt x="458" y="619" on="1"/>
        <pt x="143" y="619" on="1"/>
        <pt x="143" y="370" on="1"/>
        <pt x="407" y="370" on="1"/>
        <pt x="407" y="330" on="1"/>
        <pt x="143" y="330" on="1"/>
        <pt x="143" y="40" on="1"/>
        <pt x="468" y="40" on="1"/>
        <pt x="468" y="0" on="1"/>
        <pt x="97" y="0" on="1"/>
      </contour>
    </TTGlyph>
    <TTGlyph name="E.sc" xMin="97" yMin="0" xMax="414" yMax="512">
      <contour>
        <pt x="97" y="512" on="1"/>
        <pt x="404" y="512" on="1"/>
        <pt x="404" y="474" on="1"/>
        <pt x="143" y="474" on="1"/>
        <pt x="143" y="290" on="1"/>
        <pt x="364" y="290" on="1"/>
        <pt x="364" y="253" on="1"/>
        <pt x="143" y="253" on="1"/>
        <pt x="143" y="38" on="1"/>
        <pt x="414" y="38" on="1"/>
        <pt x="414" y="0" on="1"/>
        <pt x="97" y="0" on="1"/>
      </contour>
    </TTGlyph>
    <TTGlyph name="E.sups" xMin="61" yMin="269" xMax="311" yMax="701">
      <contour>
        <pt x="61" y="701" on="1"/>
        <pt x="305" y="701" on="1"/>
        <pt x="305" y="669" on="1"/>
        <pt x="100" y="669" on="1"/>
        <pt x="100" y="515" on="1"/>
        <pt x="273" y="515" on="1"/>
        <pt x="273" y="482" on="1"/>
        <pt x="100" y="482" on="1"/>
        <pt x="100" y="301" on="1"/>
        <pt x="311" y="301" on="1"/>
        <pt x="311" y="269" on="1"/>
        <pt x="61" y="269" on="1"/>
      </contour>
    </TTGlyph>
    <TTGlyph name="Eacute" xMin="97" yMin="0" xMax="468" yMax="815">
      <component glyphName="E" x="0" y="0" flags="0x204"/>
      <component glyphName="uni0301.cap" x="282" y="0" flags="0x4"/>
    </TTGlyph>
    <TTGlyph name="Eacute.sc" xMin="97" yMin="0" xMax="414" yMax="697">
      <component glyphName="E.sc" x="0" y="0" flags="0x204"/>
      <component glyphName="uni0301.cap" x="261" y="-118" flags="0x4"/>
    </TTGlyph>
    <TTGlyph name="Ebreve" xMin="97" yMin="0" xMax="468" yMax="815">
      <component glyphName="E" x="0" y="0" flags="0x204"/>
      <component glyphName="uni0306.cap" x="282" y="0" flags="0x4"/>
    </TTGlyph>
    <TTGlyph name="Ebreve.sc" xMin="97" yMin="0" xMax="414" yMax="697">
      <component glyphName="E.sc" x="0" y="0" flags="0x204"/>
      <component glyphName="uni0306.cap" x="261" y="-118" flags="0x4"/>
    </TTGlyph>
    <TTGlyph name="Ecaron" xMin="97" yMin="0" xMax="468" yMax="815">
      <component glyphName="E" x="0" y="0" flags="0x204"/>
      <component glyphName="uni030C.cap" x="282" y="0" flags="0x4"/>
    </TTGlyph>
    <TTGlyph name="Ecaron.sc" xMin="97" yMin="0" xMax="414" yMax="697">
      <component glyphName="E.sc" x="0" y="0" flags="0x204"/>
      <component glyphName="uni030C.cap" x="261" y="-118" flags="0x4"/>
    </TTGlyph>
    <TTGlyph name="Ecircumflex" xMin="97" yMin="0" xMax="468" yMax="815">
      <component glyphName="E" x="0" y="0" flags="0x204"/>
      <component glyphName="uni0302.cap" x="282" y="0" flags="0x4"/>
    </TTGlyph>
    <TTGlyph name="Ecircumflex.sc" xMin="97" yMin="0" xMax="414" yMax="697">
      <component glyphName="E.sc" x="0" y="0" flags="0x204"/>
      <component glyphName="uni0302.cap" x="261" y="-118" flags="0x4"/>
    </TTGlyph>
    <TTGlyph name="Edieresis" xMin="97" yMin="0" xMax="468" yMax="798">
      <component glyphName="E" x="0" y="0" flags="0x204"/>
      <component glyphName="uni0308.cap" x="282" y="0" flags="0x4"/>
    </TTGlyph>
    <TTGlyph name="Edieresis.sc" xMin="97" yMin="0" xMax="414" yMax="680">
      <component glyphName="E.sc" x="0" y="0" flags="0x204"/>
      <component glyphName="uni0308.cap" x="261" y="-118" flags="0x4"/>
    </TTGlyph>
    <TTGlyph name="Edotaccent" xMin="97" yMin="0" xMax="468" yMax="801">
      <component glyphName="E" x="0" y="0" flags="0x204"/>
      <component glyphName="uni0307.cap" x="282" y="0" flags="0x4"/>
    </TTGlyph>
    <TTGlyph name="Edotaccent.sc" xMin="97" yMin="0" xMax="414" yMax="683">
      <component glyphName="E.sc" x="0" y="0" flags="0x204"/>
      <component glyphName="uni0307.cap" x="261" y="-118" flags="0x4"/>
    </TTGlyph>
    <TTGlyph name="Egrave" xMin="97" yMin="0" xMax="468" yMax="815">
      <component glyphName="E" x="0" y="0" flags="0x204"/>
      <component glyphName="uni0300.cap" x="282" y="0" flags="0x4"/>
    </TTGlyph>
    <TTGlyph name="Egrave.sc" xMin="97" yMin="0" xMax="414" yMax="697">
      <component glyphName="E.sc" x="0" y="0" flags="0x204"/>
      <component glyphName="uni0300.cap" x="261" y="-118" flags="0x4"/>
    </TTGlyph>
    <TTGlyph name="Emacron" xMin="97" yMin="0" xMax="468" yMax="770">
      <component glyphName="E" x="0" y="0" flags="0x204"/>
      <component glyphName="uni0304.cap" x="282" y="0" flags="0x4"/>
    </TTGlyph>
    <TTGlyph name="Emacron.sc" xMin="97" yMin="0" xMax="414" yMax="652">
      <component glyphName="E.sc" x="0" y="0" flags="0x204"/>
      <component glyphName="uni0304.cap" x="261" y="-118" flags="0x4"/>
    </TTGlyph>
    <TTGlyph name="Eogonek" xMin="97" yMin="-205" xMax="481" yMax="659">
      <contour>
        <pt x="97" y="659" on="1"/>
        <pt x="458" y="659" on="1"/>
        <pt x="458" y="619" on="1"/>
        <pt x="143" y="619" on="1"/>
        <pt x="143" y="370" on="1"/>
        <pt x="407" y="370" on="1"/>
        <pt x="407" y="330" on="1"/>
        <pt x="143" y="330" on="1"/>
        <pt x="143" y="40" on="1"/>
        <pt x="468" y="40" on="1"/>
        <pt x="468" y="0" on="1"/>
        <pt x="465" y="0" on="1"/>
        <pt x="448" y="-3" on="0"/>
        <pt x="415" y="-24" on="0"/>
        <pt x="388" y="-55" on="0"/>
        <pt x="371" y="-94" on="0"/>
        <pt x="371" y="-116" on="1"/>
        <pt x="371" y="-142" on="0"/>
        <pt x="402" y="-168" on="0"/>
        <pt x="421" y="-168" on="1"/>
        <pt x="446" y="-168" on="0"/>
        <pt x="464" y="-154" on="1"/>
        <pt x="481" y="-181" on="1"/>
        <pt x="469" y="-191" on="0"/>
        <pt x="432" y="-205" on="0"/>
        <pt x="415" y="-205" on="1"/>
        <pt x="380" y="-205" on="0"/>
        <pt x="331" y="-165" on="0"/>
        <pt x="331" y="-123" on="1"/>
        <pt x="331" y="-84" on="0"/>
        <pt x="375" y="-19" on="0"/>
        <pt x="404" y="0" on="1"/>
        <pt x="97" y="0" on="1"/>
      </contour>
    </TTGlyph>
    <TTGlyph name="Eogonek.sc" xMin="97" yMin="-205" xMax="427" yMax="512">
      <contour>
        <pt x="97" y="512" on="1"/>
        <pt x="404" y="512" on="1"/>
        <pt x="404" y="474" on="1"/>
        <pt x="143" y="474" on="1"/>
        <pt x="143" y="290" on="1"/>
        <pt x="364" y="290" on="1"/>
        <pt x="364" y="253" on="1"/>
        <pt x="143" y="253" on="1"/>
        <pt x="143" y="38" on="1"/>
        <pt x="414" y="38" on="1"/>
        <pt x="414" y="0" on="1"/>
        <pt x="412" y="0" on="1"/>
        <pt x="395" y="-3" on="0"/>
        <pt x="361" y="-24" on="0"/>
        <pt x="334" y="-55" on="0"/>
        <pt x="317" y="-94" on="0"/>
        <pt x="317" y="-116" on="1"/>
        <pt x="317" y="-142" on="0"/>
        <pt x="349" y="-168" on="0"/>
        <pt x="368" y="-168" on="1"/>
        <pt x="393" y="-168" on="0"/>
        <pt x="411" y="-154" on="1"/>
        <pt x="427" y="-181" on="1"/>
        <pt x="416" y="-191" on="0"/>
        <pt x="379" y="-205" on="0"/>
        <pt x="362" y="-205" on="1"/>
        <pt x="327" y="-205" on="0"/>
        <pt x="278" y="-165" on="0"/>
        <pt x="278" y="-123" on="1"/>
        <pt x="278" y="-84" on="0"/>
        <pt x="321" y="-19" on="0"/>
        <pt x="351" y="0" on="1"/>
        <pt x="97" y="0" on="1"/>
      </contour>
    </TTGlyph>
    <TTGlyph name="Eth" xMin="37" yMin="0" xMax="570" yMax="659">
      <contour>
        <pt x="266" y="39" on="1"/>
        <pt x="333" y="39" on="0"/>
        <pt x="429" y="82" on="0"/>
        <pt x="492" y="160" on="0"/>
        <pt x="522" y="267" on="0"/>
        <pt x="522" y="332" on="1"/>
        <pt x="522" y="396" on="0"/>
        <pt x="492" y="502" on="0"/>
        <pt x="429" y="578" on="0"/>
        <pt x="333" y="620" on="0"/>
        <pt x="266" y="620" on="1"/>
        <pt x="164" y="620" on="1"/>
        <pt x="164" y="365" on="1"/>
        <pt x="327" y="365" on="1"/>
        <pt x="327" y="332" on="1"/>
        <pt x="164" y="332" on="1"/>
        <pt x="164" y="39" on="1"/>
      </contour>
      <contour>
        <pt x="270" y="659" on="1"/>
        <pt x="346" y="659" on="0"/>
        <pt x="459" y="613" on="0"/>
        <pt x="534" y="527" on="0"/>
        <pt x="570" y="407" on="0"/>
        <pt x="570" y="332" on="1"/>
        <pt x="570" y="257" on="0"/>
        <pt x="534" y="134" on="0"/>
        <pt x="460" y="47" on="0"/>
        <pt x="347" y="0" on="0"/>
        <pt x="271" y="0" on="1"/>
        <pt x="118" y="0" on="1"/>
        <pt x="118" y="332" on="1"/>
        <pt x="37" y="332" on="1"/>
        <pt x="37" y="363" on="1"/>
        <pt x="118" y="365" on="1"/>
        <pt x="118" y="659" on="1"/>
      </contour>
    </TTGlyph>
    <TTGlyph name="Eth.sc" xMin="37" yMin="0" xMax="502" yMax="512">
      <contour>
        <pt x="243" y="37" on="1"/>
        <pt x="353" y="37" on="0"/>
        <pt x="454" y="153" on="0"/>
        <pt x="454" y="257" on="1"/>
        <pt x="454" y="306" on="0"/>
        <pt x="429" y="386" on="0"/>
        <pt x="378" y="443" on="0"/>
        <pt x="298" y="475" on="0"/>
        <pt x="243" y="475" on="1"/>
        <pt x="160" y="475" on="1"/>
        <pt x="160" y="288" on="1"/>
        <pt x="305" y="288" on="1"/>
        <pt x="305" y="255" on="1"/>
        <pt x="160" y="255" on="1"/>
        <pt x="160" y="37" on="1"/>
      </contour>
      <contour>
        <pt x="245" y="512" on="1"/>
        <pt x="309" y="512" on="0"/>
        <pt x="406" y="477" on="0"/>
        <pt x="470" y="411" on="0"/>
        <pt x="502" y="316" on="0"/>
        <pt x="502" y="257" on="1"/>
        <pt x="502" y="198" on="0"/>
        <pt x="470" y="103" on="0"/>
        <pt x="406" y="36" on="0"/>
        <pt x="310" y="0" on="0"/>
        <pt x="246" y="0" on="1"/>
        <pt x="114" y="0" on="1"/>
        <pt x="114" y="255" on="1"/>
        <pt x="37" y="255" on="1"/>
        <pt x="37" y="286" on="1"/>
        <pt x="114" y="288" on="1"/>
        <pt x="114" y="512" on="1"/>
      </contour>
    </TTGlyph>
    <TTGlyph name="Euro" xMin="24" yMin="-12" xMax="474" yMax="651">
      <contour>
        <pt x="474" y="82" on="1"/>
        <pt x="442" y="38" on="0"/>
        <pt x="364" y="-12" on="0"/>
        <pt x="308" y="-12" on="1"/>
        <pt x="264" y="-12" on="0"/>
        <pt x="190" y="24" on="0"/>
        <pt x="134" y="91" on="0"/>
        <pt x="96" y="186" on="0"/>
        <pt x="89" y="246" on="1"/>
        <pt x="24" y="246" on="1"/>
        <pt x="24" y="275" on="1"/>
        <pt x="86" y="279" on="1"/>
        <pt x="85" y="290" on="0"/>
        <pt x="85" y="310" on="0"/>
        <pt x="85" y="321" on="1"/>
        <pt x="85" y="330" on="0"/>
        <pt x="85" y="348" on="0"/>
        <pt x="86" y="356" on="1"/>
        <pt x="24" y="356" on="1"/>
        <pt x="24" y="385" on="1"/>
        <pt x="89" y="389" on="1"/>
        <pt x="96" y="450" on="0"/>
        <pt x="134" y="547" on="0"/>
        <pt x="194" y="615" on="0"/>
        <pt x="275" y="651" on="0"/>
        <pt x="323" y="651" on="1"/>
        <pt x="368" y="651" on="0"/>
        <pt x="442" y="605" on="0"/>
        <pt x="464" y="573" on="1"/>
        <pt x="435" y="546" on="1"/>
        <pt x="413" y="576" on="0"/>
        <pt x="358" y="613" on="0"/>
        <pt x="323" y="613" on="1"/>
        <pt x="243" y="613" on="0"/>
        <pt x="147" y="494" on="0"/>
        <pt x="136" y="389" on="1"/>
        <pt x="414" y="389" on="1"/>
        <pt x="414" y="356" on="1"/>
        <pt x="133" y="356" on="1"/>
        <pt x="132" y="348" on="0"/>
        <pt x="132" y="331" on="0"/>
        <pt x="132" y="322" on="1"/>
        <pt x="132" y="311" on="0"/>
        <pt x="132" y="290" on="0"/>
        <pt x="133" y="279" on="1"/>
        <pt x="374" y="279" on="1"/>
        <pt x="374" y="246" on="1"/>
        <pt x="136" y="246" on="1"/>
        <pt x="149" y="144" on="0"/>
        <pt x="239" y="26" on="0"/>
        <pt x="311" y="26" on="1"/>
        <pt x="353" y="26" on="0"/>
        <pt x="416" y="66" on="0"/>
        <pt x="445" y="107" on="1"/>
      </contour>
    </TTGlyph>
    <TTGlyph name="F" xMin="97" yMin="0" xMax="456" yMax="659">
      <contour>
        <pt x="97" y="659" on="1"/>
        <pt x="456" y="659" on="1"/>
        <pt x="456" y="619" on="1"/>
        <pt x="143" y="619" on="1"/>
        <pt x="143" y="357" on="1"/>
        <pt x="408" y="357" on="1"/>
        <pt x="408" y="317" on="1"/>
        <pt x="143" y="317" on="1"/>
        <pt x="143" y="0" on="1"/>
        <pt x="97" y="0" on="1"/>
      </contour>
    </TTGlyph>
    <TTGlyph name="F.sc" xMin="97" yMin="0" xMax="404" yMax="512">
      <contour>
        <pt x="97" y="512" on="1"/>
        <pt x="404" y="512" on="1"/>
        <pt x="404" y="474" on="1"/>
        <pt x="143" y="474" on="1"/>
        <pt x="143" y="278" on="1"/>
        <pt x="363" y="278" on="1"/>
        <pt x="363" y="241" on="1"/>
        <pt x="143" y="241" on="1"/>
        <pt x="143" y="0" on="1"/>
        <pt x="97" y="0" on="1"/>
      </contour>
    </TTGlyph>
    <TTGlyph name="F.sups" xMin="61" yMin="269" xMax="305" yMax="701">
      <contour>
        <pt x="61" y="701" on="1"/>
        <pt x="305" y="701" on="1"/>
        <pt x="305" y="669" on="1"/>
        <pt x="100" y="669" on="1"/>
        <pt x="100" y="505" on="1"/>
        <pt x="273" y="505" on="1"/>
        <pt x="273" y="473" on="1"/>
        <pt x="100" y="473" on="1"/>
        <pt x="100" y="269" on="1"/>
        <pt x="61" y="269" on="1"/>
      </contour>
    </TTGlyph>
    <TTGlyph name="G" xMin="55" yMin="-12" xMax="533" yMax="671">
      <contour>
        <pt x="55" y="331" on="1"/>
        <pt x="55" y="409" on="0"/>
        <pt x="97" y="535" on="0"/>
        <pt x="174" y="624" on="0"/>
        <pt x="281" y="671" on="0"/>
        <pt x="347" y="671" on="1"/>
        <pt x="380" y="671" on="0"/>
        <pt x="434" y="657" on="0"/>
        <pt x="478" y="634" on="0"/>
        <pt x="513" y="606" on="0"/>
        <pt x="526" y="592" on="1"/>
        <pt x="499" y="562" on="1"/>
        <pt x="473" y="590" on="0"/>
        <pt x="401" y="629" on="0"/>
        <pt x="347" y="629" on="1"/>
        <pt x="290" y="629" on="0"/>
        <pt x="200" y="587" on="0"/>
        <pt x="137" y="510" on="0"/>
        <pt x="103" y="400" on="0"/>
        <pt x="103" y="331" on="1"/>
        <pt x="103" y="262" on="0"/>
        <pt x="135" y="151" on="0"/>
        <pt x="196" y="73" on="0"/>
        <pt x="285" y="30" on="0"/>
        <pt x="341" y="30" on="1"/>
        <pt x="386" y="30" on="0"/>
        <pt x="465" y="56" on="0"/>
        <pt x="489" y="80" on="1"/>
        <pt x="489" y="285" on="1"/>
        <pt x="331" y="285" on="1"/>
        <pt x="331" y="324" on="1"/>
        <pt x="533" y="324" on="1"/>
        <pt x="533" y="63" on="1"/>
        <pt x="502" y="30" on="0"/>
        <pt x="403" y="-12" on="0"/>
        <pt x="337" y="-12" on="1"/>
        <pt x="274" y="-12" on="0"/>
        <pt x="170" y="36" on="0"/>
        <pt x="96" y="125" on="0"/>
        <pt x="55" y="252" on="0"/>
      </contour>
    </TTGlyph>
    <TTGlyph name="G.sc" xMin="55" yMin="-12" xMax="462" yMax="524">
      <contour>
        <pt x="55" y="257" on="1"/>
        <pt x="55" y="318" on="0"/>
        <pt x="91" y="417" on="0"/>
        <pt x="157" y="487" on="0"/>
        <pt x="248" y="524" on="0"/>
        <pt x="304" y="524" on="1"/>
        <pt x="359" y="524" on="0"/>
        <pt x="432" y="485" on="0"/>
        <pt x="455" y="463" on="1"/>
        <pt x="428" y="433" on="1"/>
        <pt x="407" y="454" on="0"/>
        <pt x="349" y="483" on="0"/>
        <pt x="304" y="483" on="1"/>
        <pt x="210" y="483" on="0"/>
        <pt x="103" y="363" on="0"/>
        <pt x="103" y="257" on="1"/>
        <pt x="103" y="152" on="0"/>
        <pt x="206" y="29" on="0"/>
        <pt x="300" y="29" on="1"/>
        <pt x="337" y="29" on="0"/>
        <pt x="398" y="48" on="0"/>
        <pt x="418" y="65" on="1"/>
        <pt x="418" y="218" on="1"/>
        <pt x="290" y="218" on="1"/>
        <pt x="290" y="255" on="1"/>
        <pt x="462" y="255" on="1"/>
        <pt x="462" y="43" on="1"/>
        <pt x="436" y="20" on="0"/>
        <pt x="351" y="-12" on="0"/>
        <pt x="296" y="-12" on="1"/>
        <pt x="242" y="-12" on="0"/>
        <pt x="153" y="25" on="0"/>
        <pt x="90" y="95" on="0"/>
        <pt x="55" y="194" on="0"/>
      </contour>
    </TTGlyph>
    <TTGlyph name="G.sups" xMin="33" yMin="261" xMax="355" yMax="709">
      <contour>
        <pt x="33" y="486" on="1"/>
        <pt x="33" y="537" on="0"/>
        <pt x="62" y="619" on="0"/>
        <pt x="114" y="678" on="0"/>
        <pt x="186" y="709" on="0"/>
        <pt x="230" y="709" on="1"/>
        <pt x="275" y="709" on="0"/>
        <pt x="333" y="676" on="0"/>
        <pt x="351" y="658" on="1"/>
        <pt x="329" y="633" on="1"/>
        <pt x="312" y="650" on="0"/>
        <pt x="265" y="676" on="0"/>
        <pt x="230" y="676" on="1"/>
        <pt x="194" y="676" on="0"/>
        <pt x="136" y="649" on="0"/>
        <pt x="96" y="600" on="0"/>
        <pt x="74" y="530" on="0"/>
        <pt x="74" y="487" on="1"/>
        <pt x="74" y="398" on="0"/>
        <pt x="154" y="295" on="0"/>
        <pt x="228" y="295" on="1"/>
        <pt x="256" y="295" on="0"/>
        <pt x="306" y="311" on="0"/>
        <pt x="320" y="325" on="1"/>
        <pt x="320" y="453" on="1"/>
        <pt x="220" y="453" on="1"/>
        <pt x="220" y="485" on="1"/>
        <pt x="355" y="485" on="1"/>
        <pt x="355" y="310" on="1"/>
        <pt x="335" y="289" on="0"/>
        <pt x="268" y="261" on="0"/>
        <pt x="225" y="261" on="1"/>
        <pt x="183" y="261" on="0"/>
        <pt x="112" y="292" on="0"/>
        <pt x="61" y="351" on="0"/>
        <pt x="33" y="434" on="0"/>
      </contour>
    </TTGlyph>
    <TTGlyph name="Gbreve" xMin="55" yMin="-12" xMax="533" yMax="815">
      <component glyphName="G" x="0" y="0" flags="0x204"/>
      <component glyphName="uni0306.cap" x="346" y="0" flags="0x4"/>
    </TTGlyph>
    <TTGlyph name="Gbreve.sc" xMin="55" yMin="-12" xMax="462" yMax="697">
      <component glyphName="G.sc" x="0" y="0" flags="0x204"/>
      <component glyphName="uni0306.cap" x="302" y="-118" flags="0x4"/>
    </TTGlyph>
    <TTGlyph name="Gcaron" xMin="55" yMin="-12" xMax="533" yMax="815">
      <component glyphName="G" x="0" y="0" flags="0x204"/>
      <component glyphName="uni030C.cap" x="346" y="0" flags="0x4"/>
    </TTGlyph>
    <TTGlyph name="Gcaron.sc" xMin="55" yMin="-12" xMax="462" yMax="697">
      <component glyphName="G.sc" x="0" y="0" flags="0x204"/>
      <component glyphName="uni030C.cap" x="302" y="-118" flags="0x4"/>
    </TTGlyph>
    <TTGlyph name="Gcircumflex" xMin="55" yMin="-12" xMax="533" yMax="815">
      <component glyphName="G" x="0" y="0" flags="0x204"/>
      <component glyphName="uni0302.cap" x="346" y="0" flags="0x4"/>
    </TTGlyph>
    <TTGlyph name="Gcircumflex.sc" xMin="55" yMin="-12" xMax="462" yMax="697">
      <component glyphName="G.sc" x="0" y="0" flags="0x204"/>
      <component glyphName="uni0302.cap" x="302" y="-118" flags="0x4"/>
    </TTGlyph>
    <TTGlyph name="Gdotaccent" xMin="55" yMin="-12" xMax="533" yMax="801">
      <component glyphName="G" x="0" y="0" flags="0x204"/>
      <component glyphName="uni0307.cap" x="346" y="0" flags="0x4"/>
    </TTGlyph>
    <TTGlyph name="Gdotaccent.sc" xMin="55" yMin="-12" xMax="462" yMax="683">
      <component glyphName="G.sc" x="0" y="0" flags="0x204"/>
      <component glyphName="uni0307.cap" x="302" y="-118" flags="0x4"/>
    </TTGlyph>
    <TTGlyph name="H" xMin="97" yMin="0" xMax="542" yMax="659">
      <contour>
        <pt x="97" y="659" on="1"/>
        <pt x="143" y="659" on="1"/>
        <pt x="143" y="370" on="1"/>
        <pt x="496" y="370" on="1"/>
        <pt x="496" y="659" on="1"/>
        <pt x="542" y="659" on="1"/>
        <pt x="542" y="0" on="1"/>
        <pt x="496" y="0" on="1"/>
        <pt x="496" y="330" on="1"/>
        <pt x="143" y="330" on="1"/>
        <pt x="143" y="0" on="1"/>
        <pt x="97" y="0" on="1"/>
      </contour>
    </TTGlyph>
    <TTGlyph name="H.sc" xMin="97" yMin="0" xMax="481" yMax="512">
      <contour>
        <pt x="97" y="512" on="1"/>
        <pt x="143" y="512" on="1"/>
        <pt x="143" y="292" on="1"/>
        <pt x="435" y="292" on="1"/>
        <pt x="435" y="512" on="1"/>
        <pt x="481" y="512" on="1"/>
        <pt x="481" y="0" on="1"/>
        <pt x="435" y="0" on="1"/>
        <pt x="435" y="252" on="1"/>
        <pt x="143" y="252" on="1"/>
        <pt x="143" y="0" on="1"/>
        <pt x="97" y="0" on="1"/>
      </contour>
    </TTGlyph>
    <TTGlyph name="H.sups" xMin="61" yMin="269" xMax="363" yMax="701">
      <contour>
        <pt x="61" y="701" on="1"/>
        <pt x="100" y="701" on="1"/>
        <pt x="100" y="515" on="1"/>
        <pt x="324" y="515" on="1"/>
        <pt x="324" y="701" on="1"/>
        <pt x="363" y="701" on="1"/>
        <pt x="363" y="269" on="1"/>
        <pt x="324" y="269" on="1"/>
        <pt x="324" y="482" on="1"/>
        <pt x="100" y="482" on="1"/>
        <pt x="100" y="269" on="1"/>
        <pt x="61" y="269" on="1"/>
      </contour>
    </TTGlyph>
    <TTGlyph name="Hbar" xMin="36" yMin="0" xMax="635" yMax="659">
      <contour>
        <pt x="516" y="495" on="1"/>
        <pt x="163" y="495" on="1"/>
        <pt x="163" y="370" on="1"/>
        <pt x="516" y="370" on="1"/>
      </contour>
      <contour>
        <pt x="635" y="495" on="1"/>
        <pt x="562" y="495" on="1"/>
        <pt x="562" y="0" on="1"/>
        <pt x="516" y="0" on="1"/>
        <pt x="516" y="330" on="1"/>
        <pt x="163" y="330" on="1"/>
        <pt x="163" y="0" on="1"/>
        <pt x="117" y="0" on="1"/>
        <pt x="117" y="495" on="1"/>
        <pt x="36" y="495" on="1"/>
        <pt x="36" y="524" on="1"/>
        <pt x="117" y="528" on="1"/>
        <pt x="117" y="659" on="1"/>
        <pt x="163" y="659" on="1"/>
        <pt x="163" y="528" on="1"/>
        <pt x="516" y="528" on="1"/>
        <pt x="516" y="659" on="1"/>
        <pt x="562" y="659" on="1"/>
        <pt x="562" y="528" on="1"/>
        <pt x="635" y="528" on="1"/>
      </contour>
    </TTGlyph>
    <TTGlyph name="Hbar.sc" xMin="36" yMin="0" xMax="576" yMax="512">
      <contour>
        <pt x="455" y="383" on="1"/>
        <pt x="163" y="383" on="1"/>
        <pt x="163" y="291" on="1"/>
        <pt x="455" y="291" on="1"/>
      </contour>
      <contour>
        <pt x="576" y="383" on="1"/>
        <pt x="501" y="383" on="1"/>
        <pt x="501" y="0" on="1"/>
        <pt x="455" y="0" on="1"/>
        <pt x="455" y="253" on="1"/>
        <pt x="163" y="253" on="1"/>
        <pt x="163" y="0" on="1"/>
        <pt x="117" y="0" on="1"/>
        <pt x="117" y="383" on="1"/>
        <pt x="36" y="383" on="1"/>
        <pt x="36" y="410" on="1"/>
        <pt x="117" y="414" on="1"/>
        <pt x="117" y="512" on="1"/>
        <pt x="163" y="512" on="1"/>
        <pt x="163" y="414" on="1"/>
        <pt x="455" y="414" on="1"/>
        <pt x="455" y="512" on="1"/>
        <pt x="501" y="512" on="1"/>
        <pt x="501" y="414" on="1"/>
        <pt x="576" y="414" on="1"/>
      </contour>
    </TTGlyph>
    <TTGlyph name="Hcircumflex" xMin="97" yMin="0" xMax="542" yMax="815">
      <component glyphName="H" x="0" y="0" flags="0x204"/>
      <component glyphName="uni0302.cap" x="319" y="0" flags="0x4"/>
    </TTGlyph>
    <TTGlyph name="Hcircumflex.sc" xMin="97" yMin="0" xMax="481" yMax="697">
      <component glyphName="H.sc" x="0" y="0" flags="0x204"/>
      <component glyphName="uni0302.cap" x="289" y="-118" flags="0x4"/>
    </TTGlyph>
    <TTGlyph name="I" xMin="97" yMin="0" xMax="143" yMax="659">
      <contour>
        <pt x="97" y="659" on="1"/>
        <pt x="143" y="659" on="1"/>
        <pt x="143" y="0" on="1"/>
        <pt x="97" y="0" on="1"/>
      </contour>
    </TTGlyph>
    <TTGlyph name="I.a" xMin="43" yMin="0" xMax="268" yMax="659">
      <contour>
        <pt x="43" y="40" on="1"/>
        <pt x="133" y="40" on="1"/>
        <pt x="133" y="619" on="1"/>
        <pt x="43" y="619" on="1"/>
        <pt x="43" y="659" on="1"/>
        <pt x="268" y="659" on="1"/>
        <pt x="268" y="619" on="1"/>
        <pt x="179" y="619" on="1"/>
        <pt x="179" y="40" on="1"/>
        <pt x="268" y="40" on="1"/>
        <pt x="268" y="0" on="1"/>
        <pt x="43" y="0" on="1"/>
      </contour>
    </TTGlyph>
    <TTGlyph name="I.sc" xMin="97" yMin="0" xMax="143" yMax="512">
      <contour>
        <pt x="97" y="512" on="1"/>
        <pt x="143" y="512" on="1"/>
        <pt x="143" y="0" on="1"/>
        <pt x="97" y="0" on="1"/>
      </contour>
    </TTGlyph>
    <TTGlyph name="I.sups" xMin="61" yMin="269" xMax="100" yMax="701">
      <contour>
        <pt x="61" y="701" on="1"/>
        <pt x="100" y="701" on="1"/>
        <pt x="100" y="269" on="1"/>
        <pt x="61" y="269" on="1"/>
      </contour>
    </TTGlyph>
    <TTGlyph name="Iacute" xMin="83" yMin="0" xMax="233" yMax="815">
      <component glyphName="I" x="0" y="0" flags="0x204"/>
      <component glyphName="uni0301.cap" x="120" y="0" flags="0x4"/>
    </TTGlyph>
    <TTGlyph name="Iacute.a" xMin="43" yMin="0" xMax="269" yMax="815">
      <component glyphName="I.a" x="0" y="0" flags="0x204"/>
      <component glyphName="uni0301.cap" x="156" y="0" flags="0x4"/>
    </TTGlyph>
    <TTGlyph name="Iacute.sc" xMin="83" yMin="0" xMax="233" yMax="697">
      <component glyphName="I.sc" x="0" y="0" flags="0x204"/>
      <component glyphName="uni0301.cap" x="120" y="-118" flags="0x4"/>
    </TTGlyph>
    <TTGlyph name="Icircumflex" xMin="3" yMin="0" xMax="237" yMax="815">
      <component glyphName="I" x="0" y="0" flags="0x204"/>
      <component glyphName="uni0302.cap" x="120" y="0" flags="0x4"/>
    </TTGlyph>
    <TTGlyph name="Icircumflex.a" xMin="39" yMin="0" xMax="273" yMax="815">
      <component glyphName="I.a" x="0" y="0" flags="0x204"/>
      <component glyphName="uni0302.cap" x="156" y="0" flags="0x4"/>
    </TTGlyph>
    <TTGlyph name="Icircumflex.sc" xMin="3" yMin="0" xMax="237" yMax="697">
      <component glyphName="I.sc" x="0" y="0" flags="0x204"/>
      <component glyphName="uni0302.cap" x="120" y="-118" flags="0x4"/>
    </TTGlyph>
    <TTGlyph name="Idieresis" xMin="5" yMin="0" xMax="235" yMax="798">
      <component glyphName="I" x="0" y="0" flags="0x204"/>
      <component glyphName="uni0308.cap" x="120" y="0" flags="0x4"/>
    </TTGlyph>
    <TTGlyph name="Idieresis.a" xMin="41" yMin="0" xMax="271" yMax="798">
      <component glyphName="I.a" x="0" y="0" flags="0x204"/>
      <component glyphName="uni0308.cap" x="156" y="0" flags="0x4"/>
    </TTGlyph>
    <TTGlyph name="Idieresis.sc" xMin="5" yMin="0" xMax="235" yMax="680">
      <component glyphName="I.sc" x="0" y="0" flags="0x204"/>
      <component glyphName="uni0308.cap" x="120" y="-118" flags="0x4"/>
    </TTGlyph>
    <TTGlyph name="Idotaccent" xMin="80" yMin="0" xMax="160" yMax="801">
      <component glyphName="I" x="0" y="0" flags="0x204"/>
      <component glyphName="uni0307.cap" x="120" y="0" flags="0x4"/>
    </TTGlyph>
    <TTGlyph name="Idotaccent.a" xMin="43" yMin="0" xMax="268" yMax="801">
      <component glyphName="I.a" x="0" y="0" flags="0x204"/>
      <component glyphName="uni0307.cap" x="156" y="0" flags="0x4"/>
    </TTGlyph>
    <TTGlyph name="Idotaccent.sc" xMin="80" yMin="0" xMax="160" yMax="683">
      <component glyphName="I.sc" x="0" y="0" flags="0x204"/>
      <component glyphName="uni0307.cap" x="120" y="-118" flags="0x4"/>
    </TTGlyph>
    <TTGlyph name="Igrave" xMin="7" yMin="0" xMax="157" yMax="815">
      <component glyphName="I" x="0" y="0" flags="0x204"/>
      <component glyphName="uni0300.cap" x="120" y="0" flags="0x4"/>
    </TTGlyph>
    <TTGlyph name="Igrave.a" xMin="43" yMin="0" xMax="268" yMax="815">
      <component glyphName="I.a" x="0" y="0" flags="0x204"/>
      <component glyphName="uni0300.cap" x="156" y="0" flags="0x4"/>
    </TTGlyph>
    <TTGlyph name="Igrave.sc" xMin="7" yMin="0" xMax="157" yMax="697">
      <component glyphName="I.sc" x="0" y="0" flags="0x204"/>
      <component glyphName="uni0300.cap" x="120" y="-118" flags="0x4"/>
    </TTGlyph>
    <TTGlyph name="Imacron" xMin="6" yMin="0" xMax="234" yMax="770">
      <component glyphName="I" x="0" y="0" flags="0x204"/>
      <component glyphName="uni0304.cap" x="120" y="0" flags="0x4"/>
    </TTGlyph>
    <TTGlyph name="Imacron.a" xMin="42" yMin="0" xMax="270" yMax="770">
      <component glyphName="I.a" x="0" y="0" flags="0x204"/>
      <component glyphName="uni0304.cap" x="156" y="0" flags="0x4"/>
    </TTGlyph>
    <TTGlyph name="Imacron.sc" xMin="6" yMin="0" xMax="234" yMax="652">
      <component glyphName="I.sc" x="0" y="0" flags="0x204"/>
      <component glyphName="uni0304.cap" x="120" y="-118" flags="0x4"/>
    </TTGlyph>
    <TTGlyph name="Iogonek" xMin="44" yMin="-205" xMax="193" yMax="659">
      <contour>
        <pt x="97" y="659" on="1"/>
        <pt x="143" y="659" on="1"/>
        <pt x="143" y="0" on="1"/>
        <pt x="117" y="-29" on="0"/>
        <pt x="83" y="-83" on="0"/>
        <pt x="83" y="-116" on="1"/>
        <pt x="83" y="-142" on="0"/>
        <pt x="115" y="-168" on="0"/>
        <pt x="134" y="-168" on="1"/>
        <pt x="159" y="-168" on="0"/>
        <pt x="177" y="-154" on="1"/>
        <pt x="193" y="-181" on="1"/>
        <pt x="182" y="-191" on="0"/>
        <pt x="145" y="-205" on="0"/>
        <pt x="128" y="-205" on="1"/>
        <pt x="93" y="-205" on="0"/>
        <pt x="44" y="-165" on="0"/>
        <pt x="44" y="-123" on="1"/>
        <pt x="44" y="-82" on="0"/>
        <pt x="80" y="-26" on="0"/>
        <pt x="106" y="0" on="1"/>
        <pt x="97" y="0" on="1"/>
      </contour>
    </TTGlyph>
    <TTGlyph name="Iogonek.a" xMin="43" yMin="-205" xMax="268" yMax="659">
      <contour>
        <pt x="43" y="40" on="1"/>
        <pt x="133" y="40" on="1"/>
        <pt x="133" y="619" on="1"/>
        <pt x="43" y="619" on="1"/>
        <pt x="43" y="659" on="1"/>
        <pt x="268" y="659" on="1"/>
        <pt x="268" y="619" on="1"/>
        <pt x="179" y="619" on="1"/>
        <pt x="179" y="40" on="1"/>
        <pt x="268" y="40" on="1"/>
        <pt x="268" y="0" on="1"/>
        <pt x="185" y="0" on="1"/>
        <pt x="153" y="-24" on="0"/>
        <pt x="117" y="-85" on="0"/>
        <pt x="117" y="-116" on="1"/>
        <pt x="117" y="-142" on="0"/>
        <pt x="148" y="-168" on="0"/>
        <pt x="168" y="-168" on="1"/>
        <pt x="191" y="-168" on="0"/>
        <pt x="211" y="-154" on="1"/>
        <pt x="227" y="-181" on="1"/>
        <pt x="216" y="-191" on="0"/>
        <pt x="179" y="-205" on="0"/>
        <pt x="162" y="-205" on="1"/>
        <pt x="127" y="-205" on="0"/>
        <pt x="78" y="-165" on="0"/>
        <pt x="78" y="-123" on="1"/>
        <pt x="78" y="-85" on="0"/>
        <pt x="117" y="-22" on="0"/>
        <pt x="143" y="0" on="1"/>
        <pt x="43" y="0" on="1"/>
      </contour>
    </TTGlyph>
    <TTGlyph name="Iogonek.sc" xMin="44" yMin="-205" xMax="193" yMax="512">
      <contour>
        <pt x="97" y="512" on="1"/>
        <pt x="143" y="512" on="1"/>
        <pt x="143" y="0" on="1"/>
        <pt x="117" y="-29" on="0"/>
        <pt x="83" y="-83" on="0"/>
        <pt x="83" y="-116" on="1"/>
        <pt x="83" y="-142" on="0"/>
        <pt x="115" y="-168" on="0"/>
        <pt x="134" y="-168" on="1"/>
        <pt x="159" y="-168" on="0"/>
        <pt x="177" y="-154" on="1"/>
        <pt x="193" y="-181" on="1"/>
        <pt x="182" y="-191" on="0"/>
        <pt x="145" y="-205" on="0"/>
        <pt x="128" y="-205" on="1"/>
        <pt x="93" y="-205" on="0"/>
        <pt x="44" y="-165" on="0"/>
        <pt x="44" y="-123" on="1"/>
        <pt x="44" y="-82" on="0"/>
        <pt x="80" y="-26" on="0"/>
        <pt x="106" y="0" on="1"/>
        <pt x="97" y="0" on="1"/>
      </contour>
    </TTGlyph>
    <TTGlyph name="Itilde" xMin="-10" yMin="0" xMax="250" yMax="808">
      <component glyphName="I" x="0" y="0" flags="0x204"/>
      <component glyphName="uni0303.cap" x="120" y="0" flags="0x4"/>
    </TTGlyph>
    <TTGlyph name="Itilde.a" xMin="26" yMin="0" xMax="286" yMax="808">
      <component glyphName="I.a" x="0" y="0" flags="0x204"/>
      <component glyphName="uni0303.cap" x="156" y="0" flags="0x4"/>
    </TTGlyph>
    <TTGlyph name="Itilde.sc" xMin="-10" yMin="0" xMax="250" yMax="690">
      <component glyphName="I.sc" x="0" y="0" flags="0x204"/>
      <component glyphName="uni0303.cap" x="120" y="-118" flags="0x4"/>
    </TTGlyph>
    <TTGlyph name="J" xMin="41" yMin="-12" xMax="367" yMax="659">
      <contour>
        <pt x="76" y="108" on="1"/>
        <pt x="100" y="66" on="0"/>
        <pt x="161" y="30" on="0"/>
        <pt x="203" y="30" on="1"/>
        <pt x="263" y="30" on="0"/>
        <pt x="321" y="103" on="0"/>
        <pt x="321" y="184" on="1"/>
        <pt x="321" y="659" on="1"/>
        <pt x="367" y="659" on="1"/>
        <pt x="367" y="179" on="1"/>
        <pt x="367" y="139" on="0"/>
        <pt x="349" y="70" on="0"/>
        <pt x="310" y="18" on="0"/>
        <pt x="248" y="-12" on="0"/>
        <pt x="203" y="-12" on="1"/>
        <pt x="148" y="-12" on="0"/>
        <pt x="66" y="38" on="0"/>
        <pt x="41" y="85" on="1"/>
      </contour>
    </TTGlyph>
    <TTGlyph name="J.sc" xMin="41" yMin="-12" xMax="324" yMax="512">
      <contour>
        <pt x="74" y="90" on="1"/>
        <pt x="94" y="58" on="0"/>
        <pt x="145" y="29" on="0"/>
        <pt x="179" y="29" on="1"/>
        <pt x="229" y="29" on="0"/>
        <pt x="278" y="84" on="0"/>
        <pt x="278" y="146" on="1"/>
        <pt x="278" y="512" on="1"/>
        <pt x="324" y="512" on="1"/>
        <pt x="324" y="141" on="1"/>
        <pt x="324" y="109" on="0"/>
        <pt x="308" y="54" on="0"/>
        <pt x="274" y="12" on="0"/>
        <pt x="219" y="-12" on="0"/>
        <pt x="180" y="-12" on="1"/>
        <pt x="132" y="-12" on="0"/>
        <pt x="62" y="30" on="0"/>
        <pt x="41" y="67" on="1"/>
      </contour>
    </TTGlyph>
    <TTGlyph name="J.sups" xMin="23" yMin="261" xMax="248" yMax="701">
      <contour>
        <pt x="51" y="345" on="1"/>
        <pt x="67" y="318" on="0"/>
        <pt x="106" y="295" on="0"/>
        <pt x="132" y="295" on="1"/>
        <pt x="171" y="295" on="0"/>
        <pt x="210" y="342" on="0"/>
        <pt x="210" y="393" on="1"/>
        <pt x="210" y="701" on="1"/>
        <pt x="248" y="701" on="1"/>
        <pt x="248" y="390" on="1"/>
        <pt x="248" y="363" on="0"/>
        <pt x="235" y="316" on="0"/>
        <pt x="207" y="281" on="0"/>
        <pt x="164" y="261" on="0"/>
        <pt x="133" y="261" on="1"/>
        <pt x="95" y="261" on="0"/>
        <pt x="40" y="295" on="0"/>
        <pt x="23" y="326" on="1"/>
      </contour>
    </TTGlyph>
    <TTGlyph name="Jcircumflex" xMin="41" yMin="-12" xMax="457" yMax="815">
      <component glyphName="J" x="0" y="0" flags="0x204"/>
      <component glyphName="uni0302.cap" x="340" y="0" flags="0x4"/>
    </TTGlyph>
    <TTGlyph name="Jcircumflex.sc" xMin="41" yMin="-12" xMax="412" yMax="697">
      <component glyphName="J.sc" x="0" y="0" flags="0x204"/>
      <component glyphName="uni0302.cap" x="295" y="-118" flags="0x4"/>
    </TTGlyph>
    <TTGlyph name="K" xMin="97" yMin="0" xMax="548" yMax="659">
      <contour>
        <pt x="97" y="659" on="1"/>
        <pt x="143" y="659" on="1"/>
        <pt x="143" y="293" on="1"/>
        <pt x="145" y="293" on="1"/>
        <pt x="464" y="659" on="1"/>
        <pt x="519" y="659" on="1"/>
        <pt x="309" y="415" on="1"/>
        <pt x="548" y="0" on="1"/>
        <pt x="495" y="0" on="1"/>
        <pt x="277" y="380" on="1"/>
        <pt x="143" y="227" on="1"/>
        <pt x="143" y="0" on="1"/>
        <pt x="97" y="0" on="1"/>
      </contour>
    </TTGlyph>
    <TTGlyph name="K.sc" xMin="97" yMin="0" xMax="481" yMax="512">
      <contour>
        <pt x="97" y="512" on="1"/>
        <pt x="143" y="512" on="1"/>
        <pt x="143" y="236" on="1"/>
        <pt x="145" y="236" on="1"/>
        <pt x="407" y="512" on="1"/>
        <pt x="460" y="512" on="1"/>
        <pt x="283" y="321" on="1"/>
        <pt x="481" y="0" on="1"/>
        <pt x="430" y="0" on="1"/>
        <pt x="254" y="289" on="1"/>
        <pt x="143" y="176" on="1"/>
        <pt x="143" y="0" on="1"/>
        <pt x="97" y="0" on="1"/>
      </contour>
    </TTGlyph>
    <TTGlyph name="K.sups" xMin="61" yMin="269" xMax="368" yMax="701">
      <contour>
        <pt x="61" y="701" on="1"/>
        <pt x="100" y="701" on="1"/>
        <pt x="100" y="469" on="1"/>
        <pt x="102" y="469" on="1"/>
        <pt x="304" y="701" on="1"/>
        <pt x="349" y="701" on="1"/>
        <pt x="210" y="540" on="1"/>
        <pt x="368" y="269" on="1"/>
        <pt x="325" y="269" on="1"/>
        <pt x="185" y="511" on="1"/>
        <pt x="100" y="415" on="1"/>
        <pt x="100" y="269" on="1"/>
        <pt x="61" y="269" on="1"/>
      </contour>
    </TTGlyph>
    <TTGlyph name="L" xMin="97" yMin="0" xMax="447" yMax="659">
      <contour>
        <pt x="97" y="659" on="1"/>
        <pt x="143" y="659" on="1"/>
        <pt x="143" y="40" on="1"/>
        <pt x="447" y="40" on="1"/>
        <pt x="447" y="0" on="1"/>
        <pt x="97" y="0" on="1"/>
      </contour>
    </TTGlyph>
    <TTGlyph name="L.sc" xMin="97" yMin="0" xMax="395" yMax="512">
      <contour>
        <pt x="97" y="512" on="1"/>
        <pt x="143" y="512" on="1"/>
        <pt x="143" y="39" on="1"/>
        <pt x="395" y="39" on="1"/>
        <pt x="395" y="0" on="1"/>
        <pt x="97" y="0" on="1"/>
      </contour>
    </TTGlyph>
    <TTGlyph name="L.sups" xMin="61" yMin="269" xMax="298" yMax="701">
      <contour>
        <pt x="61" y="701" on="1"/>
        <pt x="100" y="701" on="1"/>
        <pt x="100" y="301" on="1"/>
        <pt x="298" y="301" on="1"/>
        <pt x="298" y="269" on="1"/>
        <pt x="61" y="269" on="1"/>
      </contour>
    </TTGlyph>
    <TTGlyph name="Lacute" xMin="85" yMin="0" xMax="447" yMax="815">
      <component glyphName="L" x="0" y="0" flags="0x204"/>
      <component glyphName="uni0301.cap" x="122" y="0" flags="0x4"/>
    </TTGlyph>
    <TTGlyph name="Lacute.sc" xMin="89" yMin="0" xMax="395" yMax="697">
      <component glyphName="L.sc" x="0" y="0" flags="0x204"/>
      <component glyphName="uni0301.cap" x="126" y="-118" flags="0x4"/>
    </TTGlyph>
    <TTGlyph name="Lcaron" xMin="97" yMin="0" xMax="447" yMax="724">
      <component glyphName="L" x="0" y="0" flags="0x204"/>
      <component glyphName="uni030C.a" x="349" y="-30" flags="0x4"/>
    </TTGlyph>
    <TTGlyph name="Lcaron.sc" xMin="97" yMin="0" xMax="395" yMax="606">
      <component glyphName="L.sc" x="0" y="0" flags="0x204"/>
      <component glyphName="uni030C.a" x="327" y="-148" flags="0x4"/>
    </TTGlyph>
    <TTGlyph name="Ldot" xMin="97" yMin="0" xMax="447" yMax="659">
      <component glyphName="L" x="0" y="0" flags="0x204"/>
      <component glyphName="period" x="248" y="290" flags="0x4"/>
    </TTGlyph>
    <TTGlyph name="Ldot.sc" xMin="97" yMin="0" xMax="395" yMax="512">
      <component glyphName="L.sc" x="0" y="0" flags="0x204"/>
      <component glyphName="period" x="219" y="236" flags="0x4"/>
    </TTGlyph>
    <TTGlyph name="Lslash" xMin="14" yMin="0" xMax="451" yMax="659">
      <contour>
        <pt x="451" y="40" on="1"/>
        <pt x="451" y="0" on="1"/>
        <pt x="102" y="0" on="1"/>
        <pt x="102" y="257" on="1"/>
        <pt x="14" y="210" on="1"/>
        <pt x="14" y="250" on="1"/>
        <pt x="102" y="298" on="1"/>
        <pt x="102" y="659" on="1"/>
        <pt x="148" y="659" on="1"/>
        <pt x="148" y="319" on="1"/>
        <pt x="341" y="419" on="1"/>
        <pt x="341" y="379" on="1"/>
        <pt x="148" y="279" on="1"/>
        <pt x="148" y="40" on="1"/>
      </contour>
    </TTGlyph>
    <TTGlyph name="Lslash.sc" xMin="14" yMin="0" xMax="400" yMax="512">
      <contour>
        <pt x="400" y="39" on="1"/>
        <pt x="400" y="0" on="1"/>
        <pt x="102" y="0" on="1"/>
        <pt x="102" y="188" on="1"/>
        <pt x="14" y="141" on="1"/>
        <pt x="14" y="181" on="1"/>
        <pt x="102" y="228" on="1"/>
        <pt x="102" y="512" on="1"/>
        <pt x="148" y="512" on="1"/>
        <pt x="148" y="249" on="1"/>
        <pt x="311" y="335" on="1"/>
        <pt x="311" y="296" on="1"/>
        <pt x="148" y="210" on="1"/>
        <pt x="148" y="39" on="1"/>
      </contour>
    </TTGlyph>
    <TTGlyph name="M" xMin="97" yMin="0" xMax="609" yMax="659">
      <contour>
        <pt x="97" y="659" on="1"/>
        <pt x="162" y="659" on="1"/>
        <pt x="300" y="272" on="1"/>
        <pt x="352" y="126" on="1"/>
        <pt x="356" y="126" on="1"/>
        <pt x="406" y="272" on="1"/>
        <pt x="544" y="659" on="1"/>
        <pt x="609" y="659" on="1"/>
        <pt x="609" y="0" on="1"/>
        <pt x="564" y="0" on="1"/>
        <pt x="564" y="433" on="1"/>
        <pt x="564" y="474" on="0"/>
        <pt x="568" y="569" on="0"/>
        <pt x="570" y="611" on="1"/>
        <pt x="566" y="611" on="1"/>
        <pt x="514" y="466" on="1"/>
        <pt x="373" y="72" on="1"/>
        <pt x="332" y="72" on="1"/>
        <pt x="190" y="466" on="1"/>
        <pt x="138" y="611" on="1"/>
        <pt x="134" y="611" on="1"/>
        <pt x="136" y="569" on="0"/>
        <pt x="140" y="474" on="0"/>
        <pt x="140" y="433" on="1"/>
        <pt x="140" y="0" on="1"/>
        <pt x="97" y="0" on="1"/>
      </contour>
    </TTGlyph>
    <TTGlyph name="M.sc" xMin="97" yMin="0" xMax="527" yMax="512">
      <contour>
        <pt x="97" y="512" on="1"/>
        <pt x="158" y="512" on="1"/>
        <pt x="270" y="219" on="1"/>
        <pt x="310" y="108" on="1"/>
        <pt x="314" y="108" on="1"/>
        <pt x="356" y="219" on="1"/>
        <pt x="467" y="512" on="1"/>
        <pt x="527" y="512" on="1"/>
        <pt x="527" y="0" on="1"/>
        <pt x="485" y="0" on="1"/>
        <pt x="485" y="320" on="1"/>
        <pt x="485" y="352" on="0"/>
        <pt x="487" y="430" on="0"/>
        <pt x="489" y="464" on="1"/>
        <pt x="485" y="464" on="1"/>
        <pt x="443" y="350" on="1"/>
        <pt x="329" y="54" on="1"/>
        <pt x="295" y="54" on="1"/>
        <pt x="181" y="350" on="1"/>
        <pt x="138" y="464" on="1"/>
        <pt x="134" y="464" on="1"/>
        <pt x="136" y="431" on="0"/>
        <pt x="140" y="352" on="0"/>
        <pt x="140" y="320" on="1"/>
        <pt x="140" y="0" on="1"/>
        <pt x="97" y="0" on="1"/>
      </contour>
    </TTGlyph>
    <TTGlyph name="M.sups" xMin="61" yMin="269" xMax="409" yMax="701">
      <contour>
        <pt x="61" y="701" on="1"/>
        <pt x="112" y="701" on="1"/>
        <pt x="201" y="456" on="1"/>
        <pt x="235" y="363" on="1"/>
        <pt x="238" y="363" on="1"/>
        <pt x="271" y="456" on="1"/>
        <pt x="358" y="701" on="1"/>
        <pt x="409" y="701" on="1"/>
        <pt x="409" y="269" on="1"/>
        <pt x="372" y="269" on="1"/>
        <pt x="372" y="538" on="1"/>
        <pt x="372" y="564" on="0"/>
        <pt x="375" y="629" on="0"/>
        <pt x="377" y="657" on="1"/>
        <pt x="375" y="657" on="1"/>
        <pt x="340" y="562" on="1"/>
        <pt x="250" y="313" on="1"/>
        <pt x="221" y="313" on="1"/>
        <pt x="130" y="562" on="1"/>
        <pt x="95" y="657" on="1"/>
        <pt x="92" y="657" on="1"/>
        <pt x="94" y="629" on="0"/>
        <pt x="97" y="564" on="0"/>
        <pt x="97" y="538" on="1"/>
        <pt x="97" y="269" on="1"/>
        <pt x="61" y="269" on="1"/>
      </contour>
    </TTGlyph>
    <TTGlyph name="N" xMin="97" yMin="0" xMax="539" yMax="659">
      <contour>
        <pt x="97" y="659" on="1"/>
        <pt x="145" y="659" on="1"/>
        <pt x="423" y="194" on="1"/>
        <pt x="497" y="63" on="1"/>
        <pt x="501" y="63" on="1"/>
        <pt x="499" y="111" on="0"/>
        <pt x="495" y="207" on="0"/>
        <pt x="495" y="255" on="1"/>
        <pt x="495" y="659" on="1"/>
        <pt x="539" y="659" on="1"/>
        <pt x="539" y="0" on="1"/>
        <pt x="491" y="0" on="1"/>
        <pt x="213" y="465" on="1"/>
        <pt x="139" y="596" on="1"/>
        <pt x="135" y="596" on="1"/>
        <pt x="137" y="548" on="0"/>
        <pt x="141" y="457" on="0"/>
        <pt x="141" y="409" on="1"/>
        <pt x="141" y="0" on="1"/>
        <pt x="97" y="0" on="1"/>
      </contour>
    </TTGlyph>
    <TTGlyph name="N.sc" xMin="97" yMin="0" xMax="475" yMax="512">
      <contour>
        <pt x="97" y="512" on="1"/>
        <pt x="145" y="512" on="1"/>
        <pt x="373" y="161" on="1"/>
        <pt x="434" y="59" on="1"/>
        <pt x="438" y="59" on="1"/>
        <pt x="436" y="97" on="0"/>
        <pt x="433" y="175" on="0"/>
        <pt x="433" y="213" on="1"/>
        <pt x="433" y="512" on="1"/>
        <pt x="475" y="512" on="1"/>
        <pt x="475" y="0" on="1"/>
        <pt x="428" y="0" on="1"/>
        <pt x="200" y="350" on="1"/>
        <pt x="138" y="453" on="1"/>
        <pt x="134" y="453" on="1"/>
        <pt x="136" y="415" on="0"/>
        <pt x="140" y="341" on="0"/>
        <pt x="140" y="303" on="1"/>
        <pt x="140" y="0" on="1"/>
        <pt x="97" y="0" on="1"/>
      </contour>
    </TTGlyph>
    <TTGlyph name="N.sups" xMin="61" yMin="269" xMax="361" yMax="701">
      <contour>
        <pt x="61" y="701" on="1"/>
        <pt x="103" y="701" on="1"/>
        <pt x="278" y="406" on="1"/>
        <pt x="327" y="320" on="1"/>
        <pt x="330" y="320" on="1"/>
        <pt x="328" y="351" on="0"/>
        <pt x="325" y="417" on="0"/>
        <pt x="325" y="449" on="1"/>
        <pt x="325" y="701" on="1"/>
        <pt x="361" y="701" on="1"/>
        <pt x="361" y="269" on="1"/>
        <pt x="321" y="269" on="1"/>
        <pt x="145" y="564" on="1"/>
        <pt x="95" y="650" on="1"/>
        <pt x="93" y="650" on="1"/>
        <pt x="94" y="618" on="0"/>
        <pt x="97" y="557" on="0"/>
        <pt x="97" y="525" on="1"/>
        <pt x="97" y="269" on="1"/>
        <pt x="61" y="269" on="1"/>
      </contour>
    </TTGlyph>
    <TTGlyph name="Nacute" xMin="97" yMin="0" xMax="539" yMax="815">
      <component glyphName="N" x="0" y="0" flags="0x204"/>
      <component glyphName="uni0301.cap" x="323" y="0" flags="0x4"/>
    </TTGlyph>
    <TTGlyph name="Nacute.sc" xMin="97" yMin="0" xMax="475" yMax="697">
      <component glyphName="N.sc" x="0" y="0" flags="0x204"/>
      <component glyphName="uni0301.cap" x="294" y="-118" flags="0x4"/>
    </TTGlyph>
    <TTGlyph name="Ncaron" xMin="97" yMin="0" xMax="539" yMax="815">
      <component glyphName="N" x="0" y="0" flags="0x204"/>
      <component glyphName="uni030C.cap" x="323" y="0" flags="0x4"/>
    </TTGlyph>
    <TTGlyph name="Ncaron.sc" xMin="97" yMin="0" xMax="475" yMax="697">
      <component glyphName="N.sc" x="0" y="0" flags="0x204"/>
      <component glyphName="uni030C.cap" x="294" y="-118" flags="0x4"/>
    </TTGlyph>
    <TTGlyph name="Ntilde" xMin="97" yMin="0" xMax="539" yMax="808">
      <component glyphName="N" x="0" y="0" flags="0x204"/>
      <component glyphName="uni0303.cap" x="323" y="0" flags="0x4"/>
    </TTGlyph>
    <TTGlyph name="Ntilde.sc" xMin="97" yMin="0" xMax="475" yMax="690">
      <component glyphName="N.sc" x="0" y="0" flags="0x204"/>
      <component glyphName="uni0303.cap" x="294" y="-118" flags="0x4"/>
    </TTGlyph>
    <TTGlyph name="O" xMin="55" yMin="-12" xMax="598" yMax="671">
      <contour>
        <pt x="326" y="-12" on="1"/>
        <pt x="267" y="-12" on="0"/>
        <pt x="167" y="37" on="0"/>
        <pt x="95" y="127" on="0"/>
        <pt x="55" y="254" on="0"/>
        <pt x="55" y="332" on="1"/>
        <pt x="55" y="410" on="0"/>
        <pt x="95" y="535" on="0"/>
        <pt x="167" y="624" on="0"/>
        <pt x="267" y="671" on="0"/>
        <pt x="326" y="671" on="1"/>
        <pt x="386" y="671" on="0"/>
        <pt x="486" y="624" on="0"/>
        <pt x="558" y="535" on="0"/>
        <pt x="598" y="410" on="0"/>
        <pt x="598" y="332" on="1"/>
        <pt x="598" y="254" on="0"/>
        <pt x="558" y="127" on="0"/>
        <pt x="486" y="37" on="0"/>
        <pt x="386" y="-12" on="0"/>
      </contour>
      <contour>
        <pt x="326" y="30" on="1"/>
        <pt x="376" y="30" on="0"/>
        <pt x="458" y="73" on="0"/>
        <pt x="517" y="152" on="0"/>
        <pt x="549" y="263" on="0"/>
        <pt x="549" y="332" on="1"/>
        <pt x="549" y="400" on="0"/>
        <pt x="517" y="510" on="0"/>
        <pt x="458" y="587" on="0"/>
        <pt x="376" y="629" on="0"/>
        <pt x="326" y="629" on="1"/>
        <pt x="276" y="629" on="0"/>
        <pt x="193" y="587" on="0"/>
        <pt x="135" y="510" on="0"/>
        <pt x="103" y="400" on="0"/>
        <pt x="103" y="332" on="1"/>
        <pt x="103" y="263" on="0"/>
        <pt x="135" y="152" on="0"/>
        <pt x="193" y="73" on="0"/>
        <pt x="276" y="30" on="0"/>
      </contour>
    </TTGlyph>
    <TTGlyph name="O.sc" xMin="55" yMin="-12" xMax="519" yMax="524">
      <contour>
        <pt x="287" y="-12" on="1"/>
        <pt x="236" y="-12" on="0"/>
        <pt x="151" y="26" on="0"/>
        <pt x="89" y="96" on="0"/>
        <pt x="55" y="195" on="0"/>
        <pt x="55" y="257" on="1"/>
        <pt x="55" y="319" on="0"/>
        <pt x="89" y="418" on="0"/>
        <pt x="151" y="487" on="0"/>
        <pt x="236" y="524" on="0"/>
        <pt x="287" y="524" on="1"/>
        <pt x="338" y="524" on="0"/>
        <pt x="423" y="487" on="0"/>
        <pt x="484" y="418" on="0"/>
        <pt x="519" y="319" on="0"/>
        <pt x="519" y="257" on="1"/>
        <pt x="519" y="195" on="0"/>
        <pt x="484" y="96" on="0"/>
        <pt x="423" y="26" on="0"/>
        <pt x="338" y="-12" on="0"/>
      </contour>
      <contour>
        <pt x="287" y="29" on="1"/>
        <pt x="328" y="29" on="0"/>
        <pt x="396" y="61" on="0"/>
        <pt x="444" y="120" on="0"/>
        <pt x="471" y="204" on="0"/>
        <pt x="471" y="257" on="1"/>
        <pt x="471" y="309" on="0"/>
        <pt x="444" y="393" on="0"/>
        <pt x="396" y="452" on="0"/>
        <pt x="328" y="483" on="0"/>
        <pt x="287" y="483" on="1"/>
        <pt x="203" y="483" on="0"/>
        <pt x="103" y="363" on="0"/>
        <pt x="103" y="257" on="1"/>
        <pt x="103" y="204" on="0"/>
        <pt x="129" y="120" on="0"/>
        <pt x="177" y="61" on="0"/>
        <pt x="245" y="29" on="0"/>
      </contour>
    </TTGlyph>
    <TTGlyph name="O.sups" xMin="33" yMin="261" xMax="399" yMax="709">
      <contour>
        <pt x="216" y="261" on="1"/>
        <pt x="176" y="261" on="0"/>
        <pt x="109" y="293" on="0"/>
        <pt x="60" y="352" on="0"/>
        <pt x="33" y="435" on="0"/>
        <pt x="33" y="487" on="1"/>
        <pt x="33" y="538" on="0"/>
        <pt x="60" y="621" on="0"/>
        <pt x="109" y="678" on="0"/>
        <pt x="176" y="709" on="0"/>
        <pt x="216" y="709" on="1"/>
        <pt x="256" y="709" on="0"/>
        <pt x="324" y="678" on="0"/>
        <pt x="372" y="620" on="0"/>
        <pt x="399" y="538" on="0"/>
        <pt x="399" y="487" on="1"/>
        <pt x="399" y="435" on="0"/>
        <pt x="372" y="352" on="0"/>
        <pt x="324" y="293" on="0"/>
        <pt x="256" y="261" on="0"/>
      </contour>
      <contour>
        <pt x="216" y="295" on="1"/>
        <pt x="282" y="295" on="0"/>
        <pt x="359" y="399" on="0"/>
        <pt x="359" y="487" on="1"/>
        <pt x="359" y="575" on="0"/>
        <pt x="282" y="676" on="0"/>
        <pt x="216" y="676" on="1"/>
        <pt x="152" y="676" on="0"/>
        <pt x="74" y="575" on="0"/>
        <pt x="74" y="487" on="1"/>
        <pt x="74" y="443" on="0"/>
        <pt x="94" y="373" on="0"/>
        <pt x="132" y="322" on="0"/>
        <pt x="184" y="295" on="0"/>
      </contour>
    </TTGlyph>
    <TTGlyph name="OE" xMin="55" yMin="0" xMax="786" yMax="659">
      <contour>
        <pt x="55" y="332" on="1"/>
        <pt x="55" y="407" on="0"/>
        <pt x="94" y="527" on="0"/>
        <pt x="173" y="613" on="0"/>
        <pt x="290" y="659" on="0"/>
        <pt x="368" y="659" on="1"/>
        <pt x="776" y="659" on="1"/>
        <pt x="776" y="619" on="1"/>
        <pt x="481" y="619" on="1"/>
        <pt x="481" y="370" on="1"/>
        <pt x="726" y="370" on="1"/>
        <pt x="726" y="330" on="1"/>
        <pt x="481" y="330" on="1"/>
        <pt x="481" y="40" on="1"/>
        <pt x="786" y="40" on="1"/>
        <pt x="786" y="0" on="1"/>
        <pt x="367" y="0" on="1"/>
        <pt x="289" y="0" on="0"/>
        <pt x="172" y="47" on="0"/>
        <pt x="94" y="134" on="0"/>
        <pt x="55" y="257" on="0"/>
      </contour>
      <contour>
        <pt x="103" y="332" on="1"/>
        <pt x="103" y="267" on="0"/>
        <pt x="135" y="160" on="0"/>
        <pt x="202" y="82" on="0"/>
        <pt x="303" y="39" on="0"/>
        <pt x="372" y="39" on="1"/>
        <pt x="435" y="39" on="1"/>
        <pt x="435" y="620" on="1"/>
        <pt x="372" y="620" on="1"/>
        <pt x="303" y="620" on="0"/>
        <pt x="202" y="578" on="0"/>
        <pt x="135" y="503" on="0"/>
        <pt x="103" y="396" on="0"/>
      </contour>
    </TTGlyph>
    <TTGlyph name="OE.sc" xMin="55" yMin="0" xMax="670" yMax="512">
      <contour>
        <pt x="55" y="255" on="1"/>
        <pt x="55" y="314" on="0"/>
        <pt x="88" y="409" on="0"/>
        <pt x="154" y="476" on="0"/>
        <pt x="254" y="512" on="0"/>
        <pt x="320" y="512" on="1"/>
        <pt x="660" y="512" on="1"/>
        <pt x="660" y="474" on="1"/>
        <pt x="417" y="474" on="1"/>
        <pt x="417" y="290" on="1"/>
        <pt x="619" y="290" on="1"/>
        <pt x="619" y="253" on="1"/>
        <pt x="417" y="253" on="1"/>
        <pt x="417" y="38" on="1"/>
        <pt x="670" y="38" on="1"/>
        <pt x="670" y="0" on="1"/>
        <pt x="321" y="0" on="1"/>
        <pt x="187" y="0" on="0"/>
        <pt x="55" y="136" on="0"/>
      </contour>
      <contour>
        <pt x="323" y="475" on="1"/>
        <pt x="208" y="475" on="0"/>
        <pt x="103" y="360" on="0"/>
        <pt x="103" y="255" on="1"/>
        <pt x="103" y="206" on="0"/>
        <pt x="129" y="126" on="0"/>
        <pt x="183" y="69" on="0"/>
        <pt x="266" y="38" on="0"/>
        <pt x="323" y="38" on="1"/>
        <pt x="371" y="38" on="1"/>
        <pt x="371" y="475" on="1"/>
      </contour>
    </TTGlyph>
    <TTGlyph name="Oacute" xMin="55" yMin="-12" xMax="598" yMax="815">
      <component glyphName="O" x="0" y="0" flags="0x204"/>
      <component glyphName="uni0301.cap" x="326" y="0" flags="0x4"/>
    </TTGlyph>
    <TTGlyph name="Oacute.sc" xMin="55" yMin="-12" xMax="519" yMax="697">
      <component glyphName="O.sc" x="0" y="0" flags="0x204"/>
      <component glyphName="uni0301.cap" x="287" y="-118" flags="0x4"/>
    </TTGlyph>
    <TTGlyph name="Ocircumflex" xMin="55" yMin="-12" xMax="598" yMax="815">
      <component glyphName="O" x="0" y="0" flags="0x204"/>
      <component glyphName="uni0302.cap" x="326" y="0" flags="0x4"/>
    </TTGlyph>
    <TTGlyph name="Ocircumflex.sc" xMin="55" yMin="-12" xMax="519" yMax="697">
      <component glyphName="O.sc" x="0" y="0" flags="0x204"/>
      <component glyphName="uni0302.cap" x="287" y="-118" flags="0x4"/>
    </TTGlyph>
    <TTGlyph name="Odieresis" xMin="55" yMin="-12" xMax="598" yMax="798">
      <component glyphName="O" x="0" y="0" flags="0x204"/>
      <component glyphName="uni0308.cap" x="326" y="0" flags="0x4"/>
    </TTGlyph>
    <TTGlyph name="Odieresis.sc" xMin="55" yMin="-12" xMax="519" yMax="680">
      <component glyphName="O.sc" x="0" y="0" flags="0x204"/>
      <component glyphName="uni0308.cap" x="287" y="-118" flags="0x4"/>
    </TTGlyph>
    <TTGlyph name="Ograve" xMin="55" yMin="-12" xMax="598" yMax="815">
      <component glyphName="O" x="0" y="0" flags="0x204"/>
      <component glyphName="uni0300.cap" x="326" y="0" flags="0x4"/>
    </TTGlyph>
    <TTGlyph name="Ograve.sc" xMin="55" yMin="-12" xMax="519" yMax="697">
      <component glyphName="O.sc" x="0" y="0" flags="0x204"/>
      <component glyphName="uni0300.cap" x="287" y="-118" flags="0x4"/>
    </TTGlyph>
    <TTGlyph name="Ohorn" xMin="58" yMin="-12" xMax="601" yMax="766">
      <contour>
        <pt x="330" y="30" on="1"/>
        <pt x="380" y="30" on="0"/>
        <pt x="462" y="73" on="0"/>
        <pt x="521" y="152" on="0"/>
        <pt x="553" y="263" on="0"/>
        <pt x="553" y="332" on="1"/>
        <pt x="553" y="400" on="0"/>
        <pt x="521" y="510" on="0"/>
        <pt x="462" y="587" on="0"/>
        <pt x="380" y="629" on="0"/>
        <pt x="330" y="629" on="1"/>
        <pt x="280" y="629" on="0"/>
        <pt x="197" y="587" on="0"/>
        <pt x="139" y="510" on="0"/>
        <pt x="107" y="400" on="0"/>
        <pt x="107" y="332" on="1"/>
        <pt x="107" y="263" on="0"/>
        <pt x="139" y="152" on="0"/>
        <pt x="197" y="73" on="0"/>
        <pt x="280" y="30" on="0"/>
      </contour>
      <contour>
        <pt x="570" y="766" on="1"/>
        <pt x="579" y="752" on="0"/>
        <pt x="589" y="726" on="0"/>
        <pt x="589" y="711" on="1"/>
        <pt x="589" y="671" on="0"/>
        <pt x="537" y="625" on="0"/>
        <pt x="491" y="614" on="1"/>
        <pt x="542" y="571" on="0"/>
        <pt x="601" y="427" on="0"/>
        <pt x="601" y="332" on="1"/>
        <pt x="601" y="254" on="0"/>
        <pt x="561" y="127" on="0"/>
        <pt x="489" y="37" on="0"/>
        <pt x="389" y="-12" on="0"/>
        <pt x="330" y="-12" on="1"/>
        <pt x="270" y="-12" on="0"/>
        <pt x="170" y="37" on="0"/>
        <pt x="98" y="127" on="0"/>
        <pt x="58" y="254" on="0"/>
        <pt x="58" y="332" on="1"/>
        <pt x="58" y="410" on="0"/>
        <pt x="98" y="535" on="0"/>
        <pt x="170" y="624" on="0"/>
        <pt x="270" y="671" on="0"/>
        <pt x="330" y="671" on="1"/>
        <pt x="399" y="671" on="0"/>
        <pt x="454" y="639" on="1"/>
        <pt x="549" y="652" on="0"/>
        <pt x="549" y="708" on="1"/>
        <pt x="549" y="725" on="0"/>
        <pt x="535" y="747" on="1"/>
      </contour>
    </TTGlyph>
    <TTGlyph name="Ohorn.sc" xMin="55" yMin="-12" xMax="538" yMax="610">
      <contour>
        <pt x="287" y="29" on="1"/>
        <pt x="328" y="29" on="0"/>
        <pt x="396" y="61" on="0"/>
        <pt x="444" y="120" on="0"/>
        <pt x="471" y="204" on="0"/>
        <pt x="471" y="257" on="1"/>
        <pt x="471" y="309" on="0"/>
        <pt x="444" y="393" on="0"/>
        <pt x="396" y="452" on="0"/>
        <pt x="328" y="483" on="0"/>
        <pt x="287" y="483" on="1"/>
        <pt x="203" y="483" on="0"/>
        <pt x="103" y="363" on="0"/>
        <pt x="103" y="257" on="1"/>
        <pt x="103" y="204" on="0"/>
        <pt x="129" y="120" on="0"/>
        <pt x="177" y="61" on="0"/>
        <pt x="245" y="29" on="0"/>
      </contour>
      <contour>
        <pt x="519" y="610" on="1"/>
        <pt x="528" y="596" on="0"/>
        <pt x="538" y="569" on="0"/>
        <pt x="538" y="554" on="1"/>
        <pt x="538" y="515" on="0"/>
        <pt x="489" y="470" on="0"/>
        <pt x="447" y="459" on="1"/>
        <pt x="481" y="424" on="0"/>
        <pt x="519" y="323" on="0"/>
        <pt x="519" y="257" on="1"/>
        <pt x="519" y="195" on="0"/>
        <pt x="484" y="96" on="0"/>
        <pt x="423" y="26" on="0"/>
        <pt x="338" y="-12" on="0"/>
        <pt x="287" y="-12" on="1"/>
        <pt x="236" y="-12" on="0"/>
        <pt x="151" y="26" on="0"/>
        <pt x="89" y="96" on="0"/>
        <pt x="55" y="195" on="0"/>
        <pt x="55" y="257" on="1"/>
        <pt x="55" y="319" on="0"/>
        <pt x="89" y="418" on="0"/>
        <pt x="151" y="487" on="0"/>
        <pt x="236" y="524" on="0"/>
        <pt x="287" y="524" on="1"/>
        <pt x="363" y="524" on="0"/>
        <pt x="418" y="484" on="1"/>
        <pt x="498" y="497" on="0"/>
        <pt x="498" y="551" on="1"/>
        <pt x="498" y="570" on="0"/>
        <pt x="484" y="590" on="1"/>
      </contour>
    </TTGlyph>
    <TTGlyph name="Ohungarumlaut" xMin="55" yMin="-12" xMax="598" yMax="815">
      <component glyphName="O" x="0" y="0" flags="0x204"/>
      <component glyphName="uni030B.cap" x="326" y="0" flags="0x4"/>
    </TTGlyph>
    <TTGlyph name="Ohungarumlaut.sc" xMin="55" yMin="-12" xMax="519" yMax="697">
      <component glyphName="O.sc" x="0" y="0" flags="0x204"/>
      <component glyphName="uni030B.cap" x="287" y="-118" flags="0x4"/>
    </TTGlyph>
    <TTGlyph name="Omacron" xMin="55" yMin="-12" xMax="598" yMax="770">
      <component glyphName="O" x="0" y="0" flags="0x204"/>
      <component glyphName="uni0304.cap" x="326" y="0" flags="0x4"/>
    </TTGlyph>
    <TTGlyph name="Omacron.sc" xMin="55" yMin="-12" xMax="519" yMax="652">
      <component glyphName="O.sc" x="0" y="0" flags="0x204"/>
      <component glyphName="uni0304.cap" x="287" y="-118" flags="0x4"/>
    </TTGlyph>
    <TTGlyph name="Oslash" xMin="56" yMin="-23" xMax="601" yMax="682">
      <contour>
        <pt x="177" y="101" on="1"/>
        <pt x="206" y="67" on="0"/>
        <pt x="283" y="30" on="0"/>
        <pt x="330" y="30" on="1"/>
        <pt x="380" y="30" on="0"/>
        <pt x="462" y="73" on="0"/>
        <pt x="521" y="152" on="0"/>
        <pt x="553" y="263" on="0"/>
        <pt x="553" y="332" on="1"/>
        <pt x="553" y="395" on="0"/>
        <pt x="526" y="497" on="0"/>
        <pt x="501" y="535" on="1"/>
      </contour>
      <contour>
        <pt x="478" y="565" on="1"/>
        <pt x="449" y="596" on="0"/>
        <pt x="375" y="629" on="0"/>
        <pt x="330" y="629" on="1"/>
        <pt x="280" y="629" on="0"/>
        <pt x="197" y="587" on="0"/>
        <pt x="139" y="510" on="0"/>
        <pt x="107" y="400" on="0"/>
        <pt x="107" y="332" on="1"/>
        <pt x="107" y="271" on="0"/>
        <pt x="132" y="170" on="0"/>
        <pt x="155" y="132" on="1"/>
      </contour>
      <contour>
        <pt x="530" y="573" on="1"/>
        <pt x="564" y="529" on="0"/>
        <pt x="601" y="407" on="0"/>
        <pt x="601" y="332" on="1"/>
        <pt x="601" y="254" on="0"/>
        <pt x="561" y="127" on="0"/>
        <pt x="489" y="37" on="0"/>
        <pt x="389" y="-12" on="0"/>
        <pt x="330" y="-12" on="1"/>
        <pt x="276" y="-12" on="0"/>
        <pt x="184" y="27" on="0"/>
        <pt x="149" y="64" on="1"/>
        <pt x="84" y="-23" on="1"/>
        <pt x="56" y="-1" on="1"/>
        <pt x="126" y="93" on="1"/>
        <pt x="94" y="138" on="0"/>
        <pt x="58" y="258" on="0"/>
        <pt x="58" y="332" on="1"/>
        <pt x="58" y="410" on="0"/>
        <pt x="98" y="535" on="0"/>
        <pt x="170" y="624" on="0"/>
        <pt x="270" y="671" on="0"/>
        <pt x="330" y="671" on="1"/>
        <pt x="382" y="671" on="0"/>
        <pt x="470" y="635" on="0"/>
        <pt x="505" y="601" on="1"/>
        <pt x="566" y="682" on="1"/>
        <pt x="595" y="660" on="1"/>
      </contour>
    </TTGlyph>
    <TTGlyph name="Oslash.sc" xMin="46" yMin="-22" xMax="528" yMax="535">
      <contour>
        <pt x="160" y="81" on="1"/>
        <pt x="210" y="28" on="0"/>
        <pt x="287" y="28" on="1"/>
        <pt x="329" y="28" on="0"/>
        <pt x="397" y="60" on="0"/>
        <pt x="445" y="120" on="0"/>
        <pt x="472" y="204" on="0"/>
        <pt x="472" y="257" on="1"/>
        <pt x="472" y="347" on="0"/>
        <pt x="435" y="404" on="1"/>
      </contour>
      <contour>
        <pt x="414" y="432" on="1"/>
        <pt x="390" y="457" on="0"/>
        <pt x="326" y="484" on="0"/>
        <pt x="287" y="484" on="1"/>
        <pt x="245" y="484" on="0"/>
        <pt x="177" y="453" on="0"/>
        <pt x="128" y="394" on="0"/>
        <pt x="102" y="310" on="0"/>
        <pt x="102" y="257" on="1"/>
        <pt x="102" y="168" on="0"/>
        <pt x="139" y="109" on="1"/>
      </contour>
      <contour>
        <pt x="464" y="439" on="1"/>
        <pt x="490" y="405" on="0"/>
        <pt x="519" y="314" on="0"/>
        <pt x="519" y="257" on="1"/>
        <pt x="519" y="195" on="0"/>
        <pt x="484" y="96" on="0"/>
        <pt x="423" y="26" on="0"/>
        <pt x="338" y="-12" on="0"/>
        <pt x="287" y="-12" on="1"/>
        <pt x="240" y="-12" on="0"/>
        <pt x="162" y="19" on="0"/>
        <pt x="132" y="48" on="1"/>
        <pt x="72" y="-22" on="1"/>
        <pt x="46" y="-1" on="1"/>
        <pt x="110" y="74" on="1"/>
        <pt x="84" y="109" on="0"/>
        <pt x="55" y="200" on="0"/>
        <pt x="55" y="257" on="1"/>
        <pt x="55" y="319" on="0"/>
        <pt x="89" y="418" on="0"/>
        <pt x="151" y="487" on="0"/>
        <pt x="236" y="524" on="0"/>
        <pt x="287" y="524" on="1"/>
        <pt x="380" y="524" on="0"/>
        <pt x="442" y="464" on="1"/>
        <pt x="502" y="535" on="1"/>
        <pt x="528" y="514" on="1"/>
      </contour>
    </TTGlyph>
    <TTGlyph name="Otilde" xMin="55" yMin="-12" xMax="598" yMax="808">
      <component glyphName="O" x="0" y="0" flags="0x204"/>
      <component glyphName="uni0303.cap" x="326" y="0" flags="0x4"/>
    </TTGlyph>
    <TTGlyph name="Otilde.sc" xMin="55" yMin="-12" xMax="519" yMax="690">
      <component glyphName="O.sc" x="0" y="0" flags="0x204"/>
      <component glyphName="uni0303.cap" x="287" y="-118" flags="0x4"/>
    </TTGlyph>
    <TTGlyph name="P" xMin="97" yMin="0" xMax="512" yMax="659">
      <contour>
        <pt x="97" y="659" on="1"/>
        <pt x="277" y="659" on="1"/>
        <pt x="332" y="659" on="0"/>
        <pt x="419" y="640" on="0"/>
        <pt x="480" y="596" on="0"/>
        <pt x="512" y="526" on="0"/>
        <pt x="512" y="475" on="1"/>
        <pt x="512" y="378" on="0"/>
        <pt x="388" y="283" on="0"/>
        <pt x="277" y="283" on="1"/>
        <pt x="143" y="283" on="1"/>
        <pt x="143" y="0" on="1"/>
        <pt x="97" y="0" on="1"/>
      </contour>
      <contour>
        <pt x="266" y="322" on="1"/>
        <pt x="367" y="322" on="0"/>
        <pt x="465" y="394" on="0"/>
        <pt x="465" y="475" on="1"/>
        <pt x="465" y="517" on="0"/>
        <pt x="440" y="572" on="0"/>
        <pt x="391" y="606" on="0"/>
        <pt x="316" y="620" on="0"/>
        <pt x="266" y="620" on="1"/>
        <pt x="143" y="620" on="1"/>
        <pt x="143" y="322" on="1"/>
      </contour>
    </TTGlyph>
    <TTGlyph name="P.sc" xMin="97" yMin="0" xMax="453" yMax="512">
      <contour>
        <pt x="97" y="512" on="1"/>
        <pt x="252" y="512" on="1"/>
        <pt x="346" y="512" on="0"/>
        <pt x="453" y="447" on="0"/>
        <pt x="453" y="366" on="1"/>
        <pt x="453" y="288" on="0"/>
        <pt x="346" y="214" on="0"/>
        <pt x="252" y="214" on="1"/>
        <pt x="143" y="214" on="1"/>
        <pt x="143" y="0" on="1"/>
        <pt x="97" y="0" on="1"/>
      </contour>
      <contour>
        <pt x="247" y="250" on="1"/>
        <pt x="330" y="250" on="0"/>
        <pt x="406" y="304" on="0"/>
        <pt x="406" y="365" on="1"/>
        <pt x="406" y="427" on="0"/>
        <pt x="327" y="474" on="0"/>
        <pt x="243" y="474" on="1"/>
        <pt x="143" y="474" on="1"/>
        <pt x="143" y="250" on="1"/>
      </contour>
    </TTGlyph>
    <TTGlyph name="P.sups" xMin="61" yMin="269" xMax="344" yMax="701">
      <contour>
        <pt x="61" y="701" on="1"/>
        <pt x="186" y="701" on="1"/>
        <pt x="259" y="701" on="0"/>
        <pt x="344" y="646" on="0"/>
        <pt x="344" y="579" on="1"/>
        <pt x="344" y="513" on="0"/>
        <pt x="258" y="450" on="0"/>
        <pt x="186" y="450" on="1"/>
        <pt x="100" y="450" on="1"/>
        <pt x="100" y="269" on="1"/>
        <pt x="61" y="269" on="1"/>
      </contour>
      <contour>
        <pt x="179" y="482" on="1"/>
        <pt x="242" y="482" on="0"/>
        <pt x="305" y="527" on="0"/>
        <pt x="305" y="579" on="1"/>
        <pt x="305" y="631" on="0"/>
        <pt x="242" y="669" on="0"/>
        <pt x="179" y="669" on="1"/>
        <pt x="100" y="669" on="1"/>
        <pt x="100" y="482" on="1"/>
      </contour>
    </TTGlyph>
    <TTGlyph name="Q" xMin="55" yMin="-155" xMax="600" yMax="671">
      <contour>
        <pt x="103" y="332" on="1"/>
        <pt x="103" y="263" on="0"/>
        <pt x="135" y="150" on="0"/>
        <pt x="193" y="71" on="0"/>
        <pt x="276" y="27" on="0"/>
        <pt x="326" y="27" on="1"/>
        <pt x="376" y="27" on="0"/>
        <pt x="458" y="71" on="0"/>
        <pt x="517" y="150" on="0"/>
        <pt x="549" y="263" on="0"/>
        <pt x="549" y="332" on="1"/>
        <pt x="549" y="400" on="0"/>
        <pt x="517" y="510" on="0"/>
        <pt x="458" y="587" on="0"/>
        <pt x="376" y="629" on="0"/>
        <pt x="326" y="629" on="1"/>
        <pt x="276" y="629" on="0"/>
        <pt x="193" y="587" on="0"/>
        <pt x="135" y="510" on="0"/>
        <pt x="103" y="400" on="0"/>
      </contour>
      <contour>
        <pt x="600" y="-144" on="1"/>
        <pt x="587" y="-148" on="0"/>
        <pt x="544" y="-155" on="0"/>
        <pt x="519" y="-155" on="1"/>
        <pt x="436" y="-155" on="0"/>
        <pt x="325" y="-73" on="0"/>
        <pt x="300" y="-11" on="1"/>
        <pt x="246" y="-6" on="0"/>
        <pt x="156" y="47" on="0"/>
        <pt x="91" y="136" on="0"/>
        <pt x="55" y="258" on="0"/>
        <pt x="55" y="332" on="1"/>
        <pt x="55" y="410" on="0"/>
        <pt x="95" y="535" on="0"/>
        <pt x="167" y="624" on="0"/>
        <pt x="267" y="671" on="0"/>
        <pt x="326" y="671" on="1"/>
        <pt x="386" y="671" on="0"/>
        <pt x="486" y="624" on="0"/>
        <pt x="558" y="535" on="0"/>
        <pt x="598" y="410" on="0"/>
        <pt x="598" y="332" on="1"/>
        <pt x="598" y="258" on="0"/>
        <pt x="562" y="136" on="0"/>
        <pt x="497" y="47" on="0"/>
        <pt x="406" y="-6" on="0"/>
        <pt x="351" y="-11" on="1"/>
        <pt x="374" y="-61" on="0"/>
        <pt x="461" y="-113" on="0"/>
        <pt x="523" y="-113" on="1"/>
        <pt x="546" y="-113" on="0"/>
        <pt x="577" y="-108" on="0"/>
        <pt x="590" y="-104" on="1"/>
      </contour>
    </TTGlyph>
    <TTGlyph name="Q.sc" xMin="55" yMin="-142" xMax="520" yMax="524">
      <contour>
        <pt x="103" y="257" on="1"/>
        <pt x="103" y="204" on="0"/>
        <pt x="129" y="119" on="0"/>
        <pt x="177" y="59" on="0"/>
        <pt x="245" y="26" on="0"/>
        <pt x="287" y="26" on="1"/>
        <pt x="328" y="26" on="0"/>
        <pt x="396" y="59" on="0"/>
        <pt x="444" y="119" on="0"/>
        <pt x="471" y="204" on="0"/>
        <pt x="471" y="257" on="1"/>
        <pt x="471" y="309" on="0"/>
        <pt x="444" y="393" on="0"/>
        <pt x="396" y="452" on="0"/>
        <pt x="328" y="483" on="0"/>
        <pt x="287" y="483" on="1"/>
        <pt x="203" y="483" on="0"/>
        <pt x="103" y="363" on="0"/>
      </contour>
      <contour>
        <pt x="520" y="-131" on="1"/>
        <pt x="509" y="-136" on="0"/>
        <pt x="471" y="-142" on="0"/>
        <pt x="449" y="-142" on="1"/>
        <pt x="378" y="-142" on="0"/>
        <pt x="282" y="-68" on="0"/>
        <pt x="260" y="-11" on="1"/>
        <pt x="214" y="-6" on="0"/>
        <pt x="139" y="36" on="0"/>
        <pt x="85" y="105" on="0"/>
        <pt x="55" y="200" on="0"/>
        <pt x="55" y="257" on="1"/>
        <pt x="55" y="319" on="0"/>
        <pt x="89" y="418" on="0"/>
        <pt x="151" y="487" on="0"/>
        <pt x="236" y="524" on="0"/>
        <pt x="287" y="524" on="1"/>
        <pt x="338" y="524" on="0"/>
        <pt x="423" y="487" on="0"/>
        <pt x="484" y="418" on="0"/>
        <pt x="519" y="319" on="0"/>
        <pt x="519" y="257" on="1"/>
        <pt x="519" y="199" on="0"/>
        <pt x="488" y="104" on="0"/>
        <pt x="432" y="34" on="0"/>
        <pt x="355" y="-7" on="0"/>
        <pt x="309" y="-11" on="1"/>
        <pt x="328" y="-58" on="0"/>
        <pt x="402" y="-102" on="0"/>
        <pt x="453" y="-102" on="1"/>
        <pt x="472" y="-102" on="0"/>
        <pt x="499" y="-97" on="0"/>
        <pt x="510" y="-93" on="1"/>
      </contour>
    </TTGlyph>
    <TTGlyph name="Q.sups" xMin="33" yMin="166" xMax="402" yMax="709">
      <contour>
        <pt x="73" y="488" on="1"/>
        <pt x="73" y="400" on="0"/>
        <pt x="151" y="294" on="0"/>
        <pt x="216" y="294" on="1"/>
        <pt x="281" y="294" on="0"/>
        <pt x="358" y="400" on="0"/>
        <pt x="358" y="488" on="1"/>
        <pt x="358" y="575" on="0"/>
        <pt x="281" y="676" on="0"/>
        <pt x="216" y="676" on="1"/>
        <pt x="151" y="676" on="0"/>
        <pt x="73" y="575" on="0"/>
      </contour>
      <contour>
        <pt x="402" y="174" on="1"/>
        <pt x="394" y="171" on="0"/>
        <pt x="363" y="166" on="0"/>
        <pt x="345" y="166" on="1"/>
        <pt x="288" y="166" on="0"/>
        <pt x="213" y="220" on="0"/>
        <pt x="196" y="262" on="1"/>
        <pt x="160" y="266" on="0"/>
        <pt x="100" y="301" on="0"/>
        <pt x="57" y="360" on="0"/>
        <pt x="33" y="439" on="0"/>
        <pt x="33" y="488" on="1"/>
        <pt x="33" y="539" on="0"/>
        <pt x="60" y="621" on="0"/>
        <pt x="109" y="678" on="0"/>
        <pt x="176" y="709" on="0"/>
        <pt x="216" y="709" on="1"/>
        <pt x="256" y="709" on="0"/>
        <pt x="323" y="678" on="0"/>
        <pt x="371" y="620" on="0"/>
        <pt x="398" y="539" on="0"/>
        <pt x="398" y="488" on="1"/>
        <pt x="398" y="440" on="0"/>
        <pt x="374" y="360" on="0"/>
        <pt x="332" y="302" on="0"/>
        <pt x="273" y="266" on="0"/>
        <pt x="238" y="262" on="1"/>
        <pt x="253" y="231" on="0"/>
        <pt x="310" y="200" on="0"/>
        <pt x="349" y="200" on="1"/>
        <pt x="364" y="200" on="0"/>
        <pt x="386" y="203" on="0"/>
        <pt x="394" y="205" on="1"/>
      </contour>
    </TTGlyph>
    <TTGlyph name="R" xMin="97" yMin="0" xMax="515" yMax="659">
      <contour>
        <pt x="274" y="341" on="1"/>
        <pt x="362" y="341" on="0"/>
        <pt x="455" y="412" on="0"/>
        <pt x="455" y="485" on="1"/>
        <pt x="455" y="559" on="0"/>
        <pt x="361" y="620" on="0"/>
        <pt x="274" y="620" on="1"/>
        <pt x="143" y="620" on="1"/>
        <pt x="143" y="341" on="1"/>
      </contour>
      <contour>
        <pt x="462" y="0" on="1"/>
        <pt x="283" y="303" on="1"/>
        <pt x="143" y="303" on="1"/>
        <pt x="143" y="0" on="1"/>
        <pt x="97" y="0" on="1"/>
        <pt x="97" y="659" on="1"/>
        <pt x="286" y="659" on="1"/>
        <pt x="335" y="659" on="0"/>
        <pt x="415" y="640" on="0"/>
        <pt x="471" y="598" on="0"/>
        <pt x="502" y="532" on="0"/>
        <pt x="502" y="485" on="1"/>
        <pt x="502" y="406" on="0"/>
        <pt x="411" y="316" on="0"/>
        <pt x="333" y="306" on="1"/>
        <pt x="515" y="0" on="1"/>
      </contour>
    </TTGlyph>
    <TTGlyph name="R.sc" xMin="97" yMin="0" xMax="456" yMax="512">
      <contour>
        <pt x="143" y="264" on="1"/>
        <pt x="249" y="264" on="1"/>
        <pt x="399" y="264" on="0"/>
        <pt x="399" y="372" on="1"/>
        <pt x="399" y="429" on="0"/>
        <pt x="322" y="474" on="0"/>
        <pt x="249" y="474" on="1"/>
        <pt x="143" y="474" on="1"/>
      </contour>
      <contour>
        <pt x="405" y="0" on="1"/>
        <pt x="257" y="228" on="1"/>
        <pt x="143" y="228" on="1"/>
        <pt x="143" y="0" on="1"/>
        <pt x="97" y="0" on="1"/>
        <pt x="97" y="512" on="1"/>
        <pt x="259" y="512" on="1"/>
        <pt x="301" y="512" on="0"/>
        <pt x="369" y="497" on="0"/>
        <pt x="417" y="464" on="0"/>
        <pt x="444" y="411" on="0"/>
        <pt x="444" y="373" on="1"/>
        <pt x="444" y="312" on="0"/>
        <pt x="370" y="240" on="0"/>
        <pt x="306" y="231" on="1"/>
        <pt x="456" y="0" on="1"/>
      </contour>
    </TTGlyph>
    <TTGlyph name="R.sups" xMin="61" yMin="269" xMax="347" yMax="701">
      <contour>
        <pt x="100" y="494" on="1"/>
        <pt x="182" y="494" on="1"/>
        <pt x="239" y="494" on="0"/>
        <pt x="298" y="538" on="0"/>
        <pt x="298" y="585" on="1"/>
        <pt x="298" y="632" on="0"/>
        <pt x="239" y="669" on="0"/>
        <pt x="182" y="669" on="1"/>
        <pt x="100" y="669" on="1"/>
      </contour>
      <contour>
        <pt x="303" y="269" on="1"/>
        <pt x="189" y="462" on="1"/>
        <pt x="100" y="462" on="1"/>
        <pt x="100" y="269" on="1"/>
        <pt x="61" y="269" on="1"/>
        <pt x="61" y="701" on="1"/>
        <pt x="190" y="701" on="1"/>
        <pt x="256" y="701" on="0"/>
        <pt x="337" y="648" on="0"/>
        <pt x="337" y="585" on="1"/>
        <pt x="337" y="534" on="0"/>
        <pt x="279" y="474" on="0"/>
        <pt x="230" y="465" on="1"/>
        <pt x="347" y="269" on="1"/>
      </contour>
    </TTGlyph>
    <TTGlyph name="Racute" xMin="97" yMin="0" xMax="515" yMax="815">
      <component glyphName="R" x="0" y="0" flags="0x204"/>
      <component glyphName="uni0301.cap" x="285" y="0" flags="0x4"/>
    </TTGlyph>
    <TTGlyph name="Racute.sc" xMin="97" yMin="0" xMax="456" yMax="697">
      <component glyphName="R.sc" x="0" y="0" flags="0x204"/>
      <component glyphName="uni0301.cap" x="272" y="-118" flags="0x4"/>
    </TTGlyph>
    <TTGlyph name="Rcaron" xMin="97" yMin="0" xMax="515" yMax="815">
      <component glyphName="R" x="0" y="0" flags="0x204"/>
      <component glyphName="uni030C.cap" x="285" y="0" flags="0x4"/>
    </TTGlyph>
    <TTGlyph name="Rcaron.sc" xMin="97" yMin="0" xMax="456" yMax="697">
      <component glyphName="R.sc" x="0" y="0" flags="0x204"/>
      <component glyphName="uni030C.cap" x="272" y="-118" flags="0x4"/>
    </TTGlyph>
    <TTGlyph name="S" xMin="46" yMin="-12" xMax="480" yMax="671">
      <contour>
        <pt x="76" y="119" on="1"/>
        <pt x="112" y="78" on="0"/>
        <pt x="212" y="30" on="0"/>
        <pt x="269" y="30" on="1"/>
        <pt x="345" y="30" on="0"/>
        <pt x="433" y="103" on="0"/>
        <pt x="433" y="162" on="1"/>
        <pt x="433" y="193" on="0"/>
        <pt x="414" y="235" on="0"/>
        <pt x="382" y="266" on="0"/>
        <pt x="339" y="289" on="0"/>
        <pt x="315" y="300" on="1"/>
        <pt x="215" y="345" on="1"/>
        <pt x="193" y="354" on="0"/>
        <pt x="146" y="380" on="0"/>
        <pt x="107" y="419" on="0"/>
        <pt x="81" y="472" on="0"/>
        <pt x="81" y="509" on="1"/>
        <pt x="81" y="545" on="0"/>
        <pt x="110" y="604" on="0"/>
        <pt x="161" y="647" on="0"/>
        <pt x="232" y="671" on="0"/>
        <pt x="273" y="671" on="1"/>
        <pt x="333" y="671" on="0"/>
        <pt x="426" y="624" on="0"/>
        <pt x="456" y="592" on="1"/>
        <pt x="430" y="561" on="1"/>
        <pt x="401" y="592" on="0"/>
        <pt x="323" y="629" on="0"/>
        <pt x="273" y="629" on="1"/>
        <pt x="207" y="629" on="0"/>
        <pt x="127" y="565" on="0"/>
        <pt x="127" y="511" on="1"/>
        <pt x="127" y="482" on="0"/>
        <pt x="149" y="442" on="0"/>
        <pt x="183" y="413" on="0"/>
        <pt x="223" y="392" on="0"/>
        <pt x="241" y="384" on="1"/>
        <pt x="341" y="340" on="1"/>
        <pt x="369" y="328" on="0"/>
        <pt x="419" y="298" on="0"/>
        <pt x="457" y="258" on="0"/>
        <pt x="480" y="203" on="0"/>
        <pt x="480" y="165" on="1"/>
        <pt x="480" y="127" on="0"/>
        <pt x="450" y="62" on="0"/>
        <pt x="395" y="15" on="0"/>
        <pt x="317" y="-12" on="0"/>
        <pt x="269" y="-12" on="1"/>
        <pt x="197" y="-12" on="0"/>
        <pt x="85" y="43" on="0"/>
        <pt x="46" y="87" on="1"/>
      </contour>
    </TTGlyph>
    <TTGlyph name="S.sc" xMin="46" yMin="-12" xMax="416" yMax="524">
      <contour>
        <pt x="74" y="97" on="1"/>
        <pt x="105" y="65" on="0"/>
        <pt x="188" y="26" on="0"/>
        <pt x="238" y="26" on="1"/>
        <pt x="300" y="26" on="0"/>
        <pt x="369" y="80" on="0"/>
        <pt x="369" y="125" on="1"/>
        <pt x="369" y="149" on="0"/>
        <pt x="354" y="181" on="0"/>
        <pt x="328" y="204" on="0"/>
        <pt x="293" y="221" on="0"/>
        <pt x="272" y="230" on="1"/>
        <pt x="202" y="259" on="1"/>
        <pt x="176" y="269" on="0"/>
        <pt x="130" y="295" on="0"/>
        <pt x="96" y="327" on="0"/>
        <pt x="76" y="367" on="0"/>
        <pt x="76" y="393" on="1"/>
        <pt x="76" y="423" on="0"/>
        <pt x="101" y="471" on="0"/>
        <pt x="145" y="505" on="0"/>
        <pt x="205" y="524" on="0"/>
        <pt x="241" y="524" on="1"/>
        <pt x="294" y="524" on="0"/>
        <pt x="374" y="488" on="0"/>
        <pt x="399" y="463" on="1"/>
        <pt x="373" y="433" on="1"/>
        <pt x="348" y="456" on="0"/>
        <pt x="282" y="486" on="0"/>
        <pt x="241" y="486" on="1"/>
        <pt x="187" y="486" on="0"/>
        <pt x="122" y="438" on="0"/>
        <pt x="122" y="396" on="1"/>
        <pt x="122" y="357" on="0"/>
        <pt x="174" y="317" on="0"/>
        <pt x="220" y="298" on="1"/>
        <pt x="291" y="268" on="1"/>
        <pt x="319" y="257" on="0"/>
        <pt x="366" y="234" on="0"/>
        <pt x="398" y="203" on="0"/>
        <pt x="416" y="159" on="0"/>
        <pt x="416" y="128" on="1"/>
        <pt x="416" y="98" on="0"/>
        <pt x="391" y="47" on="0"/>
        <pt x="344" y="9" on="0"/>
        <pt x="278" y="-12" on="0"/>
        <pt x="237" y="-12" on="1"/>
        <pt x="174" y="-12" on="0"/>
        <pt x="81" y="31" on="0"/>
        <pt x="46" y="64" on="1"/>
      </contour>
    </TTGlyph>
    <TTGlyph name="S.sups" xMin="28" yMin="261" xMax="320" yMax="709">
      <contour>
        <pt x="52" y="352" on="1"/>
        <pt x="76" y="324" on="0"/>
        <pt x="142" y="295" on="0"/>
        <pt x="179" y="295" on="1"/>
        <pt x="227" y="295" on="0"/>
        <pt x="282" y="340" on="0"/>
        <pt x="282" y="377" on="1"/>
        <pt x="282" y="396" on="0"/>
        <pt x="270" y="422" on="0"/>
        <pt x="249" y="442" on="0"/>
        <pt x="222" y="456" on="0"/>
        <pt x="206" y="463" on="1"/>
        <pt x="139" y="492" on="1"/>
        <pt x="124" y="499" on="0"/>
        <pt x="93" y="516" on="0"/>
        <pt x="67" y="542" on="0"/>
        <pt x="50" y="577" on="0"/>
        <pt x="50" y="601" on="1"/>
        <pt x="50" y="649" on="0"/>
        <pt x="125" y="709" on="0"/>
        <pt x="181" y="709" on="1"/>
        <pt x="221" y="709" on="0"/>
        <pt x="284" y="679" on="0"/>
        <pt x="306" y="657" on="1"/>
        <pt x="285" y="633" on="1"/>
        <pt x="265" y="653" on="0"/>
        <pt x="214" y="677" on="0"/>
        <pt x="181" y="677" on="1"/>
        <pt x="139" y="677" on="0"/>
        <pt x="90" y="637" on="0"/>
        <pt x="90" y="603" on="1"/>
        <pt x="90" y="585" on="0"/>
        <pt x="104" y="560" on="0"/>
        <pt x="125" y="541" on="0"/>
        <pt x="151" y="528" on="0"/>
        <pt x="163" y="523" on="1"/>
        <pt x="229" y="494" on="1"/>
        <pt x="248" y="485" on="0"/>
        <pt x="281" y="466" on="0"/>
        <pt x="306" y="440" on="0"/>
        <pt x="320" y="406" on="0"/>
        <pt x="320" y="383" on="1"/>
        <pt x="320" y="330" on="0"/>
        <pt x="244" y="261" on="0"/>
        <pt x="178" y="261" on="1"/>
        <pt x="130" y="261" on="0"/>
        <pt x="56" y="297" on="0"/>
        <pt x="28" y="326" on="1"/>
      </contour>
    </TTGlyph>
    <TTGlyph name="Sacute" xMin="46" yMin="-12" xMax="480" yMax="815">
      <component glyphName="S" x="0" y="0" flags="0x204"/>
      <component glyphName="uni0301.cap" x="271" y="0" flags="0x4"/>
    </TTGlyph>
    <TTGlyph name="Sacute.sc" xMin="46" yMin="-12" xMax="416" yMax="697">
      <component glyphName="S.sc" x="0" y="0" flags="0x204"/>
      <component glyphName="uni0301.cap" x="244" y="-118" flags="0x4"/>
    </TTGlyph>
    <TTGlyph name="Scaron" xMin="46" yMin="-12" xMax="480" yMax="815">
      <component glyphName="S" x="0" y="0" flags="0x204"/>
      <component glyphName="uni030C.cap" x="271" y="0" flags="0x4"/>
    </TTGlyph>
    <TTGlyph name="Scaron.sc" xMin="46" yMin="-12" xMax="416" yMax="697">
      <component glyphName="S.sc" x="0" y="0" flags="0x204"/>
      <component glyphName="uni030C.cap" x="244" y="-118" flags="0x4"/>
    </TTGlyph>
    <TTGlyph name="Scircumflex" xMin="46" yMin="-12" xMax="480" yMax="815">
      <component glyphName="S" x="0" y="0" flags="0x204"/>
      <component glyphName="uni0302.cap" x="271" y="0" flags="0x4"/>
    </TTGlyph>
    <TTGlyph name="Scircumflex.sc" xMin="46" yMin="-12" xMax="416" yMax="697">
      <component glyphName="S.sc" x="0" y="0" flags="0x204"/>
      <component glyphName="uni0302.cap" x="244" y="-118" flags="0x4"/>
    </TTGlyph>
    <TTGlyph name="T" xMin="29" yMin="0" xMax="495" yMax="659">
      <contour>
        <pt x="239" y="619" on="1"/>
        <pt x="29" y="619" on="1"/>
        <pt x="29" y="659" on="1"/>
        <pt x="495" y="659" on="1"/>
        <pt x="495" y="619" on="1"/>
        <pt x="285" y="619" on="1"/>
        <pt x="285" y="0" on="1"/>
        <pt x="239" y="0" on="1"/>
      </contour>
    </TTGlyph>
    <TTGlyph name="T.sc" xMin="29" yMin="0" xMax="424" yMax="512">
      <contour>
        <pt x="204" y="474" on="1"/>
        <pt x="29" y="474" on="1"/>
        <pt x="29" y="512" on="1"/>
        <pt x="424" y="512" on="1"/>
        <pt x="424" y="474" on="1"/>
        <pt x="250" y="474" on="1"/>
        <pt x="250" y="0" on="1"/>
        <pt x="204" y="0" on="1"/>
      </contour>
    </TTGlyph>
    <TTGlyph name="T.sups" xMin="17" yMin="269" xMax="328" yMax="701">
      <contour>
        <pt x="154" y="669" on="1"/>
        <pt x="17" y="669" on="1"/>
        <pt x="17" y="701" on="1"/>
        <pt x="328" y="701" on="1"/>
        <pt x="328" y="669" on="1"/>
        <pt x="192" y="669" on="1"/>
        <pt x="192" y="269" on="1"/>
        <pt x="154" y="269" on="1"/>
      </contour>
    </TTGlyph>
    <TTGlyph name="Tcaron" xMin="29" yMin="0" xMax="495" yMax="815">
      <component glyphName="T" x="0" y="0" flags="0x204"/>
      <component glyphName="uni030C.cap" x="261" y="0" flags="0x4"/>
    </TTGlyph>
    <TTGlyph name="Tcaron.sc" xMin="29" yMin="0" xMax="424" yMax="697">
      <component glyphName="T.sc" x="0" y="0" flags="0x204"/>
      <component glyphName="uni030C.cap" x="226" y="-118" flags="0x4"/>
    </TTGlyph>
    <TTGlyph name="Thorn" xMin="97" yMin="0" xMax="512" yMax="659">
      <contour>
        <pt x="97" y="659" on="1"/>
        <pt x="143" y="659" on="1"/>
        <pt x="143" y="542" on="1"/>
        <pt x="277" y="542" on="1"/>
        <pt x="332" y="542" on="0"/>
        <pt x="419" y="522" on="0"/>
        <pt x="480" y="479" on="0"/>
        <pt x="512" y="409" on="0"/>
        <pt x="512" y="358" on="1"/>
        <pt x="512" y="261" on="0"/>
        <pt x="388" y="166" on="0"/>
        <pt x="277" y="166" on="1"/>
        <pt x="143" y="166" on="1"/>
        <pt x="143" y="0" on="1"/>
        <pt x="97" y="0" on="1"/>
      </contour>
      <contour>
        <pt x="266" y="205" on="1"/>
        <pt x="367" y="205" on="0"/>
        <pt x="465" y="277" on="0"/>
        <pt x="465" y="358" on="1"/>
        <pt x="465" y="440" on="0"/>
        <pt x="366" y="503" on="0"/>
        <pt x="266" y="503" on="1"/>
        <pt x="143" y="503" on="1"/>
        <pt x="143" y="205" on="1"/>
      </contour>
    </TTGlyph>
    <TTGlyph name="Thorn.sc" xMin="97" yMin="0" xMax="453" yMax="512">
      <contour>
        <pt x="97" y="512" on="1"/>
        <pt x="143" y="512" on="1"/>
        <pt x="143" y="422" on="1"/>
        <pt x="252" y="422" on="1"/>
        <pt x="345" y="422" on="0"/>
        <pt x="453" y="356" on="0"/>
        <pt x="453" y="276" on="1"/>
        <pt x="453" y="199" on="0"/>
        <pt x="346" y="124" on="0"/>
        <pt x="252" y="124" on="1"/>
        <pt x="143" y="124" on="1"/>
        <pt x="143" y="0" on="1"/>
        <pt x="97" y="0" on="1"/>
      </contour>
      <contour>
        <pt x="243" y="161" on="1"/>
        <pt x="326" y="161" on="0"/>
        <pt x="405" y="215" on="0"/>
        <pt x="405" y="276" on="1"/>
        <pt x="405" y="338" on="0"/>
        <pt x="325" y="384" on="0"/>
        <pt x="243" y="384" on="1"/>
        <pt x="143" y="384" on="1"/>
        <pt x="143" y="161" on="1"/>
      </contour>
    </TTGlyph>
    <TTGlyph name="U" xMin="95" yMin="-12" xMax="539" yMax="659">
      <contour>
        <pt x="95" y="659" on="1"/>
        <pt x="141" y="659" on="1"/>
        <pt x="141" y="258" on="1"/>
        <pt x="141" y="192" on="0"/>
        <pt x="170" y="105" on="0"/>
        <pt x="218" y="52" on="0"/>
        <pt x="281" y="30" on="0"/>
        <pt x="316" y="30" on="1"/>
        <pt x="352" y="30" on="0"/>
        <pt x="417" y="52" on="0"/>
        <pt x="466" y="105" on="0"/>
        <pt x="496" y="192" on="0"/>
        <pt x="496" y="258" on="1"/>
        <pt x="496" y="659" on="1"/>
        <pt x="539" y="659" on="1"/>
        <pt x="539" y="253" on="1"/>
        <pt x="539" y="176" on="0"/>
        <pt x="501" y="74" on="0"/>
        <pt x="439" y="13" on="0"/>
        <pt x="359" y="-12" on="0"/>
        <pt x="316" y="-12" on="1"/>
        <pt x="274" y="-12" on="0"/>
        <pt x="194" y="13" on="0"/>
        <pt x="132" y="74" on="0"/>
        <pt x="95" y="176" on="0"/>
        <pt x="95" y="253" on="1"/>
      </contour>
    </TTGlyph>
    <TTGlyph name="U.sc" xMin="95" yMin="-12" xMax="474" yMax="512">
      <contour>
        <pt x="95" y="512" on="1"/>
        <pt x="141" y="512" on="1"/>
        <pt x="141" y="203" on="1"/>
        <pt x="141" y="152" on="0"/>
        <pt x="164" y="85" on="0"/>
        <pt x="203" y="45" on="0"/>
        <pt x="256" y="29" on="0"/>
        <pt x="285" y="29" on="1"/>
        <pt x="314" y="29" on="0"/>
        <pt x="367" y="45" on="0"/>
        <pt x="407" y="85" on="0"/>
        <pt x="431" y="152" on="0"/>
        <pt x="431" y="203" on="1"/>
        <pt x="431" y="512" on="1"/>
        <pt x="474" y="512" on="1"/>
        <pt x="474" y="198" on="1"/>
        <pt x="474" y="137" on="0"/>
        <pt x="442" y="56" on="0"/>
        <pt x="390" y="8" on="0"/>
        <pt x="322" y="-12" on="0"/>
        <pt x="285" y="-12" on="1"/>
        <pt x="248" y="-12" on="0"/>
        <pt x="179" y="8" on="0"/>
        <pt x="127" y="56" on="0"/>
        <pt x="95" y="137" on="0"/>
        <pt x="95" y="198" on="1"/>
      </contour>
    </TTGlyph>
    <TTGlyph name="U.sups" xMin="60" yMin="261" xMax="361" yMax="701">
      <contour>
        <pt x="60" y="701" on="1"/>
        <pt x="98" y="701" on="1"/>
        <pt x="98" y="441" on="1"/>
        <pt x="98" y="399" on="0"/>
        <pt x="116" y="343" on="0"/>
        <pt x="148" y="309" on="0"/>
        <pt x="188" y="295" on="0"/>
        <pt x="211" y="295" on="1"/>
        <pt x="234" y="295" on="0"/>
        <pt x="275" y="309" on="0"/>
        <pt x="307" y="343" on="0"/>
        <pt x="325" y="399" on="0"/>
        <pt x="325" y="441" on="1"/>
        <pt x="325" y="701" on="1"/>
        <pt x="361" y="701" on="1"/>
        <pt x="361" y="439" on="1"/>
        <pt x="361" y="388" on="0"/>
        <pt x="336" y="320" on="0"/>
        <pt x="295" y="278" on="0"/>
        <pt x="241" y="261" on="0"/>
        <pt x="211" y="261" on="1"/>
        <pt x="181" y="261" on="0"/>
        <pt x="126" y="278" on="0"/>
        <pt x="85" y="320" on="0"/>
        <pt x="60" y="388" on="0"/>
        <pt x="60" y="439" on="1"/>
      </contour>
    </TTGlyph>
    <TTGlyph name="Uacute" xMin="95" yMin="-12" xMax="539" yMax="815">
      <component glyphName="U" x="0" y="0" flags="0x204"/>
      <component glyphName="uni0301.cap" x="317" y="0" flags="0x4"/>
    </TTGlyph>
    <TTGlyph name="Uacute.sc" xMin="95" yMin="-12" xMax="474" yMax="697">
      <component glyphName="U.sc" x="0" y="0" flags="0x204"/>
      <component glyphName="uni0301.cap" x="284" y="-118" flags="0x4"/>
    </TTGlyph>
    <TTGlyph name="Ubreve" xMin="95" yMin="-12" xMax="539" yMax="815">
      <component glyphName="U" x="0" y="0" flags="0x204"/>
      <component glyphName="uni0306.cap" x="317" y="0" flags="0x4"/>
    </TTGlyph>
    <TTGlyph name="Ubreve.sc" xMin="95" yMin="-12" xMax="474" yMax="697">
      <component glyphName="U.sc" x="0" y="0" flags="0x204"/>
      <component glyphName="uni0306.cap" x="284" y="-118" flags="0x4"/>
    </TTGlyph>
    <TTGlyph name="Ucircumflex" xMin="95" yMin="-12" xMax="539" yMax="815">
      <component glyphName="U" x="0" y="0" flags="0x204"/>
      <component glyphName="uni0302.cap" x="317" y="0" flags="0x4"/>
    </TTGlyph>
    <TTGlyph name="Ucircumflex.sc" xMin="95" yMin="-12" xMax="474" yMax="697">
      <component glyphName="U.sc" x="0" y="0" flags="0x204"/>
      <component glyphName="uni0302.cap" x="284" y="-118" flags="0x4"/>
    </TTGlyph>
    <TTGlyph name="Udieresis" xMin="95" yMin="-12" xMax="539" yMax="798">
      <component glyphName="U" x="0" y="0" flags="0x204"/>
      <component glyphName="uni0308.cap" x="317" y="0" flags="0x4"/>
    </TTGlyph>
    <TTGlyph name="Udieresis.sc" xMin="95" yMin="-12" xMax="474" yMax="680">
      <component glyphName="U.sc" x="0" y="0" flags="0x204"/>
      <component glyphName="uni0308.cap" x="284" y="-118" flags="0x4"/>
    </TTGlyph>
    <TTGlyph name="Ugrave" xMin="95" yMin="-12" xMax="539" yMax="815">
      <component glyphName="U" x="0" y="0" flags="0x204"/>
      <component glyphName="uni0300.cap" x="317" y="0" flags="0x4"/>
    </TTGlyph>
    <TTGlyph name="Ugrave.sc" xMin="95" yMin="-12" xMax="474" yMax="697">
      <component glyphName="U.sc" x="0" y="0" flags="0x204"/>
      <component glyphName="uni0300.cap" x="284" y="-118" flags="0x4"/>
    </TTGlyph>
    <TTGlyph name="Uhorn" xMin="95" yMin="-12" xMax="640" yMax="786">
      <contour>
        <pt x="621" y="786" on="1"/>
        <pt x="630" y="772" on="0"/>
        <pt x="640" y="746" on="0"/>
        <pt x="640" y="731" on="1"/>
        <pt x="640" y="708" on="0"/>
        <pt x="623" y="675" on="0"/>
        <pt x="595" y="652" on="0"/>
        <pt x="559" y="637" on="0"/>
        <pt x="539" y="633" on="1"/>
        <pt x="539" y="253" on="1"/>
        <pt x="539" y="176" on="0"/>
        <pt x="501" y="74" on="0"/>
        <pt x="439" y="13" on="0"/>
        <pt x="359" y="-12" on="0"/>
        <pt x="316" y="-12" on="1"/>
        <pt x="274" y="-12" on="0"/>
        <pt x="194" y="13" on="0"/>
        <pt x="132" y="74" on="0"/>
        <pt x="95" y="176" on="0"/>
        <pt x="95" y="253" on="1"/>
        <pt x="95" y="659" on="1"/>
        <pt x="141" y="659" on="1"/>
        <pt x="141" y="258" on="1"/>
        <pt x="141" y="192" on="0"/>
        <pt x="170" y="105" on="0"/>
        <pt x="218" y="52" on="0"/>
        <pt x="281" y="30" on="0"/>
        <pt x="316" y="30" on="1"/>
        <pt x="352" y="30" on="0"/>
        <pt x="417" y="52" on="0"/>
        <pt x="466" y="105" on="0"/>
        <pt x="496" y="192" on="0"/>
        <pt x="496" y="258" on="1"/>
        <pt x="496" y="659" on="1"/>
        <pt x="506" y="659" on="1"/>
        <pt x="600" y="669" on="0"/>
        <pt x="600" y="728" on="1"/>
        <pt x="600" y="747" on="0"/>
        <pt x="586" y="767" on="1"/>
      </contour>
    </TTGlyph>
    <TTGlyph name="Uhorn.sc" xMin="95" yMin="-12" xMax="575" yMax="640">
      <contour>
        <pt x="556" y="640" on="1"/>
        <pt x="565" y="626" on="0"/>
        <pt x="575" y="599" on="0"/>
        <pt x="575" y="584" on="1"/>
        <pt x="575" y="561" on="0"/>
        <pt x="558" y="528" on="0"/>
        <pt x="530" y="505" on="0"/>
        <pt x="494" y="490" on="0"/>
        <pt x="474" y="486" on="1"/>
        <pt x="474" y="198" on="1"/>
        <pt x="474" y="137" on="0"/>
        <pt x="442" y="56" on="0"/>
        <pt x="390" y="8" on="0"/>
        <pt x="322" y="-12" on="0"/>
        <pt x="285" y="-12" on="1"/>
        <pt x="248" y="-12" on="0"/>
        <pt x="179" y="8" on="0"/>
        <pt x="127" y="56" on="0"/>
        <pt x="95" y="137" on="0"/>
        <pt x="95" y="198" on="1"/>
        <pt x="95" y="512" on="1"/>
        <pt x="141" y="512" on="1"/>
        <pt x="141" y="203" on="1"/>
        <pt x="141" y="152" on="0"/>
        <pt x="164" y="85" on="0"/>
        <pt x="203" y="45" on="0"/>
        <pt x="256" y="29" on="0"/>
        <pt x="285" y="29" on="1"/>
        <pt x="314" y="29" on="0"/>
        <pt x="367" y="45" on="0"/>
        <pt x="407" y="85" on="0"/>
        <pt x="431" y="152" on="0"/>
        <pt x="431" y="203" on="1"/>
        <pt x="431" y="512" on="1"/>
        <pt x="441" y="512" on="1"/>
        <pt x="535" y="522" on="0"/>
        <pt x="535" y="581" on="1"/>
        <pt x="535" y="602" on="0"/>
        <pt x="521" y="620" on="1"/>
      </contour>
    </TTGlyph>
    <TTGlyph name="Uhungarumlaut" xMin="95" yMin="-12" xMax="539" yMax="815">
      <component glyphName="U" x="0" y="0" flags="0x204"/>
      <component glyphName="uni030B.cap" x="317" y="0" flags="0x4"/>
    </TTGlyph>
    <TTGlyph name="Uhungarumlaut.sc" xMin="95" yMin="-12" xMax="474" yMax="697">
      <component glyphName="U.sc" x="0" y="0" flags="0x204"/>
      <component glyphName="uni030B.cap" x="284" y="-118" flags="0x4"/>
    </TTGlyph>
    <TTGlyph name="Umacron" xMin="95" yMin="-12" xMax="539" yMax="770">
      <component glyphName="U" x="0" y="0" flags="0x204"/>
      <component glyphName="uni0304.cap" x="317" y="0" flags="0x4"/>
    </TTGlyph>
    <TTGlyph name="Umacron.sc" xMin="95" yMin="-12" xMax="474" yMax="652">
      <component glyphName="U.sc" x="0" y="0" flags="0x204"/>
      <component glyphName="uni0304.cap" x="284" y="-118" flags="0x4"/>
    </TTGlyph>
    <TTGlyph name="Uogonek" xMin="95" yMin="-205" xMax="539" yMax="659">
      <contour>
        <pt x="95" y="659" on="1"/>
        <pt x="141" y="659" on="1"/>
        <pt x="141" y="258" on="1"/>
        <pt x="141" y="192" on="0"/>
        <pt x="170" y="105" on="0"/>
        <pt x="218" y="52" on="0"/>
        <pt x="281" y="30" on="0"/>
        <pt x="316" y="30" on="1"/>
        <pt x="352" y="30" on="0"/>
        <pt x="417" y="52" on="0"/>
        <pt x="466" y="105" on="0"/>
        <pt x="496" y="192" on="0"/>
        <pt x="496" y="258" on="1"/>
        <pt x="496" y="659" on="1"/>
        <pt x="539" y="659" on="1"/>
        <pt x="539" y="253" on="1"/>
        <pt x="539" y="188" on="0"/>
        <pt x="514" y="102" on="0"/>
        <pt x="471" y="44" on="0"/>
        <pt x="415" y="7" on="0"/>
        <pt x="385" y="-8" on="1"/>
        <pt x="345" y="-28" on="0"/>
        <pt x="301" y="-90" on="0"/>
        <pt x="301" y="-116" on="1"/>
        <pt x="301" y="-142" on="0"/>
        <pt x="332" y="-168" on="0"/>
        <pt x="352" y="-168" on="1"/>
        <pt x="375" y="-168" on="0"/>
        <pt x="395" y="-154" on="1"/>
        <pt x="411" y="-181" on="1"/>
        <pt x="400" y="-191" on="0"/>
        <pt x="362" y="-205" on="0"/>
        <pt x="346" y="-205" on="1"/>
        <pt x="311" y="-205" on="0"/>
        <pt x="261" y="-165" on="0"/>
        <pt x="261" y="-123" on="1"/>
        <pt x="261" y="-104" on="0"/>
        <pt x="273" y="-72" on="0"/>
        <pt x="291" y="-46" on="0"/>
        <pt x="314" y="-23" on="0"/>
        <pt x="325" y="-12" on="1"/>
        <pt x="277" y="-12" on="0"/>
        <pt x="193" y="14" on="0"/>
        <pt x="131" y="76" on="0"/>
        <pt x="95" y="178" on="0"/>
        <pt x="95" y="253" on="1"/>
      </contour>
    </TTGlyph>
    <TTGlyph name="Uogonek.sc" xMin="95" yMin="-205" xMax="474" yMax="512">
      <contour>
        <pt x="474" y="198" on="1"/>
        <pt x="474" y="147" on="0"/>
        <pt x="454" y="79" on="0"/>
        <pt x="421" y="33" on="0"/>
        <pt x="378" y="4" on="0"/>
        <pt x="355" y="-8" on="1"/>
        <pt x="315" y="-28" on="0"/>
        <pt x="271" y="-90" on="0"/>
        <pt x="271" y="-116" on="1"/>
        <pt x="271" y="-142" on="0"/>
        <pt x="302" y="-168" on="0"/>
        <pt x="322" y="-168" on="1"/>
        <pt x="345" y="-168" on="0"/>
        <pt x="365" y="-154" on="1"/>
        <pt x="381" y="-181" on="1"/>
        <pt x="370" y="-191" on="0"/>
        <pt x="333" y="-205" on="0"/>
        <pt x="316" y="-205" on="1"/>
        <pt x="281" y="-205" on="0"/>
        <pt x="232" y="-165" on="0"/>
        <pt x="232" y="-123" on="1"/>
        <pt x="232" y="-104" on="0"/>
        <pt x="243" y="-72" on="0"/>
        <pt x="261" y="-46" on="0"/>
        <pt x="284" y="-23" on="0"/>
        <pt x="296" y="-12" on="1"/>
        <pt x="254" y="-12" on="0"/>
        <pt x="180" y="8" on="0"/>
        <pt x="126" y="57" on="0"/>
        <pt x="95" y="138" on="0"/>
        <pt x="95" y="198" on="1"/>
        <pt x="95" y="512" on="1"/>
        <pt x="141" y="512" on="1"/>
        <pt x="141" y="203" on="1"/>
        <pt x="141" y="152" on="0"/>
        <pt x="164" y="85" on="0"/>
        <pt x="203" y="45" on="0"/>
        <pt x="256" y="29" on="0"/>
        <pt x="285" y="29" on="1"/>
        <pt x="314" y="29" on="0"/>
        <pt x="367" y="45" on="0"/>
        <pt x="407" y="85" on="0"/>
        <pt x="431" y="152" on="0"/>
        <pt x="431" y="203" on="1"/>
        <pt x="431" y="512" on="1"/>
        <pt x="474" y="512" on="1"/>
      </contour>
    </TTGlyph>
    <TTGlyph name="Uring" xMin="95" yMin="-12" xMax="539" yMax="864">
      <component glyphName="U" x="0" y="0" flags="0x204"/>
      <component glyphName="uni030A.cap" x="317" y="0" flags="0x4"/>
    </TTGlyph>
    <TTGlyph name="Uring.sc" xMin="95" yMin="-12" xMax="474" yMax="746">
      <component glyphName="U.sc" x="0" y="0" flags="0x204"/>
      <component glyphName="uni030A.cap" x="284" y="-118" flags="0x4"/>
    </TTGlyph>
    <TTGlyph name="Utilde" xMin="95" yMin="-12" xMax="539" yMax="808">
      <component glyphName="U" x="0" y="0" flags="0x204"/>
      <component glyphName="uni0303.cap" x="317" y="0" flags="0x4"/>
    </TTGlyph>
    <TTGlyph name="Utilde.sc" xMin="95" yMin="-12" xMax="474" yMax="690">
      <component glyphName="U.sc" x="0" y="0" flags="0x204"/>
      <component glyphName="uni0303.cap" x="284" y="-118" flags="0x4"/>
    </TTGlyph>
    <TTGlyph name="V" xMin="4" yMin="0" xMax="487" yMax="659">
      <contour>
        <pt x="4" y="659" on="1"/>
        <pt x="53" y="659" on="1"/>
        <pt x="175" y="274" on="1"/>
        <pt x="194" y="214" on="0"/>
        <pt x="225" y="113" on="0"/>
        <pt x="245" y="53" on="1"/>
        <pt x="249" y="53" on="1"/>
        <pt x="259" y="83" on="0"/>
        <pt x="276" y="137" on="0"/>
        <pt x="292" y="190" on="0"/>
        <pt x="309" y="244" on="0"/>
        <pt x="318" y="274" on="1"/>
        <pt x="440" y="659" on="1"/>
        <pt x="487" y="659" on="1"/>
        <pt x="271" y="0" on="1"/>
        <pt x="222" y="0" on="1"/>
      </contour>
    </TTGlyph>
    <TTGlyph name="V.sc" xMin="4" yMin="0" xMax="416" yMax="512">
      <contour>
        <pt x="4" y="512" on="1"/>
        <pt x="53" y="512" on="1"/>
        <pt x="152" y="222" on="1"/>
        <pt x="168" y="175" on="0"/>
        <pt x="195" y="96" on="0"/>
        <pt x="211" y="50" on="1"/>
        <pt x="215" y="50" on="1"/>
        <pt x="231" y="96" on="0"/>
        <pt x="256" y="175" on="0"/>
        <pt x="272" y="222" on="1"/>
        <pt x="370" y="512" on="1"/>
        <pt x="416" y="512" on="1"/>
        <pt x="236" y="0" on="1"/>
        <pt x="187" y="0" on="1"/>
      </contour>
    </TTGlyph>
    <TTGlyph name="V.sups" xMin="0" yMin="269" xMax="328" yMax="701">
      <contour>
        <pt x="0" y="701" on="1"/>
        <pt x="41" y="701" on="1"/>
        <pt x="119" y="456" on="1"/>
        <pt x="132" y="417" on="0"/>
        <pt x="151" y="350" on="0"/>
        <pt x="165" y="312" on="1"/>
        <pt x="168" y="312" on="1"/>
        <pt x="181" y="350" on="0"/>
        <pt x="199" y="417" on="0"/>
        <pt x="211" y="456" on="1"/>
        <pt x="288" y="701" on="1"/>
        <pt x="328" y="701" on="1"/>
        <pt x="186" y="269" on="1"/>
        <pt x="144" y="269" on="1"/>
      </contour>
    </TTGlyph>
    <TTGlyph name="W" xMin="28" yMin="0" xMax="740" yMax="659">
      <contour>
        <pt x="28" y="659" on="1"/>
        <pt x="76" y="659" on="1"/>
        <pt x="159" y="271" on="1"/>
        <pt x="170" y="217" on="0"/>
        <pt x="193" y="110" on="0"/>
        <pt x="204" y="56" on="1"/>
        <pt x="208" y="56" on="1"/>
        <pt x="220" y="110" on="0"/>
        <pt x="245" y="217" on="0"/>
        <pt x="259" y="271" on="1"/>
        <pt x="362" y="659" on="1"/>
        <pt x="409" y="659" on="1"/>
        <pt x="512" y="271" on="1"/>
        <pt x="526" y="217" on="0"/>
        <pt x="551" y="110" on="0"/>
        <pt x="565" y="56" on="1"/>
        <pt x="569" y="56" on="1"/>
        <pt x="580" y="110" on="0"/>
        <pt x="601" y="217" on="0"/>
        <pt x="612" y="271" on="1"/>
        <pt x="695" y="659" on="1"/>
        <pt x="740" y="659" on="1"/>
        <pt x="593" y="0" on="1"/>
        <pt x="542" y="0" on="1"/>
        <pt x="422" y="452" on="1"/>
        <pt x="413" y="491" on="0"/>
        <pt x="395" y="562" on="0"/>
        <pt x="387" y="601" on="1"/>
        <pt x="383" y="601" on="1"/>
        <pt x="375" y="562" on="0"/>
        <pt x="355" y="491" on="0"/>
        <pt x="346" y="452" on="1"/>
        <pt x="228" y="0" on="1"/>
        <pt x="178" y="0" on="1"/>
      </contour>
    </TTGlyph>
    <TTGlyph name="W.sc" xMin="28" yMin="0" xMax="635" yMax="512">
      <contour>
        <pt x="28" y="512" on="1"/>
        <pt x="75" y="512" on="1"/>
        <pt x="142" y="219" on="1"/>
        <pt x="151" y="177" on="0"/>
        <pt x="170" y="94" on="0"/>
        <pt x="180" y="52" on="1"/>
        <pt x="183" y="52" on="1"/>
        <pt x="193" y="94" on="0"/>
        <pt x="215" y="177" on="0"/>
        <pt x="226" y="219" on="1"/>
        <pt x="311" y="512" on="1"/>
        <pt x="355" y="512" on="1"/>
        <pt x="439" y="219" on="1"/>
        <pt x="450" y="177" on="0"/>
        <pt x="472" y="94" on="0"/>
        <pt x="484" y="52" on="1"/>
        <pt x="488" y="52" on="1"/>
        <pt x="497" y="94" on="0"/>
        <pt x="514" y="177" on="0"/>
        <pt x="524" y="219" on="1"/>
        <pt x="591" y="512" on="1"/>
        <pt x="635" y="512" on="1"/>
        <pt x="511" y="0" on="1"/>
        <pt x="462" y="0" on="1"/>
        <pt x="363" y="338" on="1"/>
        <pt x="355" y="369" on="0"/>
        <pt x="341" y="424" on="0"/>
        <pt x="334" y="454" on="1"/>
        <pt x="330" y="454" on="1"/>
        <pt x="322" y="424" on="0"/>
        <pt x="308" y="369" on="0"/>
        <pt x="300" y="338" on="1"/>
        <pt x="203" y="0" on="1"/>
        <pt x="153" y="0" on="1"/>
      </contour>
    </TTGlyph>
    <TTGlyph name="W.sups" xMin="16" yMin="269" xMax="496" yMax="701">
      <contour>
        <pt x="16" y="701" on="1"/>
        <pt x="56" y="701" on="1"/>
        <pt x="109" y="454" on="1"/>
        <pt x="117" y="418" on="0"/>
        <pt x="130" y="348" on="0"/>
        <pt x="136" y="313" on="1"/>
        <pt x="139" y="313" on="1"/>
        <pt x="147" y="348" on="0"/>
        <pt x="163" y="418" on="0"/>
        <pt x="172" y="454" on="1"/>
        <pt x="238" y="701" on="1"/>
        <pt x="275" y="701" on="1"/>
        <pt x="342" y="454" on="1"/>
        <pt x="351" y="419" on="0"/>
        <pt x="367" y="348" on="0"/>
        <pt x="376" y="313" on="1"/>
        <pt x="379" y="313" on="1"/>
        <pt x="386" y="348" on="0"/>
        <pt x="398" y="418" on="0"/>
        <pt x="406" y="454" on="1"/>
        <pt x="459" y="701" on="1"/>
        <pt x="496" y="701" on="1"/>
        <pt x="399" y="269" on="1"/>
        <pt x="356" y="269" on="1"/>
        <pt x="280" y="554" on="1"/>
        <pt x="273" y="579" on="0"/>
        <pt x="263" y="625" on="0"/>
        <pt x="258" y="651" on="1"/>
        <pt x="255" y="651" on="1"/>
        <pt x="249" y="625" on="0"/>
        <pt x="238" y="579" on="0"/>
        <pt x="231" y="554" on="1"/>
        <pt x="157" y="269" on="1"/>
        <pt x="114" y="269" on="1"/>
      </contour>
    </TTGlyph>
    <TTGlyph name="Wacute" xMin="28" yMin="0" xMax="740" yMax="815">
      <component glyphName="W" x="0" y="0" flags="0x204"/>
      <component glyphName="uni0301.cap" x="385" y="0" flags="0x4"/>
    </TTGlyph>
    <TTGlyph name="Wacute.sc" xMin="28" yMin="0" xMax="635" yMax="697">
      <component glyphName="W.sc" x="0" y="0" flags="0x204"/>
      <component glyphName="uni0301.cap" x="332" y="-118" flags="0x4"/>
    </TTGlyph>
    <TTGlyph name="Wcircumflex" xMin="28" yMin="0" xMax="740" yMax="815">
      <component glyphName="W" x="0" y="0" flags="0x204"/>
      <component glyphName="uni0302.cap" x="385" y="0" flags="0x4"/>
    </TTGlyph>
    <TTGlyph name="Wcircumflex.sc" xMin="28" yMin="0" xMax="635" yMax="697">
      <component glyphName="W.sc" x="0" y="0" flags="0x204"/>
      <component glyphName="uni0302.cap" x="332" y="-118" flags="0x4"/>
    </TTGlyph>
    <TTGlyph name="Wdieresis" xMin="28" yMin="0" xMax="740" yMax="798">
      <component glyphName="W" x="0" y="0" flags="0x204"/>
      <component glyphName="uni0308.cap" x="385" y="0" flags="0x4"/>
    </TTGlyph>
    <TTGlyph name="Wdieresis.sc" xMin="28" yMin="0" xMax="635" yMax="680">
      <component glyphName="W.sc" x="0" y="0" flags="0x204"/>
      <component glyphName="uni0308.cap" x="332" y="-118" flags="0x4"/>
    </TTGlyph>
    <TTGlyph name="Wgrave" xMin="28" yMin="0" xMax="740" yMax="815">
      <component glyphName="W" x="0" y="0" flags="0x204"/>
      <component glyphName="uni0300.cap" x="385" y="0" flags="0x4"/>
    </TTGlyph>
    <TTGlyph name="Wgrave.sc" xMin="28" yMin="0" xMax="635" yMax="697">
      <component glyphName="W.sc" x="0" y="0" flags="0x204"/>
      <component glyphName="uni0300.cap" x="332" y="-118" flags="0x4"/>
    </TTGlyph>
    <TTGlyph name="X" xMin="17" yMin="0" xMax="465" yMax="659">
      <contour>
        <pt x="215" y="341" on="1"/>
        <pt x="31" y="659" on="1"/>
        <pt x="81" y="659" on="1"/>
        <pt x="189" y="465" on="1"/>
        <pt x="203" y="442" on="0"/>
        <pt x="226" y="402" on="0"/>
        <pt x="243" y="375" on="1"/>
        <pt x="247" y="375" on="1"/>
        <pt x="261" y="402" on="0"/>
        <pt x="282" y="442" on="0"/>
        <pt x="296" y="465" on="1"/>
        <pt x="404" y="659" on="1"/>
        <pt x="451" y="659" on="1"/>
        <pt x="267" y="339" on="1"/>
        <pt x="465" y="0" on="1"/>
        <pt x="415" y="0" on="1"/>
        <pt x="300" y="202" on="1"/>
        <pt x="286" y="227" on="0"/>
        <pt x="257" y="277" on="0"/>
        <pt x="239" y="307" on="1"/>
        <pt x="235" y="307" on="1"/>
        <pt x="219" y="277" on="0"/>
        <pt x="193" y="227" on="0"/>
        <pt x="179" y="202" on="1"/>
        <pt x="64" y="0" on="1"/>
        <pt x="17" y="0" on="1"/>
      </contour>
    </TTGlyph>
    <TTGlyph name="X.sc" xMin="17" yMin="0" xMax="403" yMax="512">
      <contour>
        <pt x="183" y="265" on="1"/>
        <pt x="29" y="512" on="1"/>
        <pt x="78" y="512" on="1"/>
        <pt x="167" y="368" on="1"/>
        <pt x="178" y="351" on="0"/>
        <pt x="197" y="318" on="0"/>
        <pt x="211" y="296" on="1"/>
        <pt x="215" y="296" on="1"/>
        <pt x="226" y="318" on="0"/>
        <pt x="246" y="351" on="0"/>
        <pt x="256" y="368" on="1"/>
        <pt x="343" y="512" on="1"/>
        <pt x="391" y="512" on="1"/>
        <pt x="237" y="262" on="1"/>
        <pt x="403" y="0" on="1"/>
        <pt x="353" y="0" on="1"/>
        <pt x="259" y="151" on="1"/>
        <pt x="248" y="170" on="0"/>
        <pt x="224" y="209" on="0"/>
        <pt x="210" y="232" on="1"/>
        <pt x="206" y="232" on="1"/>
        <pt x="192" y="209" on="0"/>
        <pt x="169" y="170" on="0"/>
        <pt x="158" y="151" on="1"/>
        <pt x="65" y="0" on="1"/>
        <pt x="17" y="0" on="1"/>
      </contour>
    </TTGlyph>
    <TTGlyph name="X.sups" xMin="9" yMin="269" xMax="314" yMax="701">
      <contour>
        <pt x="139" y="493" on="1"/>
        <pt x="18" y="701" on="1"/>
        <pt x="60" y="701" on="1"/>
        <pt x="127" y="579" on="1"/>
        <pt x="136" y="564" on="0"/>
        <pt x="151" y="537" on="0"/>
        <pt x="162" y="520" on="1"/>
        <pt x="165" y="520" on="1"/>
        <pt x="175" y="537" on="0"/>
        <pt x="189" y="564" on="0"/>
        <pt x="197" y="579" on="1"/>
        <pt x="265" y="701" on="1"/>
        <pt x="305" y="701" on="1"/>
        <pt x="183" y="491" on="1"/>
        <pt x="314" y="269" on="1"/>
        <pt x="273" y="269" on="1"/>
        <pt x="201" y="397" on="1"/>
        <pt x="192" y="413" on="0"/>
        <pt x="173" y="445" on="0"/>
        <pt x="161" y="465" on="1"/>
        <pt x="158" y="465" on="1"/>
        <pt x="148" y="445" on="0"/>
        <pt x="130" y="413" on="0"/>
        <pt x="121" y="397" on="1"/>
        <pt x="49" y="269" on="1"/>
        <pt x="9" y="269" on="1"/>
      </contour>
    </TTGlyph>
    <TTGlyph name="Y" xMin="3" yMin="0" xMax="444" yMax="659">
      <contour>
        <pt x="200" y="267" on="1"/>
        <pt x="3" y="659" on="1"/>
        <pt x="52" y="659" on="1"/>
        <pt x="152" y="453" on="1"/>
        <pt x="169" y="417" on="0"/>
        <pt x="202" y="347" on="0"/>
        <pt x="222" y="311" on="1"/>
        <pt x="226" y="311" on="1"/>
        <pt x="245" y="347" on="0"/>
        <pt x="281" y="417" on="0"/>
        <pt x="297" y="453" on="1"/>
        <pt x="397" y="659" on="1"/>
        <pt x="444" y="659" on="1"/>
        <pt x="246" y="267" on="1"/>
        <pt x="246" y="0" on="1"/>
        <pt x="200" y="0" on="1"/>
      </contour>
    </TTGlyph>
    <TTGlyph name="Y.sc" xMin="3" yMin="0" xMax="382" yMax="512">
      <contour>
        <pt x="169" y="205" on="1"/>
        <pt x="3" y="512" on="1"/>
        <pt x="51" y="512" on="1"/>
        <pt x="132" y="358" on="1"/>
        <pt x="146" y="329" on="0"/>
        <pt x="176" y="276" on="0"/>
        <pt x="192" y="248" on="1"/>
        <pt x="196" y="248" on="1"/>
        <pt x="211" y="276" on="0"/>
        <pt x="240" y="329" on="0"/>
        <pt x="254" y="358" on="1"/>
        <pt x="334" y="512" on="1"/>
        <pt x="382" y="512" on="1"/>
        <pt x="215" y="205" on="1"/>
        <pt x="215" y="0" on="1"/>
        <pt x="169" y="0" on="1"/>
      </contour>
    </TTGlyph>
    <TTGlyph name="Y.sups" xMin="-2" yMin="269" xMax="301" yMax="701">
      <contour>
        <pt x="130" y="442" on="1"/>
        <pt x="-2" y="701" on="1"/>
        <pt x="39" y="701" on="1"/>
        <pt x="103" y="570" on="1"/>
        <pt x="114" y="546" on="0"/>
        <pt x="137" y="501" on="0"/>
        <pt x="149" y="477" on="1"/>
        <pt x="152" y="477" on="1"/>
        <pt x="164" y="501" on="0"/>
        <pt x="187" y="546" on="0"/>
        <pt x="198" y="570" on="1"/>
        <pt x="261" y="701" on="1"/>
        <pt x="301" y="701" on="1"/>
        <pt x="169" y="442" on="1"/>
        <pt x="169" y="269" on="1"/>
        <pt x="130" y="269" on="1"/>
      </contour>
    </TTGlyph>
    <TTGlyph name="Yacute" xMin="3" yMin="0" xMax="444" yMax="815">
      <component glyphName="Y" x="0" y="0" flags="0x204"/>
      <component glyphName="uni0301.cap" x="223" y="0" flags="0x4"/>
    </TTGlyph>
    <TTGlyph name="Yacute.sc" xMin="3" yMin="0" xMax="382" yMax="697">
      <component glyphName="Y.sc" x="0" y="0" flags="0x204"/>
      <component glyphName="uni0301.cap" x="194" y="-118" flags="0x4"/>
    </TTGlyph>
    <TTGlyph name="Ycircumflex" xMin="3" yMin="0" xMax="444" yMax="815">
      <component glyphName="Y" x="0" y="0" flags="0x204"/>
      <component glyphName="uni0302.cap" x="223" y="0" flags="0x4"/>
    </TTGlyph>
    <TTGlyph name="Ycircumflex.sc" xMin="3" yMin="0" xMax="382" yMax="697">
      <component glyphName="Y.sc" x="0" y="0" flags="0x204"/>
      <component glyphName="uni0302.cap" x="194" y="-118" flags="0x4"/>
    </TTGlyph>
    <TTGlyph name="Ydieresis" xMin="3" yMin="0" xMax="444" yMax="798">
      <component glyphName="Y" x="0" y="0" flags="0x204"/>
      <component glyphName="uni0308.cap" x="223" y="0" flags="0x4"/>
    </TTGlyph>
    <TTGlyph name="Ydieresis.sc" xMin="3" yMin="0" xMax="382" yMax="680">
      <component glyphName="Y.sc" x="0" y="0" flags="0x204"/>
      <component glyphName="uni0308.cap" x="194" y="-118" flags="0x4"/>
    </TTGlyph>
    <TTGlyph name="Ygrave" xMin="3" yMin="0" xMax="444" yMax="815">
      <component glyphName="Y" x="0" y="0" flags="0x204"/>
      <component glyphName="uni0300.cap" x="223" y="0" flags="0x4"/>
    </TTGlyph>
    <TTGlyph name="Ygrave.sc" xMin="3" yMin="0" xMax="382" yMax="697">
      <component glyphName="Y.sc" x="0" y="0" flags="0x204"/>
      <component glyphName="uni0300.cap" x="194" y="-118" flags="0x4"/>
    </TTGlyph>
    <TTGlyph name="Z" xMin="50" yMin="0" xMax="490" yMax="659">
      <contour>
        <pt x="50" y="27" on="1"/>
        <pt x="429" y="619" on="1"/>
        <pt x="83" y="619" on="1"/>
        <pt x="83" y="659" on="1"/>
        <pt x="487" y="659" on="1"/>
        <pt x="487" y="632" on="1"/>
        <pt x="107" y="40" on="1"/>
        <pt x="490" y="40" on="1"/>
        <pt x="490" y="0" on="1"/>
        <pt x="50" y="0" on="1"/>
      </contour>
    </TTGlyph>
    <TTGlyph name="Z.sc" xMin="50" yMin="0" xMax="424" yMax="512">
      <contour>
        <pt x="50" y="26" on="1"/>
        <pt x="364" y="474" on="1"/>
        <pt x="77" y="474" on="1"/>
        <pt x="77" y="512" on="1"/>
        <pt x="420" y="512" on="1"/>
        <pt x="420" y="486" on="1"/>
        <pt x="107" y="38" on="1"/>
        <pt x="424" y="38" on="1"/>
        <pt x="424" y="0" on="1"/>
        <pt x="50" y="0" on="1"/>
      </contour>
    </TTGlyph>
    <TTGlyph name="Z.sups" xMin="30" yMin="269" xMax="326" yMax="701">
      <contour>
        <pt x="30" y="292" on="1"/>
        <pt x="276" y="669" on="1"/>
        <pt x="51" y="669" on="1"/>
        <pt x="51" y="701" on="1"/>
        <pt x="323" y="701" on="1"/>
        <pt x="323" y="678" on="1"/>
        <pt x="77" y="301" on="1"/>
        <pt x="326" y="301" on="1"/>
        <pt x="326" y="269" on="1"/>
        <pt x="30" y="269" on="1"/>
      </contour>
    </TTGlyph>
    <TTGlyph name="Zacute" xMin="50" yMin="0" xMax="490" yMax="815">
      <component glyphName="Z" x="0" y="0" flags="0x204"/>
      <component glyphName="uni0301.cap" x="279" y="0" flags="0x4"/>
    </TTGlyph>
    <TTGlyph name="Zacute.sc" xMin="50" yMin="0" xMax="424" yMax="697">
      <component glyphName="Z.sc" x="0" y="0" flags="0x204"/>
      <component glyphName="uni0301.cap" x="248" y="-118" flags="0x4"/>
    </TTGlyph>
    <TTGlyph name="Zcaron" xMin="50" yMin="0" xMax="490" yMax="815">
      <component glyphName="Z" x="0" y="0" flags="0x204"/>
      <component glyphName="uni030C.cap" x="279" y="0" flags="0x4"/>
    </TTGlyph>
    <TTGlyph name="Zcaron.sc" xMin="50" yMin="0" xMax="424" yMax="697">
      <component glyphName="Z.sc" x="0" y="0" flags="0x204"/>
      <component glyphName="uni030C.cap" x="248" y="-118" flags="0x4"/>
    </TTGlyph>
    <TTGlyph name="Zdotaccent" xMin="50" yMin="0" xMax="490" yMax="801">
      <component glyphName="Z" x="0" y="0" flags="0x204"/>
      <component glyphName="uni0307.cap" x="279" y="0" flags="0x4"/>
    </TTGlyph>
    <TTGlyph name="Zdotaccent.sc" xMin="50" yMin="0" xMax="424" yMax="683">
      <component glyphName="Z.sc" x="0" y="0" flags="0x204"/>
      <component glyphName="uni0307.cap" x="248" y="-118" flags="0x4"/>
    </TTGlyph>
    <TTGlyph name="a" xMin="65" yMin="-12" xMax="419" yMax="492">
      <contour>
        <pt x="65" y="120" on="1"/>
        <pt x="65" y="199" on="0"/>
        <pt x="215" y="283" on="0"/>
        <pt x="375" y="301" on="1"/>
        <pt x="376" y="328" on="0"/>
        <pt x="367" y="383" on="0"/>
        <pt x="342" y="426" on="0"/>
        <pt x="297" y="453" on="0"/>
        <pt x="262" y="453" on="1"/>
        <pt x="213" y="453" on="0"/>
        <pt x="133" y="415" on="0"/>
        <pt x="109" y="397" on="1"/>
        <pt x="89" y="430" on="1"/>
        <pt x="102" y="439" on="0"/>
        <pt x="139" y="461" on="0"/>
        <pt x="184" y="479" on="0"/>
        <pt x="238" y="492" on="0"/>
        <pt x="267" y="492" on="1"/>
        <pt x="310" y="492" on="0"/>
        <pt x="368" y="463" on="0"/>
        <pt x="404" y="413" on="0"/>
        <pt x="419" y="346" on="0"/>
        <pt x="419" y="307" on="1"/>
        <pt x="419" y="0" on="1"/>
        <pt x="382" y="0" on="1"/>
        <pt x="377" y="62" on="1"/>
        <pt x="375" y="62" on="1"/>
        <pt x="338" y="33" on="0"/>
        <pt x="253" y="-12" on="0"/>
        <pt x="205" y="-12" on="1"/>
        <pt x="176" y="-12" on="0"/>
        <pt x="126" y="4" on="0"/>
        <pt x="87" y="36" on="0"/>
        <pt x="65" y="86" on="0"/>
      </contour>
      <contour>
        <pt x="111" y="122" on="1"/>
        <pt x="111" y="70" on="0"/>
        <pt x="171" y="26" on="0"/>
        <pt x="212" y="26" on="1"/>
        <pt x="254" y="26" on="0"/>
        <pt x="330" y="66" on="0"/>
        <pt x="375" y="104" on="1"/>
        <pt x="375" y="267" on="1"/>
        <pt x="301" y="258" on="0"/>
        <pt x="200" y="232" on="0"/>
        <pt x="138" y="196" on="0"/>
        <pt x="111" y="150" on="0"/>
      </contour>
    </TTGlyph>
    <TTGlyph name="a.a" xMin="52" yMin="-12" xMax="452" yMax="492">
      <component glyphName="uni0251" x="0" y="0" flags="0x204"/>
    </TTGlyph>
    <TTGlyph name="a.supa" xMin="37" yMin="261" xMax="309" yMax="595">
      <contour>
        <pt x="76" y="434" on="1"/>
        <pt x="76" y="369" on="0"/>
        <pt x="126" y="296" on="0"/>
        <pt x="180" y="296" on="1"/>
        <pt x="203" y="296" on="0"/>
        <pt x="246" y="320" on="0"/>
        <pt x="272" y="343" on="1"/>
        <pt x="272" y="522" on="1"/>
        <pt x="248" y="544" on="0"/>
        <pt x="201" y="562" on="0"/>
        <pt x="179" y="562" on="1"/>
        <pt x="158" y="562" on="0"/>
        <pt x="121" y="543" on="0"/>
        <pt x="92" y="508" on="0"/>
        <pt x="76" y="461" on="0"/>
      </contour>
      <contour>
        <pt x="37" y="432" on="1"/>
        <pt x="37" y="469" on="0"/>
        <pt x="60" y="530" on="0"/>
        <pt x="99" y="572" on="0"/>
        <pt x="150" y="595" on="0"/>
        <pt x="178" y="595" on="1"/>
        <pt x="205" y="595" on="0"/>
        <pt x="251" y="575" on="0"/>
        <pt x="271" y="556" on="1"/>
        <pt x="275" y="556" on="1"/>
        <pt x="280" y="587" on="1"/>
        <pt x="309" y="587" on="1"/>
        <pt x="309" y="269" on="1"/>
        <pt x="278" y="269" on="1"/>
        <pt x="273" y="306" on="1"/>
        <pt x="269" y="306" on="1"/>
        <pt x="249" y="288" on="0"/>
        <pt x="204" y="261" on="0"/>
        <pt x="174" y="261" on="1"/>
        <pt x="110" y="261" on="0"/>
        <pt x="37" y="350" on="0"/>
      </contour>
    </TTGlyph>
    <TTGlyph name="a.sups" xMin="42" yMin="261" xMax="285" yMax="595">
      <contour>
        <pt x="139" y="261" on="1"/>
        <pt x="96" y="261" on="0"/>
        <pt x="42" y="309" on="0"/>
        <pt x="42" y="352" on="1"/>
        <pt x="42" y="405" on="0"/>
        <pt x="140" y="460" on="0"/>
        <pt x="248" y="470" on="1"/>
        <pt x="248" y="489" on="0"/>
        <pt x="241" y="523" on="0"/>
        <pt x="225" y="548" on="0"/>
        <pt x="199" y="562" on="0"/>
        <pt x="178" y="562" on="1"/>
        <pt x="148" y="562" on="0"/>
        <pt x="88" y="537" on="0"/>
        <pt x="71" y="525" on="1"/>
        <pt x="56" y="552" on="1"/>
        <pt x="76" y="566" on="0"/>
        <pt x="143" y="595" on="0"/>
        <pt x="182" y="595" on="1"/>
        <pt x="240" y="595" on="0"/>
        <pt x="285" y="526" on="0"/>
        <pt x="285" y="469" on="1"/>
        <pt x="285" y="269" on="1"/>
        <pt x="255" y="269" on="1"/>
        <pt x="249" y="308" on="1"/>
        <pt x="245" y="308" on="1"/>
        <pt x="224" y="290" on="0"/>
        <pt x="171" y="261" on="0"/>
      </contour>
      <contour>
        <pt x="148" y="293" on="1"/>
        <pt x="195" y="293" on="0"/>
        <pt x="248" y="342" on="1"/>
        <pt x="248" y="444" on="1"/>
        <pt x="155" y="434" on="0"/>
        <pt x="81" y="389" on="0"/>
        <pt x="81" y="355" on="1"/>
        <pt x="81" y="323" on="0"/>
        <pt x="117" y="293" on="0"/>
      </contour>
    </TTGlyph>
    <TTGlyph name="aacute" xMin="65" yMin="-12" xMax="419" yMax="708">
      <component glyphName="a" x="0" y="0" flags="0x204"/>
      <component glyphName="uni0301" x="262" y="0" flags="0x4"/>
    </TTGlyph>
    <TTGlyph name="aacute.a" xMin="52" yMin="-12" xMax="452" yMax="708">
      <component glyphName="uni0251" x="0" y="0" flags="0x204"/>
      <component glyphName="uni0301" x="273" y="0" flags="0x4"/>
    </TTGlyph>
    <TTGlyph name="abreve" xMin="65" yMin="-12" xMax="419" yMax="695">
      <component glyphName="a" x="0" y="0" flags="0x204"/>
      <component glyphName="uni0306" x="262" y="0" flags="0x4"/>
    </TTGlyph>
    <TTGlyph name="abreve.a" xMin="52" yMin="-12" xMax="452" yMax="695">
      <component glyphName="uni0251" x="0" y="0" flags="0x204"/>
      <component glyphName="uni0306" x="273" y="0" flags="0x4"/>
    </TTGlyph>
    <TTGlyph name="acircumflex" xMin="65" yMin="-12" xMax="419" yMax="708">
      <component glyphName="a" x="0" y="0" flags="0x204"/>
      <component glyphName="uni0302" x="262" y="0" flags="0x4"/>
    </TTGlyph>
    <TTGlyph name="acircumflex.a" xMin="52" yMin="-12" xMax="452" yMax="708">
      <component glyphName="uni0251" x="0" y="0" flags="0x204"/>
      <component glyphName="uni0302" x="273" y="0" flags="0x4"/>
    </TTGlyph>
    <TTGlyph name="acute" xMin="211" yMin="572" xMax="355" yMax="708">
      <component glyphName="uni0301" x="267" y="0" flags="0x4"/>
    </TTGlyph>
    <TTGlyph name="adieresis" xMin="65" yMin="-12" xMax="419" yMax="671">
      <component glyphName="a" x="0" y="0" flags="0x204"/>
      <component glyphName="uni0308" x="262" y="0" flags="0x4"/>
    </TTGlyph>
    <TTGlyph name="adieresis.a" xMin="52" yMin="-12" xMax="452" yMax="671">
      <component glyphName="uni0251" x="0" y="0" flags="0x204"/>
      <component glyphName="uni0308" x="273" y="0" flags="0x4"/>
    </TTGlyph>
    <TTGlyph name="ae" xMin="65" yMin="-12" xMax="746" yMax="492">
      <contour>
        <pt x="111" y="122" on="1"/>
        <pt x="111" y="70" on="0"/>
        <pt x="171" y="26" on="0"/>
        <pt x="212" y="26" on="1"/>
        <pt x="231" y="26" on="0"/>
        <pt x="277" y="38" on="0"/>
        <pt x="324" y="62" on="0"/>
        <pt x="370" y="97" on="0"/>
        <pt x="391" y="119" on="1"/>
        <pt x="380" y="141" on="0"/>
        <pt x="370" y="206" on="0"/>
        <pt x="370" y="240" on="1"/>
        <pt x="369" y="267" on="1"/>
        <pt x="299" y="258" on="0"/>
        <pt x="201" y="232" on="0"/>
        <pt x="139" y="196" on="0"/>
        <pt x="111" y="150" on="0"/>
      </contour>
      <contour>
        <pt x="89" y="430" on="1"/>
        <pt x="102" y="439" on="0"/>
        <pt x="138" y="461" on="0"/>
        <pt x="183" y="479" on="0"/>
        <pt x="234" y="492" on="0"/>
        <pt x="261" y="492" on="1"/>
        <pt x="320" y="492" on="0"/>
        <pt x="389" y="427" on="0"/>
        <pt x="401" y="372" on="1"/>
        <pt x="427" y="427" on="0"/>
        <pt x="514" y="492" on="0"/>
        <pt x="568" y="492" on="1"/>
        <pt x="653" y="492" on="0"/>
        <pt x="746" y="376" on="0"/>
        <pt x="746" y="270" on="1"/>
        <pt x="746" y="261" on="0"/>
        <pt x="746" y="243" on="0"/>
        <pt x="744" y="234" on="1"/>
        <pt x="412" y="234" on="1"/>
        <pt x="412" y="189" on="0"/>
        <pt x="438" y="113" on="0"/>
        <pt x="484" y="58" on="0"/>
        <pt x="547" y="27" on="0"/>
        <pt x="583" y="27" on="1"/>
        <pt x="622" y="27" on="0"/>
        <pt x="681" y="50" on="0"/>
        <pt x="708" y="70" on="1"/>
        <pt x="727" y="35" on="1"/>
        <pt x="713" y="26" on="0"/>
        <pt x="683" y="10" on="0"/>
        <pt x="647" y="-4" on="0"/>
        <pt x="605" y="-12" on="0"/>
        <pt x="579" y="-12" on="1"/>
        <pt x="547" y="-12" on="0"/>
        <pt x="495" y="5" on="0"/>
        <pt x="453" y="33" on="0"/>
        <pt x="420" y="68" on="0"/>
        <pt x="407" y="87" on="1"/>
        <pt x="359" y="41" on="0"/>
        <pt x="250" y="-12" on="0"/>
        <pt x="205" y="-12" on="1"/>
        <pt x="176" y="-12" on="0"/>
        <pt x="126" y="4" on="0"/>
        <pt x="87" y="36" on="0"/>
        <pt x="65" y="85" on="0"/>
        <pt x="65" y="119" on="1"/>
        <pt x="65" y="199" on="0"/>
        <pt x="215" y="283" on="0"/>
        <pt x="370" y="301" on="1"/>
        <pt x="370" y="328" on="0"/>
        <pt x="362" y="383" on="0"/>
        <pt x="337" y="426" on="0"/>
        <pt x="292" y="453" on="0"/>
        <pt x="257" y="453" on="1"/>
        <pt x="212" y="453" on="0"/>
        <pt x="133" y="415" on="0"/>
        <pt x="109" y="397" on="1"/>
      </contour>
      <contour>
        <pt x="705" y="268" on="1"/>
        <pt x="705" y="361" on="0"/>
        <pt x="632" y="454" on="0"/>
        <pt x="567" y="454" on="1"/>
        <pt x="537" y="454" on="0"/>
        <pt x="484" y="427" on="0"/>
        <pt x="443" y="378" on="0"/>
        <pt x="416" y="309" on="0"/>
        <pt x="412" y="268" on="1"/>
      </contour>
    </TTGlyph>
    <TTGlyph name="agrave" xMin="65" yMin="-12" xMax="419" yMax="708">
      <component glyphName="a" x="0" y="0" flags="0x204"/>
      <component glyphName="uni0300" x="262" y="0" flags="0x4"/>
    </TTGlyph>
    <TTGlyph name="agrave.a" xMin="52" yMin="-12" xMax="452" yMax="708">
      <component glyphName="uni0251" x="0" y="0" flags="0x204"/>
      <component glyphName="uni0300" x="273" y="0" flags="0x4"/>
    </TTGlyph>
    <TTGlyph name="amacron" xMin="65" yMin="-12" xMax="419" yMax="642">
      <component glyphName="a" x="0" y="0" flags="0x204"/>
      <component glyphName="uni0304" x="262" y="0" flags="0x4"/>
    </TTGlyph>
    <TTGlyph name="amacron.a" xMin="52" yMin="-12" xMax="452" yMax="642">
      <component glyphName="uni0251" x="0" y="0" flags="0x204"/>
      <component glyphName="uni0304" x="273" y="0" flags="0x4"/>
    </TTGlyph>
    <TTGlyph name="ampersand" xMin="36" yMin="-12" xMax="562" yMax="671">
      <contour>
        <pt x="230" y="26" on="1"/>
        <pt x="271" y="26" on="0"/>
        <pt x="345" y="65" on="0"/>
        <pt x="376" y="97" on="1"/>
        <pt x="323" y="145" on="0"/>
        <pt x="224" y="265" on="0"/>
        <pt x="189" y="329" on="1"/>
        <pt x="167" y="312" on="0"/>
        <pt x="128" y="276" on="0"/>
        <pt x="98" y="237" on="0"/>
        <pt x="81" y="194" on="0"/>
        <pt x="81" y="170" on="1"/>
        <pt x="81" y="137" on="0"/>
        <pt x="105" y="84" on="0"/>
        <pt x="145" y="47" on="0"/>
        <pt x="200" y="26" on="0"/>
      </contour>
      <contour>
        <pt x="168" y="526" on="1"/>
        <pt x="168" y="493" on="0"/>
        <pt x="188" y="422" on="0"/>
        <pt x="205" y="386" on="1"/>
        <pt x="230" y="404" on="0"/>
        <pt x="276" y="440" on="0"/>
        <pt x="312" y="480" on="0"/>
        <pt x="333" y="523" on="0"/>
        <pt x="333" y="549" on="1"/>
        <pt x="333" y="565" on="0"/>
        <pt x="325" y="596" on="0"/>
        <pt x="308" y="620" on="0"/>
        <pt x="281" y="635" on="0"/>
        <pt x="261" y="635" on="1"/>
        <pt x="217" y="635" on="0"/>
        <pt x="168" y="571" on="0"/>
      </contour>
      <contour>
        <pt x="547" y="-12" on="1"/>
        <pt x="482" y="11" on="0"/>
        <pt x="406" y="71" on="1"/>
        <pt x="370" y="34" on="0"/>
        <pt x="282" y="-12" on="0"/>
        <pt x="226" y="-12" on="1"/>
        <pt x="187" y="-12" on="0"/>
        <pt x="117" y="13" on="0"/>
        <pt x="66" y="60" on="0"/>
        <pt x="36" y="126" on="0"/>
        <pt x="36" y="167" on="1"/>
        <pt x="36" y="200" on="0"/>
        <pt x="59" y="254" on="0"/>
        <pt x="96" y="301" on="0"/>
        <pt x="145" y="342" on="0"/>
        <pt x="171" y="361" on="1"/>
        <pt x="151" y="403" on="0"/>
        <pt x="127" y="486" on="0"/>
        <pt x="127" y="524" on="1"/>
        <pt x="127" y="556" on="0"/>
        <pt x="147" y="610" on="0"/>
        <pt x="183" y="649" on="0"/>
        <pt x="233" y="671" on="0"/>
        <pt x="263" y="671" on="1"/>
        <pt x="317" y="671" on="0"/>
        <pt x="373" y="603" on="0"/>
        <pt x="373" y="551" on="1"/>
        <pt x="373" y="519" on="0"/>
        <pt x="347" y="465" on="0"/>
        <pt x="304" y="418" on="0"/>
        <pt x="249" y="375" on="0"/>
        <pt x="221" y="354" on="1"/>
        <pt x="256" y="291" on="0"/>
        <pt x="353" y="173" on="0"/>
        <pt x="404" y="128" on="1"/>
        <pt x="439" y="173" on="0"/>
        <pt x="491" y="282" on="0"/>
        <pt x="508" y="345" on="1"/>
        <pt x="551" y="345" on="1"/>
        <pt x="531" y="277" on="0"/>
        <pt x="474" y="154" on="0"/>
        <pt x="434" y="103" on="1"/>
        <pt x="469" y="75" on="0"/>
        <pt x="533" y="38" on="0"/>
        <pt x="562" y="27" on="1"/>
      </contour>
    </TTGlyph>
    <TTGlyph name="ampersand.sc" xMin="36" yMin="-12" xMax="485" yMax="524">
      <contour>
        <pt x="80" y="133" on="1"/>
        <pt x="80" y="109" on="0"/>
        <pt x="99" y="69" on="0"/>
        <pt x="132" y="40" on="0"/>
        <pt x="177" y="25" on="0"/>
        <pt x="202" y="25" on="1"/>
        <pt x="234" y="25" on="0"/>
        <pt x="295" y="53" on="0"/>
        <pt x="321" y="76" on="1"/>
        <pt x="276" y="112" on="0"/>
        <pt x="195" y="203" on="0"/>
        <pt x="165" y="251" on="1"/>
        <pt x="130" y="225" on="0"/>
        <pt x="80" y="169" on="0"/>
      </contour>
      <contour>
        <pt x="150" y="405" on="1"/>
        <pt x="150" y="381" on="0"/>
        <pt x="166" y="328" on="0"/>
        <pt x="180" y="301" on="1"/>
        <pt x="201" y="314" on="0"/>
        <pt x="239" y="342" on="0"/>
        <pt x="268" y="371" on="0"/>
        <pt x="285" y="404" on="0"/>
        <pt x="285" y="423" on="1"/>
        <pt x="285" y="447" on="0"/>
        <pt x="260" y="488" on="0"/>
        <pt x="227" y="488" on="1"/>
        <pt x="192" y="488" on="0"/>
        <pt x="150" y="439" on="0"/>
      </contour>
      <contour>
        <pt x="472" y="-12" on="1"/>
        <pt x="445" y="-4" on="0"/>
        <pt x="383" y="28" on="0"/>
        <pt x="350" y="52" on="1"/>
        <pt x="320" y="23" on="0"/>
        <pt x="245" y="-12" on="0"/>
        <pt x="198" y="-12" on="1"/>
        <pt x="164" y="-12" on="0"/>
        <pt x="105" y="9" on="0"/>
        <pt x="61" y="46" on="0"/>
        <pt x="36" y="98" on="0"/>
        <pt x="36" y="130" on="1"/>
        <pt x="36" y="155" on="0"/>
        <pt x="55" y="198" on="0"/>
        <pt x="86" y="234" on="0"/>
        <pt x="126" y="265" on="0"/>
        <pt x="148" y="280" on="1"/>
        <pt x="131" y="312" on="0"/>
        <pt x="112" y="375" on="0"/>
        <pt x="112" y="404" on="1"/>
        <pt x="112" y="429" on="0"/>
        <pt x="129" y="472" on="0"/>
        <pt x="160" y="505" on="0"/>
        <pt x="203" y="524" on="0"/>
        <pt x="229" y="524" on="1"/>
        <pt x="276" y="524" on="0"/>
        <pt x="322" y="466" on="0"/>
        <pt x="322" y="424" on="1"/>
        <pt x="322" y="399" on="0"/>
        <pt x="300" y="358" on="0"/>
        <pt x="264" y="321" on="0"/>
        <pt x="219" y="288" on="0"/>
        <pt x="196" y="272" on="1"/>
        <pt x="225" y="225" on="0"/>
        <pt x="306" y="137" on="0"/>
        <pt x="349" y="104" on="1"/>
        <pt x="378" y="138" on="0"/>
        <pt x="421" y="221" on="0"/>
        <pt x="435" y="269" on="1"/>
        <pt x="476" y="269" on="1"/>
        <pt x="459" y="215" on="0"/>
        <pt x="412" y="121" on="0"/>
        <pt x="378" y="82" on="1"/>
        <pt x="407" y="62" on="0"/>
        <pt x="462" y="34" on="0"/>
        <pt x="485" y="26" on="1"/>
      </contour>
    </TTGlyph>
    <TTGlyph name="aogonek" xMin="65" yMin="-203" xMax="441" yMax="492">
      <contour>
        <pt x="111" y="122" on="1"/>
        <pt x="111" y="70" on="0"/>
        <pt x="171" y="26" on="0"/>
        <pt x="212" y="26" on="1"/>
        <pt x="254" y="26" on="0"/>
        <pt x="330" y="66" on="0"/>
        <pt x="375" y="104" on="1"/>
        <pt x="375" y="267" on="1"/>
        <pt x="301" y="258" on="0"/>
        <pt x="200" y="232" on="0"/>
        <pt x="138" y="196" on="0"/>
        <pt x="111" y="150" on="0"/>
      </contour>
      <contour>
        <pt x="65" y="119" on="1"/>
        <pt x="65" y="199" on="0"/>
        <pt x="215" y="283" on="0"/>
        <pt x="375" y="301" on="1"/>
        <pt x="376" y="328" on="0"/>
        <pt x="367" y="383" on="0"/>
        <pt x="342" y="426" on="0"/>
        <pt x="297" y="453" on="0"/>
        <pt x="262" y="453" on="1"/>
        <pt x="213" y="453" on="0"/>
        <pt x="133" y="415" on="0"/>
        <pt x="109" y="397" on="1"/>
        <pt x="89" y="430" on="1"/>
        <pt x="102" y="439" on="0"/>
        <pt x="139" y="461" on="0"/>
        <pt x="184" y="479" on="0"/>
        <pt x="238" y="492" on="0"/>
        <pt x="267" y="492" on="1"/>
        <pt x="310" y="492" on="0"/>
        <pt x="368" y="463" on="0"/>
        <pt x="404" y="413" on="0"/>
        <pt x="419" y="346" on="0"/>
        <pt x="419" y="307" on="1"/>
        <pt x="419" y="0" on="1"/>
        <pt x="381" y="-19" on="0"/>
        <pt x="333" y="-84" on="0"/>
        <pt x="333" y="-116" on="1"/>
        <pt x="333" y="-142" on="0"/>
        <pt x="363" y="-168" on="0"/>
        <pt x="382" y="-168" on="1"/>
        <pt x="407" y="-168" on="0"/>
        <pt x="425" y="-154" on="1"/>
        <pt x="441" y="-180" on="1"/>
        <pt x="430" y="-190" on="0"/>
        <pt x="393" y="-203" on="0"/>
        <pt x="376" y="-203" on="1"/>
        <pt x="341" y="-203" on="0"/>
        <pt x="295" y="-163" on="0"/>
        <pt x="295" y="-122" on="1"/>
        <pt x="295" y="-84" on="0"/>
        <pt x="347" y="-15" on="0"/>
        <pt x="382" y="7" on="1"/>
        <pt x="377" y="62" on="1"/>
        <pt x="375" y="62" on="1"/>
        <pt x="338" y="33" on="0"/>
        <pt x="253" y="-12" on="0"/>
        <pt x="205" y="-12" on="1"/>
        <pt x="176" y="-12" on="0"/>
        <pt x="126" y="4" on="0"/>
        <pt x="87" y="36" on="0"/>
        <pt x="65" y="85" on="0"/>
      </contour>
    </TTGlyph>
    <TTGlyph name="aogonek.a" xMin="52" yMin="-203" xMax="474" yMax="492">
      <contour>
        <pt x="99" y="239" on="1"/>
        <pt x="99" y="191" on="0"/>
        <pt x="120" y="113" on="0"/>
        <pt x="160" y="58" on="0"/>
        <pt x="219" y="27" on="0"/>
        <pt x="257" y="27" on="1"/>
        <pt x="297" y="27" on="0"/>
        <pt x="370" y="68" on="0"/>
        <pt x="408" y="106" on="1"/>
        <pt x="408" y="391" on="1"/>
        <pt x="370" y="425" on="0"/>
        <pt x="303" y="453" on="0"/>
        <pt x="268" y="453" on="1"/>
        <pt x="232" y="453" on="0"/>
        <pt x="170" y="420" on="0"/>
        <pt x="125" y="363" on="0"/>
        <pt x="99" y="284" on="0"/>
      </contour>
      <contour>
        <pt x="52" y="239" on="1"/>
        <pt x="52" y="297" on="0"/>
        <pt x="87" y="391" on="0"/>
        <pt x="145" y="457" on="0"/>
        <pt x="223" y="492" on="0"/>
        <pt x="266" y="492" on="1"/>
        <pt x="309" y="492" on="0"/>
        <pt x="374" y="462" on="0"/>
        <pt x="408" y="434" on="1"/>
        <pt x="410" y="434" on="1"/>
        <pt x="413" y="480" on="1"/>
        <pt x="452" y="480" on="1"/>
        <pt x="452" y="0" on="1"/>
        <pt x="366" y="-52" on="0"/>
        <pt x="366" y="-116" on="1"/>
        <pt x="366" y="-142" on="0"/>
        <pt x="395" y="-168" on="0"/>
        <pt x="415" y="-168" on="1"/>
        <pt x="438" y="-168" on="0"/>
        <pt x="458" y="-154" on="1"/>
        <pt x="474" y="-180" on="1"/>
        <pt x="462" y="-190" on="0"/>
        <pt x="425" y="-203" on="0"/>
        <pt x="409" y="-203" on="1"/>
        <pt x="374" y="-203" on="0"/>
        <pt x="327" y="-163" on="0"/>
        <pt x="327" y="-122" on="1"/>
        <pt x="327" y="-84" on="0"/>
        <pt x="375" y="-22" on="0"/>
        <pt x="415" y="7" on="1"/>
        <pt x="410" y="62" on="1"/>
        <pt x="407" y="62" on="1"/>
        <pt x="378" y="33" on="0"/>
        <pt x="299" y="-12" on="0"/>
        <pt x="251" y="-12" on="1"/>
        <pt x="160" y="-12" on="0"/>
        <pt x="52" y="117" on="0"/>
      </contour>
    </TTGlyph>
    <TTGlyph name="approxequal" xMin="40" yMin="165" xMax="438" yMax="496">
      <component glyphName="asciitilde" x="0" y="102" flags="0x204"/>
      <component glyphName="asciitilde" x="0" y="-101" flags="0x4"/>
    </TTGlyph>
    <TTGlyph name="aring" xMin="65" yMin="-12" xMax="419" yMax="712">
      <component glyphName="a" x="0" y="0" flags="0x204"/>
      <component glyphName="uni030A" x="262" y="0" flags="0x4"/>
    </TTGlyph>
    <TTGlyph name="aring.a" xMin="52" yMin="-12" xMax="452" yMax="712">
      <component glyphName="uni0251" x="0" y="0" flags="0x204"/>
      <component glyphName="uni030A" x="273" y="0" flags="0x4"/>
    </TTGlyph>
    <TTGlyph name="arrowdown" xMin="43" yMin="-24" xMax="576" yMax="526">
      <contour>
        <pt x="308" y="-24" on="1"/>
        <pt x="43" y="245" on="1"/>
        <pt x="71" y="271" on="1"/>
        <pt x="290" y="40" on="1"/>
        <pt x="290" y="526" on="1"/>
        <pt x="329" y="526" on="1"/>
        <pt x="329" y="40" on="1"/>
        <pt x="549" y="271" on="1"/>
        <pt x="576" y="245" on="1"/>
        <pt x="312" y="-24" on="1"/>
      </contour>
    </TTGlyph>
    <TTGlyph name="arrowup" xMin="43" yMin="-24" xMax="576" yMax="526">
      <contour>
        <pt x="312" y="526" on="1"/>
        <pt x="576" y="257" on="1"/>
        <pt x="549" y="231" on="1"/>
        <pt x="329" y="462" on="1"/>
        <pt x="329" y="-24" on="1"/>
        <pt x="290" y="-24" on="1"/>
        <pt x="290" y="462" on="1"/>
        <pt x="71" y="231" on="1"/>
        <pt x="43" y="257" on="1"/>
        <pt x="308" y="526" on="1"/>
      </contour>
    </TTGlyph>
    <TTGlyph name="asciicircum" xMin="66" yMin="290" xMax="413" yMax="670">
      <contour>
        <pt x="216" y="670" on="1"/>
        <pt x="262" y="670" on="1"/>
        <pt x="413" y="290" on="1"/>
        <pt x="370" y="290" on="1"/>
        <pt x="293" y="493" on="1"/>
        <pt x="241" y="626" on="1"/>
        <pt x="237" y="626" on="1"/>
        <pt x="186" y="493" on="1"/>
        <pt x="109" y="290" on="1"/>
        <pt x="66" y="290" on="1"/>
      </contour>
    </TTGlyph>
    <TTGlyph name="asciitilde" xMin="40" yMin="266" xMax="438" yMax="394">
      <contour>
        <pt x="40" y="311" on="1"/>
        <pt x="62" y="353" on="0"/>
        <pt x="121" y="394" on="0"/>
        <pt x="150" y="394" on="1"/>
        <pt x="179" y="394" on="0"/>
        <pt x="226" y="366" on="0"/>
        <pt x="269" y="332" on="0"/>
        <pt x="309" y="304" on="0"/>
        <pt x="331" y="304" on="1"/>
        <pt x="354" y="304" on="0"/>
        <pt x="392" y="332" on="0"/>
        <pt x="410" y="367" on="1"/>
        <pt x="438" y="347" on="1"/>
        <pt x="417" y="306" on="0"/>
        <pt x="358" y="266" on="0"/>
        <pt x="329" y="266" on="1"/>
        <pt x="300" y="266" on="0"/>
        <pt x="253" y="294" on="0"/>
        <pt x="210" y="328" on="0"/>
        <pt x="170" y="356" on="0"/>
        <pt x="148" y="356" on="1"/>
        <pt x="125" y="356" on="0"/>
        <pt x="87" y="328" on="0"/>
        <pt x="69" y="293" on="1"/>
      </contour>
    </TTGlyph>
    <TTGlyph name="asterisk" xMin="70" yMin="462" xMax="325" yMax="712">
      <contour>
        <pt x="105" y="482" on="1"/>
        <pt x="160" y="570" on="1"/>
        <pt x="70" y="606" on="1"/>
        <pt x="79" y="636" on="1"/>
        <pt x="174" y="610" on="1"/>
        <pt x="181" y="712" on="1"/>
        <pt x="213" y="712" on="1"/>
        <pt x="220" y="611" on="1"/>
        <pt x="315" y="636" on="1"/>
        <pt x="325" y="606" on="1"/>
        <pt x="235" y="570" on="1"/>
        <pt x="289" y="482" on="1"/>
        <pt x="262" y="462" on="1"/>
        <pt x="198" y="545" on="1"/>
        <pt x="132" y="462" on="1"/>
      </contour>
    </TTGlyph>
    <TTGlyph name="at" xMin="52" yMin="-146" xMax="763" yMax="633">
      <contour>
        <pt x="52" y="202" on="1"/>
        <pt x="52" y="300" on="0"/>
        <pt x="117" y="459" on="0"/>
        <pt x="226" y="572" on="0"/>
        <pt x="370" y="633" on="0"/>
        <pt x="449" y="633" on="1"/>
        <pt x="521" y="633" on="0"/>
        <pt x="638" y="587" on="0"/>
        <pt x="719" y="504" on="0"/>
        <pt x="763" y="387" on="0"/>
        <pt x="763" y="316" on="1"/>
        <pt x="763" y="252" on="0"/>
        <pt x="729" y="155" on="0"/>
        <pt x="675" y="89" on="0"/>
        <pt x="610" y="56" on="0"/>
        <pt x="579" y="56" on="1"/>
        <pt x="539" y="56" on="0"/>
        <pt x="486" y="93" on="0"/>
        <pt x="482" y="132" on="1"/>
        <pt x="480" y="132" on="1"/>
        <pt x="454" y="103" on="0"/>
        <pt x="393" y="62" on="0"/>
        <pt x="358" y="62" on="1"/>
        <pt x="335" y="62" on="0"/>
        <pt x="293" y="79" on="0"/>
        <pt x="262" y="113" on="0"/>
        <pt x="244" y="164" on="0"/>
        <pt x="244" y="198" on="1"/>
        <pt x="244" y="234" on="0"/>
        <pt x="269" y="314" on="0"/>
        <pt x="317" y="380" on="0"/>
        <pt x="386" y="423" on="0"/>
        <pt x="430" y="423" on="1"/>
        <pt x="483" y="423" on="0"/>
        <pt x="513" y="375" on="1"/>
        <pt x="515" y="375" on="1"/>
        <pt x="524" y="415" on="1"/>
        <pt x="558" y="415" on="1"/>
        <pt x="522" y="226" on="1"/>
        <pt x="488" y="91" on="0"/>
        <pt x="582" y="91" on="1"/>
        <pt x="606" y="91" on="0"/>
        <pt x="657" y="121" on="0"/>
        <pt x="698" y="178" on="0"/>
        <pt x="725" y="260" on="0"/>
        <pt x="725" y="313" on="1"/>
        <pt x="725" y="377" on="0"/>
        <pt x="686" y="483" on="0"/>
        <pt x="614" y="557" on="0"/>
        <pt x="511" y="598" on="0"/>
        <pt x="446" y="598" on="1"/>
        <pt x="377" y="598" on="0"/>
        <pt x="249" y="542" on="0"/>
        <pt x="150" y="439" on="0"/>
        <pt x="90" y="294" on="0"/>
        <pt x="90" y="205" on="1"/>
        <pt x="90" y="132" on="0"/>
        <pt x="134" y="15" on="0"/>
        <pt x="213" y="-66" on="0"/>
        <pt x="324" y="-110" on="0"/>
        <pt x="391" y="-110" on="1"/>
        <pt x="441" y="-110" on="0"/>
        <pt x="523" y="-84" on="0"/>
        <pt x="559" y="-62" on="1"/>
        <pt x="575" y="-92" on="1"/>
        <pt x="489" y="-146" on="0"/>
        <pt x="388" y="-146" on="1"/>
        <pt x="316" y="-146" on="0"/>
        <pt x="193" y="-99" on="0"/>
        <pt x="103" y="-10" on="0"/>
        <pt x="52" y="119" on="0"/>
      </contour>
      <contour>
        <pt x="284" y="201" on="1"/>
        <pt x="284" y="144" on="0"/>
        <pt x="330" y="98" on="0"/>
        <pt x="364" y="98" on="1"/>
        <pt x="414" y="98" on="0"/>
        <pt x="472" y="165" on="1"/>
        <pt x="503" y="338" on="1"/>
        <pt x="485" y="366" on="0"/>
        <pt x="452" y="387" on="0"/>
        <pt x="429" y="387" on="1"/>
        <pt x="395" y="387" on="0"/>
        <pt x="341" y="352" on="0"/>
        <pt x="304" y="298" on="0"/>
        <pt x="284" y="232" on="0"/>
      </contour>
    </TTGlyph>
    <TTGlyph name="at.case" xMin="52" yMin="-18" xMax="703" yMax="681">
      <contour>
        <pt x="52" y="289" on="1"/>
        <pt x="52" y="377" on="0"/>
        <pt x="112" y="522" on="0"/>
        <pt x="214" y="625" on="0"/>
        <pt x="349" y="681" on="0"/>
        <pt x="423" y="681" on="1"/>
        <pt x="485" y="681" on="0"/>
        <pt x="588" y="641" on="0"/>
        <pt x="662" y="567" on="0"/>
        <pt x="703" y="462" on="0"/>
        <pt x="703" y="396" on="1"/>
        <pt x="703" y="337" on="0"/>
        <pt x="674" y="247" on="0"/>
        <pt x="626" y="186" on="0"/>
        <pt x="566" y="154" on="0"/>
        <pt x="535" y="154" on="1"/>
        <pt x="498" y="154" on="0"/>
        <pt x="453" y="194" on="0"/>
        <pt x="451" y="230" on="1"/>
        <pt x="449" y="230" on="1"/>
        <pt x="424" y="201" on="0"/>
        <pt x="366" y="160" on="0"/>
        <pt x="329" y="160" on="1"/>
        <pt x="308" y="160" on="0"/>
        <pt x="270" y="177" on="0"/>
        <pt x="241" y="210" on="0"/>
        <pt x="224" y="257" on="0"/>
        <pt x="224" y="286" on="1"/>
        <pt x="224" y="321" on="0"/>
        <pt x="247" y="397" on="0"/>
        <pt x="292" y="460" on="0"/>
        <pt x="360" y="501" on="0"/>
        <pt x="404" y="501" on="1"/>
        <pt x="428" y="501" on="0"/>
        <pt x="468" y="477" on="0"/>
        <pt x="482" y="453" on="1"/>
        <pt x="484" y="453" on="1"/>
        <pt x="494" y="493" on="1"/>
        <pt x="530" y="493" on="1"/>
        <pt x="493" y="324" on="1"/>
        <pt x="477" y="252" on="0"/>
        <pt x="499" y="189" on="0"/>
        <pt x="540" y="189" on="1"/>
        <pt x="561" y="189" on="0"/>
        <pt x="606" y="216" on="0"/>
        <pt x="642" y="268" on="0"/>
        <pt x="665" y="344" on="0"/>
        <pt x="665" y="394" on="1"/>
        <pt x="665" y="453" on="0"/>
        <pt x="631" y="546" on="0"/>
        <pt x="566" y="611" on="0"/>
        <pt x="474" y="646" on="0"/>
        <pt x="416" y="646" on="1"/>
        <pt x="352" y="646" on="0"/>
        <pt x="234" y="596" on="0"/>
        <pt x="144" y="503" on="0"/>
        <pt x="90" y="372" on="0"/>
        <pt x="90" y="291" on="1"/>
        <pt x="90" y="223" on="0"/>
        <pt x="130" y="120" on="0"/>
        <pt x="202" y="51" on="0"/>
        <pt x="302" y="17" on="0"/>
        <pt x="362" y="17" on="1"/>
        <pt x="399" y="17" on="0"/>
        <pt x="467" y="34" on="0"/>
        <pt x="495" y="53" on="1"/>
        <pt x="512" y="25" on="1"/>
        <pt x="477" y="2" on="0"/>
        <pt x="401" y="-18" on="0"/>
        <pt x="359" y="-18" on="1"/>
        <pt x="293" y="-18" on="0"/>
        <pt x="181" y="22" on="0"/>
        <pt x="99" y="100" on="0"/>
        <pt x="52" y="214" on="0"/>
      </contour>
      <contour>
        <pt x="336" y="196" on="1"/>
        <pt x="384" y="196" on="0"/>
        <pt x="442" y="263" on="1"/>
        <pt x="473" y="417" on="1"/>
        <pt x="455" y="445" on="0"/>
        <pt x="424" y="466" on="0"/>
        <pt x="401" y="466" on="1"/>
        <pt x="369" y="466" on="0"/>
        <pt x="318" y="434" on="0"/>
        <pt x="282" y="383" on="0"/>
        <pt x="263" y="321" on="0"/>
        <pt x="263" y="292" on="1"/>
        <pt x="263" y="242" on="0"/>
        <pt x="307" y="196" on="0"/>
      </contour>
    </TTGlyph>
    <TTGlyph name="atilde" xMin="65" yMin="-12" xMax="419" yMax="670">
      <component glyphName="a" x="0" y="0" flags="0x204"/>
      <component glyphName="uni0303" x="262" y="0" flags="0x4"/>
    </TTGlyph>
    <TTGlyph name="atilde.a" xMin="52" yMin="-12" xMax="452" yMax="670">
      <component glyphName="uni0251" x="0" y="0" flags="0x204"/>
      <component glyphName="uni0303" x="273" y="0" flags="0x4"/>
    </TTGlyph>
    <TTGlyph name="b" xMin="92" yMin="-12" xMax="492" yMax="719">
      <contour>
        <pt x="92" y="719" on="1"/>
        <pt x="136" y="719" on="1"/>
        <pt x="136" y="511" on="1"/>
        <pt x="134" y="417" on="1"/>
        <pt x="171" y="448" on="0"/>
        <pt x="255" y="492" on="0"/>
        <pt x="300" y="492" on="1"/>
        <pt x="396" y="492" on="0"/>
        <pt x="492" y="359" on="0"/>
        <pt x="492" y="247" on="1"/>
        <pt x="492" y="186" on="0"/>
        <pt x="458" y="90" on="0"/>
        <pt x="399" y="23" on="0"/>
        <pt x="322" y="-12" on="0"/>
        <pt x="280" y="-12" on="1"/>
        <pt x="245" y="-12" on="0"/>
        <pt x="170" y="19" on="0"/>
        <pt x="136" y="45" on="1"/>
        <pt x="134" y="45" on="1"/>
        <pt x="129" y="0" on="1"/>
        <pt x="92" y="0" on="1"/>
      </contour>
      <contour>
        <pt x="136" y="89" on="1"/>
        <pt x="176" y="55" on="0"/>
        <pt x="250" y="27" on="0"/>
        <pt x="278" y="27" on="1"/>
        <pt x="314" y="27" on="0"/>
        <pt x="376" y="59" on="0"/>
        <pt x="420" y="117" on="0"/>
        <pt x="445" y="198" on="0"/>
        <pt x="445" y="247" on="1"/>
        <pt x="445" y="291" on="0"/>
        <pt x="428" y="367" on="0"/>
        <pt x="392" y="422" on="0"/>
        <pt x="334" y="453" on="0"/>
        <pt x="293" y="453" on="1"/>
        <pt x="257" y="453" on="0"/>
        <pt x="179" y="412" on="0"/>
        <pt x="136" y="374" on="1"/>
      </contour>
    </TTGlyph>
    <TTGlyph name="b.sups" xMin="58" yMin="261" xMax="330" yMax="742">
      <contour>
        <pt x="58" y="742" on="1"/>
        <pt x="95" y="742" on="1"/>
        <pt x="95" y="607" on="1"/>
        <pt x="93" y="544" on="1"/>
        <pt x="118" y="565" on="0"/>
        <pt x="169" y="595" on="0"/>
        <pt x="200" y="595" on="1"/>
        <pt x="266" y="595" on="0"/>
        <pt x="330" y="508" on="0"/>
        <pt x="330" y="434" on="1"/>
        <pt x="330" y="393" on="0"/>
        <pt x="308" y="329" on="0"/>
        <pt x="269" y="284" on="0"/>
        <pt x="218" y="261" on="0"/>
        <pt x="190" y="261" on="1"/>
        <pt x="167" y="261" on="0"/>
        <pt x="118" y="281" on="0"/>
        <pt x="95" y="300" on="1"/>
        <pt x="91" y="300" on="1"/>
        <pt x="87" y="269" on="1"/>
        <pt x="58" y="269" on="1"/>
      </contour>
      <contour>
        <pt x="95" y="333" on="1"/>
        <pt x="119" y="312" on="0"/>
        <pt x="169" y="294" on="0"/>
        <pt x="189" y="294" on="1"/>
        <pt x="233" y="294" on="0"/>
        <pt x="291" y="369" on="0"/>
        <pt x="291" y="434" on="1"/>
        <pt x="291" y="490" on="0"/>
        <pt x="245" y="562" on="0"/>
        <pt x="195" y="562" on="1"/>
        <pt x="172" y="562" on="0"/>
        <pt x="121" y="535" on="0"/>
        <pt x="95" y="511" on="1"/>
      </contour>
    </TTGlyph>
    <TTGlyph name="backslash" xMin="5" yMin="-160" xMax="349" yMax="710">
      <contour>
        <pt x="5" y="710" on="1"/>
        <pt x="43" y="710" on="1"/>
        <pt x="349" y="-160" on="1"/>
        <pt x="311" y="-160" on="1"/>
      </contour>
    </TTGlyph>
    <TTGlyph name="bar" xMin="95" yMin="-250" xMax="131" yMax="750">
      <contour>
        <pt x="95" y="750" on="1"/>
        <pt x="131" y="750" on="1"/>
        <pt x="131" y="-250" on="1"/>
        <pt x="95" y="-250" on="1"/>
      </contour>
    </TTGlyph>
    <TTGlyph name="braceleft" xMin="35" yMin="-152" xMax="258" yMax="708">
      <contour>
        <pt x="258" y="-123" on="1"/>
        <pt x="258" y="-152" on="1"/>
        <pt x="224" y="-152" on="1"/>
        <pt x="196" y="-152" on="0"/>
        <pt x="155" y="-140" on="0"/>
        <pt x="127" y="-111" on="0"/>
        <pt x="113" y="-62" on="0"/>
        <pt x="113" y="-24" on="1"/>
        <pt x="113" y="32" on="0"/>
        <pt x="121" y="129" on="0"/>
        <pt x="121" y="181" on="1"/>
        <pt x="121" y="196" on="0"/>
        <pt x="114" y="226" on="0"/>
        <pt x="95" y="248" on="0"/>
        <pt x="61" y="262" on="0"/>
        <pt x="35" y="262" on="1"/>
        <pt x="35" y="294" on="1"/>
        <pt x="61" y="294" on="0"/>
        <pt x="95" y="308" on="0"/>
        <pt x="114" y="330" on="0"/>
        <pt x="121" y="358" on="0"/>
        <pt x="121" y="373" on="1"/>
        <pt x="121" y="427" on="0"/>
        <pt x="113" y="524" on="0"/>
        <pt x="113" y="580" on="1"/>
        <pt x="113" y="618" on="0"/>
        <pt x="127" y="667" on="0"/>
        <pt x="155" y="696" on="0"/>
        <pt x="196" y="708" on="0"/>
        <pt x="224" y="708" on="1"/>
        <pt x="258" y="708" on="1"/>
        <pt x="258" y="679" on="1"/>
        <pt x="227" y="679" on="1"/>
        <pt x="181" y="679" on="0"/>
        <pt x="150" y="629" on="0"/>
        <pt x="150" y="576" on="1"/>
        <pt x="150" y="527" on="0"/>
        <pt x="156" y="438" on="0"/>
        <pt x="156" y="384" on="1"/>
        <pt x="156" y="339" on="0"/>
        <pt x="135" y="289" on="0"/>
        <pt x="105" y="280" on="1"/>
        <pt x="105" y="276" on="1"/>
        <pt x="135" y="267" on="0"/>
        <pt x="156" y="215" on="0"/>
        <pt x="156" y="172" on="1"/>
        <pt x="156" y="118" on="0"/>
        <pt x="150" y="29" on="0"/>
        <pt x="150" y="-20" on="1"/>
        <pt x="150" y="-73" on="0"/>
        <pt x="181" y="-123" on="0"/>
        <pt x="227" y="-123" on="1"/>
      </contour>
    </TTGlyph>
    <TTGlyph name="braceright" xMin="21" yMin="-152" xMax="244" yMax="708">
      <contour>
        <pt x="52" y="-123" on="1"/>
        <pt x="98" y="-123" on="0"/>
        <pt x="129" y="-73" on="0"/>
        <pt x="129" y="-20" on="1"/>
        <pt x="129" y="29" on="0"/>
        <pt x="123" y="118" on="0"/>
        <pt x="123" y="172" on="1"/>
        <pt x="123" y="215" on="0"/>
        <pt x="145" y="267" on="0"/>
        <pt x="174" y="276" on="1"/>
        <pt x="174" y="280" on="1"/>
        <pt x="145" y="289" on="0"/>
        <pt x="123" y="339" on="0"/>
        <pt x="123" y="384" on="1"/>
        <pt x="123" y="438" on="0"/>
        <pt x="129" y="527" on="0"/>
        <pt x="129" y="576" on="1"/>
        <pt x="129" y="629" on="0"/>
        <pt x="98" y="679" on="0"/>
        <pt x="52" y="679" on="1"/>
        <pt x="21" y="679" on="1"/>
        <pt x="21" y="708" on="1"/>
        <pt x="55" y="708" on="1"/>
        <pt x="83" y="708" on="0"/>
        <pt x="124" y="696" on="0"/>
        <pt x="152" y="667" on="0"/>
        <pt x="166" y="618" on="0"/>
        <pt x="166" y="580" on="1"/>
        <pt x="166" y="524" on="0"/>
        <pt x="158" y="427" on="0"/>
        <pt x="158" y="373" on="1"/>
        <pt x="158" y="358" on="0"/>
        <pt x="165" y="330" on="0"/>
        <pt x="184" y="308" on="0"/>
        <pt x="218" y="294" on="0"/>
        <pt x="244" y="294" on="1"/>
        <pt x="244" y="262" on="1"/>
        <pt x="218" y="262" on="0"/>
        <pt x="184" y="248" on="0"/>
        <pt x="165" y="226" on="0"/>
        <pt x="158" y="196" on="0"/>
        <pt x="158" y="181" on="1"/>
        <pt x="158" y="129" on="0"/>
        <pt x="166" y="32" on="0"/>
        <pt x="166" y="-24" on="1"/>
        <pt x="166" y="-62" on="0"/>
        <pt x="152" y="-111" on="0"/>
        <pt x="124" y="-140" on="0"/>
        <pt x="83" y="-152" on="0"/>
        <pt x="55" y="-152" on="1"/>
        <pt x="21" y="-152" on="1"/>
        <pt x="21" y="-123" on="1"/>
      </contour>
    </TTGlyph>
    <TTGlyph name="bracketleft" xMin="98" yMin="-152" xMax="258" yMax="708">
      <contour>
        <pt x="98" y="708" on="1"/>
        <pt x="258" y="708" on="1"/>
        <pt x="258" y="679" on="1"/>
        <pt x="133" y="679" on="1"/>
        <pt x="133" y="-123" on="1"/>
        <pt x="258" y="-123" on="1"/>
        <pt x="258" y="-152" on="1"/>
        <pt x="98" y="-152" on="1"/>
      </contour>
    </TTGlyph>
    <TTGlyph name="bracketright" xMin="21" yMin="-152" xMax="181" yMax="708">
      <contour>
        <pt x="146" y="-123" on="1"/>
        <pt x="146" y="679" on="1"/>
        <pt x="21" y="679" on="1"/>
        <pt x="21" y="708" on="1"/>
        <pt x="181" y="708" on="1"/>
        <pt x="181" y="-152" on="1"/>
        <pt x="21" y="-152" on="1"/>
        <pt x="21" y="-123" on="1"/>
      </contour>
    </TTGlyph>
    <TTGlyph name="breve" xMin="148" yMin="576" xMax="386" yMax="695">
      <component glyphName="uni0306" x="267" y="0" flags="0x4"/>
    </TTGlyph>
    <TTGlyph name="brokenbar" xMin="95" yMin="-250" xMax="131" yMax="750">
      <contour>
        <pt x="95" y="750" on="1"/>
        <pt x="131" y="750" on="1"/>
        <pt x="131" y="279" on="1"/>
        <pt x="95" y="279" on="1"/>
      </contour>
      <contour>
        <pt x="131" y="220" on="1"/>
        <pt x="131" y="-250" on="1"/>
        <pt x="95" y="-250" on="1"/>
        <pt x="95" y="220" on="1"/>
      </contour>
    </TTGlyph>
    <TTGlyph name="bullet" xMin="40" yMin="154" xMax="241" yMax="374">
      <contour>
        <pt x="140" y="154" on="1"/>
        <pt x="121" y="154" on="0"/>
        <pt x="85" y="169" on="0"/>
        <pt x="57" y="198" on="0"/>
        <pt x="40" y="238" on="0"/>
        <pt x="40" y="264" on="1"/>
        <pt x="40" y="289" on="0"/>
        <pt x="57" y="330" on="0"/>
        <pt x="85" y="358" on="0"/>
        <pt x="121" y="374" on="0"/>
        <pt x="140" y="374" on="1"/>
        <pt x="159" y="374" on="0"/>
        <pt x="196" y="358" on="0"/>
        <pt x="224" y="330" on="0"/>
        <pt x="241" y="289" on="0"/>
        <pt x="241" y="264" on="1"/>
        <pt x="241" y="238" on="0"/>
        <pt x="224" y="198" on="0"/>
        <pt x="196" y="169" on="0"/>
        <pt x="159" y="154" on="0"/>
      </contour>
    </TTGlyph>
    <TTGlyph name="c" xMin="52" yMin="-12" xMax="423" yMax="492">
      <contour>
        <pt x="52" y="239" on="1"/>
        <pt x="52" y="299" on="0"/>
        <pt x="88" y="394" on="0"/>
        <pt x="148" y="458" on="0"/>
        <pt x="227" y="492" on="0"/>
        <pt x="271" y="492" on="1"/>
        <pt x="321" y="492" on="0"/>
        <pt x="388" y="456" on="0"/>
        <pt x="412" y="433" on="1"/>
        <pt x="386" y="402" on="1"/>
        <pt x="363" y="424" on="0"/>
        <pt x="307" y="453" on="0"/>
        <pt x="272" y="453" on="1"/>
        <pt x="235" y="453" on="0"/>
        <pt x="172" y="422" on="0"/>
        <pt x="125" y="365" on="0"/>
        <pt x="98" y="287" on="0"/>
        <pt x="98" y="239" on="1"/>
        <pt x="98" y="192" on="0"/>
        <pt x="123" y="114" on="0"/>
        <pt x="168" y="58" on="0"/>
        <pt x="233" y="27" on="0"/>
        <pt x="272" y="27" on="1"/>
        <pt x="310" y="27" on="0"/>
        <pt x="375" y="59" on="0"/>
        <pt x="400" y="82" on="1"/>
        <pt x="423" y="52" on="1"/>
        <pt x="392" y="24" on="0"/>
        <pt x="316" y="-12" on="0"/>
        <pt x="270" y="-12" on="1"/>
        <pt x="223" y="-12" on="0"/>
        <pt x="144" y="22" on="0"/>
        <pt x="85" y="86" on="0"/>
        <pt x="52" y="179" on="0"/>
      </contour>
    </TTGlyph>
    <TTGlyph name="c.sups" xMin="33" yMin="261" xMax="284" yMax="595">
      <contour>
        <pt x="183" y="261" on="1"/>
        <pt x="150" y="261" on="0"/>
        <pt x="95" y="283" on="0"/>
        <pt x="55" y="326" on="0"/>
        <pt x="33" y="388" on="0"/>
        <pt x="33" y="428" on="1"/>
        <pt x="33" y="468" on="0"/>
        <pt x="58" y="530" on="0"/>
        <pt x="99" y="573" on="0"/>
        <pt x="153" y="595" on="0"/>
        <pt x="183" y="595" on="1"/>
        <pt x="217" y="595" on="0"/>
        <pt x="262" y="573" on="0"/>
        <pt x="278" y="559" on="1"/>
        <pt x="259" y="533" on="1"/>
        <pt x="242" y="547" on="0"/>
        <pt x="209" y="562" on="0"/>
        <pt x="183" y="562" on="1"/>
        <pt x="135" y="562" on="0"/>
        <pt x="72" y="487" on="0"/>
        <pt x="72" y="428" on="1"/>
        <pt x="72" y="368" on="0"/>
        <pt x="134" y="294" on="0"/>
        <pt x="184" y="294" on="1"/>
        <pt x="212" y="294" on="0"/>
        <pt x="251" y="311" on="0"/>
        <pt x="267" y="325" on="1"/>
        <pt x="284" y="299" on="1"/>
        <pt x="266" y="284" on="0"/>
        <pt x="219" y="261" on="0"/>
      </contour>
    </TTGlyph>
    <TTGlyph name="cacute" xMin="52" yMin="-12" xMax="423" yMax="708">
      <component glyphName="c" x="0" y="0" flags="0x204"/>
      <component glyphName="uni0301" x="271" y="0" flags="0x4"/>
    </TTGlyph>
    <TTGlyph name="caron" xMin="153" yMin="572" xMax="381" yMax="708">
      <component glyphName="uni030C" x="267" y="0" flags="0x4"/>
    </TTGlyph>
    <TTGlyph name="ccaron" xMin="52" yMin="-12" xMax="423" yMax="708">
      <component glyphName="c" x="0" y="0" flags="0x204"/>
      <component glyphName="uni030C" x="271" y="0" flags="0x4"/>
    </TTGlyph>
    <TTGlyph name="ccedilla" xMin="52" yMin="-208" xMax="423" yMax="492">
      <component glyphName="c" x="0" y="0" flags="0x204"/>
      <component glyphName="uni0327" x="265" y="0" flags="0x4"/>
    </TTGlyph>
    <TTGlyph name="ccircumflex" xMin="52" yMin="-12" xMax="423" yMax="708">
      <component glyphName="c" x="0" y="0" flags="0x204"/>
      <component glyphName="uni0302" x="271" y="0" flags="0x4"/>
    </TTGlyph>
    <TTGlyph name="cdotaccent" xMin="52" yMin="-12" xMax="423" yMax="676">
      <component glyphName="c" x="0" y="0" flags="0x204"/>
      <component glyphName="uni0307" x="271" y="0" flags="0x4"/>
    </TTGlyph>
    <TTGlyph name="cedilla" xMin="202" yMin="-208" xMax="334" yMax="2">
      <component glyphName="uni0327" x="276" y="0" flags="0x4"/>
    </TTGlyph>
    <TTGlyph name="cent" xMin="62" yMin="-28" xMax="435" yMax="652">
      <contour>
        <pt x="255" y="502" on="1"/>
        <pt x="223" y="497" on="0"/>
        <pt x="168" y="465" on="0"/>
        <pt x="129" y="416" on="0"/>
        <pt x="107" y="350" on="0"/>
        <pt x="107" y="311" on="1"/>
        <pt x="107" y="233" on="0"/>
        <pt x="186" y="131" on="0"/>
        <pt x="255" y="121" on="1"/>
      </contour>
      <contour>
        <pt x="435" y="144" on="1"/>
        <pt x="406" y="117" on="0"/>
        <pt x="333" y="82" on="0"/>
        <pt x="289" y="80" on="1"/>
        <pt x="289" y="-28" on="1"/>
        <pt x="255" y="-28" on="1"/>
        <pt x="255" y="81" on="1"/>
        <pt x="213" y="85" on="0"/>
        <pt x="142" y="119" on="0"/>
        <pt x="91" y="178" on="0"/>
        <pt x="62" y="260" on="0"/>
        <pt x="62" y="311" on="1"/>
        <pt x="62" y="363" on="0"/>
        <pt x="92" y="444" on="0"/>
        <pt x="145" y="503" on="0"/>
        <pt x="215" y="537" on="0"/>
        <pt x="255" y="541" on="1"/>
        <pt x="255" y="652" on="1"/>
        <pt x="289" y="652" on="1"/>
        <pt x="289" y="543" on="1"/>
        <pt x="337" y="541" on="0"/>
        <pt x="401" y="506" on="0"/>
        <pt x="424" y="483" on="1"/>
        <pt x="400" y="455" on="1"/>
        <pt x="377" y="475" on="0"/>
        <pt x="323" y="502" on="0"/>
        <pt x="289" y="504" on="1"/>
        <pt x="289" y="119" on="1"/>
        <pt x="326" y="121" on="0"/>
        <pt x="388" y="151" on="0"/>
        <pt x="412" y="173" on="1"/>
      </contour>
    </TTGlyph>
    <TTGlyph name="circumflex" xMin="153" yMin="572" xMax="381" yMax="708">
      <component glyphName="uni0302" x="267" y="0" flags="0x4"/>
    </TTGlyph>
    <TTGlyph name="colon" xMin="67" yMin="-12" xMax="152" yMax="461">
      <component glyphName="period" x="0" y="382" flags="0x204"/>
      <component glyphName="period" x="0" y="0" flags="0x4"/>
    </TTGlyph>
    <TTGlyph name="colon.sups" xMin="44" yMin="432" xMax="115" yMax="743">
      <contour>
        <pt x="44" y="470" on="1"/>
        <pt x="44" y="487" on="0"/>
        <pt x="64" y="507" on="0"/>
        <pt x="79" y="507" on="1"/>
        <pt x="95" y="507" on="0"/>
        <pt x="115" y="487" on="0"/>
        <pt x="115" y="470" on="1"/>
        <pt x="115" y="452" on="0"/>
        <pt x="95" y="432" on="0"/>
        <pt x="79" y="432" on="1"/>
        <pt x="64" y="432" on="0"/>
        <pt x="44" y="452" on="0"/>
      </contour>
      <contour>
        <pt x="44" y="706" on="1"/>
        <pt x="44" y="723" on="0"/>
        <pt x="64" y="743" on="0"/>
        <pt x="79" y="743" on="1"/>
        <pt x="95" y="743" on="0"/>
        <pt x="115" y="723" on="0"/>
        <pt x="115" y="706" on="1"/>
        <pt x="115" y="688" on="0"/>
        <pt x="95" y="668" on="0"/>
        <pt x="79" y="668" on="1"/>
        <pt x="64" y="668" on="0"/>
        <pt x="44" y="688" on="0"/>
      </contour>
    </TTGlyph>
    <TTGlyph name="colonmonetary" xMin="65" yMin="-110" xMax="456" yMax="749">
      <contour>
        <pt x="207" y="53" on="1"/>
        <pt x="236" y="31" on="0"/>
        <pt x="272" y="27" on="1"/>
        <pt x="341" y="607" on="1"/>
        <pt x="324" y="613" on="0"/>
        <pt x="305" y="613" on="1"/>
        <pt x="289" y="613" on="0"/>
        <pt x="274" y="610" on="1"/>
      </contour>
      <contour>
        <pt x="241" y="602" on="1"/>
        <pt x="178" y="577" on="0"/>
        <pt x="112" y="431" on="0"/>
        <pt x="112" y="322" on="1"/>
        <pt x="112" y="241" on="0"/>
        <pt x="147" y="117" on="0"/>
        <pt x="179" y="79" on="1"/>
      </contour>
      <contour>
        <pt x="456" y="82" on="1"/>
        <pt x="426" y="40" on="0"/>
        <pt x="350" y="-10" on="0"/>
        <pt x="298" y="-12" on="1"/>
        <pt x="286" y="-110" on="1"/>
        <pt x="256" y="-110" on="1"/>
        <pt x="268" y="-11" on="1"/>
        <pt x="230" y="-6" on="0"/>
        <pt x="202" y="9" on="1"/>
        <pt x="188" y="-110" on="1"/>
        <pt x="157" y="-110" on="1"/>
        <pt x="173" y="27" on="1"/>
        <pt x="122" y="67" on="0"/>
        <pt x="65" y="218" on="0"/>
        <pt x="65" y="321" on="1"/>
        <pt x="65" y="453" on="0"/>
        <pt x="161" y="621" on="0"/>
        <pt x="246" y="644" on="1"/>
        <pt x="259" y="749" on="1"/>
        <pt x="290" y="749" on="1"/>
        <pt x="278" y="650" on="1"/>
        <pt x="285" y="651" on="0"/>
        <pt x="298" y="651" on="0"/>
        <pt x="305" y="651" on="1"/>
        <pt x="326" y="651" on="0"/>
        <pt x="346" y="645" on="1"/>
        <pt x="358" y="749" on="1"/>
        <pt x="388" y="749" on="1"/>
        <pt x="374" y="634" on="1"/>
        <pt x="397" y="623" on="0"/>
        <pt x="433" y="591" on="0"/>
        <pt x="447" y="572" on="1"/>
        <pt x="418" y="545" on="1"/>
        <pt x="396" y="577" on="0"/>
        <pt x="370" y="594" on="1"/>
        <pt x="302" y="26" on="1"/>
        <pt x="340" y="28" on="0"/>
        <pt x="399" y="69" on="0"/>
        <pt x="427" y="107" on="1"/>
      </contour>
    </TTGlyph>
</ttFont>
